{
  "accessors": [
    {
      "bufferView": 0,
      "componentType": 5126,
      "count": 154,
      "type": "MAT4"
    },
    {
      "bufferView": 1,
      "componentType": 5125,
      "count": 26964,
      "max": [
        4695
      ],
      "min": [
        0
      ],
      "type": "SCALAR"
    },
    {
      "bufferView": 2,
      "componentType": 5126,
      "count": 4696,
      "max": [
        14.511024475097656,
        46.928890228271484,
        152.24490356445313
      ],
      "min": [
        -15.298604011535645,
        -47.833473205566406,
        114.5284652709961
      ],
      "type": "VEC3"
    },
    {
      "bufferView": 3,
      "componentType": 5126,
      "count": 4696,
      "type": "VEC3"
    },
    {
      "bufferView": 4,
      "componentType": 5126,
      "count": 4696,
      "type": "VEC2"
    },
    {
      "bufferView": 5,
      "componentType": 5123,
      "count": 4696,
      "type": "VEC4"
    },
    {
      "bufferView": 6,
      "componentType": 5126,
      "count": 4696,
      "type": "VEC4"
    },
    {
      "bufferView": 7,
      "componentType": 5125,
      "count": 11904,
      "max": [
        2193
      ],
      "min": [
        0
      ],
      "type": "SCALAR"
    },
    {
      "bufferView": 8,
      "componentType": 5126,
      "count": 2194,
      "max": [
        26.804521560668945,
        49.659423828125,
        126.85265350341797
      ],
      "min": [
        3.720902919769287,
        -49.791683197021484,
        110.12918090820313
      ],
      "type": "VEC3"
    },
    {
      "bufferView": 9,
      "componentType": 5126,
      "count": 2194,
      "type": "VEC3"
    },
    {
      "bufferView": 10,
      "componentType": 5126,
      "count": 2194,
      "type": "VEC2"
    },
    {
      "bufferView": 11,
      "componentType": 5123,
      "count": 2194,
      "type": "VEC4"
    },
    {
      "bufferView": 12,
      "componentType": 5126,
      "count": 2194,
      "type": "VEC4"
    },
    {
      "bufferView": 13,
      "componentType": 5125,
      "count": 39048,
      "max": [
        7103
      ],
      "min": [
        0
      ],
      "type": "SCALAR"
    },
    {
      "bufferView": 14,
      "componentType": 5126,
      "count": 7104,
      "max": [
        41.66100311279297,
        51.62028503417969,
        116.35221099853516
      ],
      "min": [
        20.873598098754883,
        -51.620506286621094,
        101.4449691772461
      ],
      "type": "VEC3"
    },
    {
      "bufferView": 15,
      "componentType": 5126,
      "count": 7104,
      "type": "VEC3"
    },
    {
      "bufferView": 16,
      "componentType": 5126,
      "count": 7104,
      "type": "VEC2"
    },
    {
      "bufferView": 17,
      "componentType": 5123,
      "count": 7104,
      "type": "VEC4"
    },
    {
      "bufferView": 18,
      "componentType": 5126,
      "count": 7104,
      "type": "VEC4"
    },
    {
      "bufferView": 19,
      "componentType": 5125,
      "count": 11004,
      "max": [
        2267
      ],
      "min": [
        0
      ],
      "type": "SCALAR"
    },
    {
      "bufferView": 20,
      "componentType": 5126,
      "count": 2268,
      "max": [
        26.621706008911133,
        50.29707336425781,
        117.61205291748047
      ],
      "min": [
        19.976959228515625,
        42.923274993896484,
        110.0834732055664
      ],
      "type": "VEC3"
    },
    {
      "bufferView": 21,
      "componentType": 5126,
      "count": 2268,
      "type": "VEC3"
    },
    {
      "bufferView": 22,
      "componentType": 5126,
      "count": 2268,
      "type": "VEC2"
    },
    {
      "bufferView": 23,
      "componentType": 5123,
      "count": 2268,
      "type": "VEC4"
    },
    {
      "bufferView": 24,
      "componentType": 5126,
      "count": 2268,
      "type": "VEC4"
    },
    {
      "bufferView": 25,
      "componentType": 5125,
      "count": 11406,
      "max": [
        3201
      ],
      "min": [
        0
      ],
      "type": "SCALAR"
    },
    {
      "bufferView": 26,
      "componentType": 5126,
      "count": 3202,
      "max": [
        26.161794662475586,
        50.41895294189453,
        117.94985961914063
      ],
      "min": [
        20.88375473022461,
        46.15169906616211,
        113.72831726074219
      ],
      "type": "VEC3"
    },
    {
      "bufferView": 27,
      "componentType": 5126,
      "count": 3202,
      "type": "VEC3"
    },
    {
      "bufferView": 28,
      "componentType": 5126,
      "count": 3202,
      "type": "VEC2"
    },
    {
      "bufferView": 29,
      "componentType": 5123,
      "count": 3202,
      "type": "VEC4"
    },
    {
      "bufferView": 30,
      "componentType": 5126,
      "count": 3202,
      "type": "VEC4"
    },
    {
      "bufferView": 31,
      "componentType": 5125,
      "count": 33,
      "max": [
        16
      ],
      "min": [
        0
      ],
      "type": "SCALAR"
    },
    {
      "bufferView": 32,
      "componentType": 5126,
      "count": 17,
      "max": [
        24.025848388671875,
        49.61107635498047,
        116.70526123046875
      ],
      "min": [
        23.02256965637207,
        48.21919631958008,
        115.63330841064453
      ],
      "type": "VEC3"
    },
    {
      "bufferView": 33,
      "componentType": 5126,
      "count": 17,
      "type": "VEC3"
    },
    {
      "bufferView": 34,
      "componentType": 5126,
      "count": 17,
      "type": "VEC2"
    },
    {
      "bufferView": 35,
      "componentType": 5123,
      "count": 17,
      "type": "VEC4"
    },
    {
      "bufferView": 36,
      "componentType": 5126,
      "count": 17,
      "type": "VEC4"
    },
    {
      "bufferView": 37,
      "componentType": 5125,
      "count": 42,
      "max": [
        15
      ],
      "min": [
        0
      ],
      "type": "SCALAR"
    },
    {
      "bufferView": 38,
      "componentType": 5126,
      "count": 16,
      "max": [
        25.308433532714844,
        50.0151252746582,
        117.55110931396484
      ],
      "min": [
        22.054615020751953,
        47.57912063598633,
        115.26768493652344
      ],
      "type": "VEC3"
    },
    {
      "bufferView": 39,
      "componentType": 5126,
      "count": 16,
      "type": "VEC3"
    },
    {
      "bufferView": 40,
      "componentType": 5126,
      "count": 16,
      "type": "VEC2"
    },
    {
      "bufferView": 41,
      "componentType": 5123,
      "count": 16,
      "type": "VEC4"
    },
    {
      "bufferView": 42,
      "componentType": 5126,
      "count": 16,
      "type": "VEC4"
    }
  ],
  "asset": {
    "generator": "Greyhound",
    "version": "2.0"
  },
  "bufferViews": [
    {
      "buffer": 0,
      "byteLength": 9856
    },
    {
      "buffer": 0,
      "byteLength": 107856,
      "byteOffset": 9856,
      "target": 34963
    },
    {
      "buffer": 0,
      "byteLength": 56352,
      "byteOffset": 117712,
      "target": 34962
    },
    {
      "buffer": 0,
      "byteLength": 56352,
      "byteOffset": 174064,
      "target": 34962
    },
    {
      "buffer": 0,
      "byteLength": 37568,
      "byteOffset": 230416,
      "target": 34962
    },
    {
      "buffer": 0,
      "byteLength": 37568,
      "byteOffset": 267984,
      "target": 34962
    },
    {
      "buffer": 0,
      "byteLength": 75136,
      "byteOffset": 305552,
      "target": 34962
    },
    {
      "buffer": 0,
      "byteLength": 47616,
      "byteOffset": 380688,
      "target": 34963
    },
    {
      "buffer": 0,
      "byteLength": 26328,
      "byteOffset": 428304,
      "target": 34962
    },
    {
      "buffer": 0,
      "byteLength": 26328,
      "byteOffset": 454632,
      "target": 34962
    },
    {
      "buffer": 0,
      "byteLength": 17552,
      "byteOffset": 480960,
      "target": 34962
    },
    {
      "buffer": 0,
      "byteLength": 17552,
      "byteOffset": 498512,
      "target": 34962
    },
    {
      "buffer": 0,
      "byteLength": 35104,
      "byteOffset": 516064,
      "target": 34962
    },
    {
      "buffer": 0,
      "byteLength": 156192,
      "byteOffset": 551168,
      "target": 34963
    },
    {
      "buffer": 0,
      "byteLength": 85248,
      "byteOffset": 707360,
      "target": 34962
    },
    {
      "buffer": 0,
      "byteLength": 85248,
      "byteOffset": 792608,
      "target": 34962
    },
    {
      "buffer": 0,
      "byteLength": 56832,
      "byteOffset": 877856,
      "target": 34962
    },
    {
      "buffer": 0,
      "byteLength": 56832,
      "byteOffset": 934688,
      "target": 34962
    },
    {
      "buffer": 0,
      "byteLength": 113664,
      "byteOffset": 991520,
      "target": 34962
    },
    {
      "buffer": 0,
      "byteLength": 44016,
      "byteOffset": 1105184,
      "target": 34963
    },
    {
      "buffer": 0,
      "byteLength": 27216,
      "byteOffset": 1149200,
      "target": 34962
    },
    {
      "buffer": 0,
      "byteLength": 27216,
      "byteOffset": 1176416,
      "target": 34962
    },
    {
      "buffer": 0,
      "byteLength": 18144,
      "byteOffset": 1203632,
      "target": 34962
    },
    {
      "buffer": 0,
      "byteLength": 18144,
      "byteOffset": 1221776,
      "target": 34962
    },
    {
      "buffer": 0,
      "byteLength": 36288,
      "byteOffset": 1239920,
      "target": 34962
    },
    {
      "buffer": 0,
      "byteLength": 45624,
      "byteOffset": 1276208,
      "target": 34963
    },
    {
      "buffer": 0,
      "byteLength": 38424,
      "byteOffset": 1321832,
      "target": 34962
    },
    {
      "buffer": 0,
      "byteLength": 38424,
      "byteOffset": 1360256,
      "target": 34962
    },
    {
      "buffer": 0,
      "byteLength": 25616,
      "byteOffset": 1398680,
      "target": 34962
    },
    {
      "buffer": 0,
      "byteLength": 25616,
      "byteOffset": 1424296,
      "target": 34962
    },
    {
      "buffer": 0,
      "byteLength": 51232,
      "byteOffset": 1449912,
      "target": 34962
    },
    {
      "buffer": 0,
      "byteLength": 132,
      "byteOffset": 1501144,
      "target": 34963
    },
    {
      "buffer": 0,
      "byteLength": 204,
      "byteOffset": 1501276,
      "target": 34962
    },
    {
      "buffer": 0,
      "byteLength": 204,
      "byteOffset": 1501480,
      "target": 34962
    },
    {
      "buffer": 0,
      "byteLength": 136,
      "byteOffset": 1501684,
      "target": 34962
    },
    {
      "buffer": 0,
      "byteLength": 136,
      "byteOffset": 1501820,
      "target": 34962
    },
    {
      "buffer": 0,
      "byteLength": 272,
      "byteOffset": 1501956,
      "target": 34962
    },
    {
      "buffer": 0,
      "byteLength": 168,
      "byteOffset": 1502228,
      "target": 34963
    },
    {
      "buffer": 0,
      "byteLength": 192,
      "byteOffset": 1502396,
      "target": 34962
    },
    {
      "buffer": 0,
      "byteLength": 192,
      "byteOffset": 1502588,
      "target": 34962
    },
    {
      "buffer": 0,
      "byteLength": 128,
      "byteOffset": 1502780,
      "target": 34962
    },
    {
      "buffer": 0,
      "byteLength": 128,
      "byteOffset": 1502908,
      "target": 34962
    },
    {
      "buffer": 0,
      "byteLength": 256,
      "byteOffset": 1503036,
      "target": 34962
    }
  ],
  "buffers": [
    {
      "byteLength": 1503292,
      "uri": "mp_vm_arms_kleo_iw9_3_1_LOD0.bin"
    }
  ],
  "images": [
    {
      "uri": "_images\\\\xmaterial_1faca52318d10719\\\\ximage_45846fbdc2337fa1.dds"
    },
    {
      "uri": "_images\\\\xmaterial_50cd80ef75e2e1ba\\\\ximage_11449b67301fa162.dds"
    },
    {
      "uri": "_images\\\\xmaterial_7727be02a6564766\\\\ximage_41d18afb67e459c1.dds"
    },
    {
      "uri": "_images\\\\xmaterial_10d369c57fba726\\\\ximage_38ca7eac378377c.dds"
    },
    {
      "uri": "_images\\\\xmaterial_7012a28887e5c728\\\\ximage_deeab4fb8b2973c.dds"
    },
    {
      "uri": "_images\\\\xmaterial_597076307ac0631c\\\\ximage_97a7da0576a1f6d.dds"
    }
  ],
  "materials": [
    {
      "name": "xmaterial_1faca52318d10719",
      "pbrMetallicRoughness": {
        "baseColorTexture": {
          "index": 0
        },
        "metallicFactor": 0.0,
        "roughnessFactor": 0.75
      }
    },
    {
      "name": "xmaterial_50cd80ef75e2e1ba",
      "pbrMetallicRoughness": {
        "baseColorTexture": {
          "index": 1
        },
        "metallicFactor": 0.0,
        "roughnessFactor": 0.75
      }
    },
    {
      "name": "xmaterial_7727be02a6564766",
      "pbrMetallicRoughness": {
        "baseColorTexture": {
          "index": 2
        },
        "metallicFactor": 0.0,
        "roughnessFactor": 0.75
      }
    },
    {
      "name": "xmaterial_10d369c57fba726",
      "pbrMetallicRoughness": {
        "baseColorTexture": {
          "index": 3
        },
        "metallicFactor": 0.0,
        "roughnessFactor": 0.75
      }
    },
    {
      "name": "xmaterial_7012a28887e5c728",
      "pbrMetallicRoughness": {
        "baseColorTexture": {
          "index": 4
        },
        "metallicFactor": 0.0,
        "roughnessFactor": 0.75
      }
    },
    {
      "name": "xmaterial_597076307ac0631c",
      "pbrMetallicRoughness": {
        "baseColorTexture": {
          "index": 5
        },
        "metallicFactor": 0.0,
        "roughnessFactor": 0.75
      }
    }
  ],
  "meshes": [
    {
      "primitives": [
        {
          "attributes": {
            "JOINTS_0": 5,
            "NORMAL": 3,
            "POSITION": 2,
            "TEXCOORD_0": 4,
            "WEIGHTS_0": 6
          },
          "indices": 1,
          "material": 0,
          "mode": 4
        }
      ]
    },
    {
      "primitives": [
        {
          "attributes": {
            "JOINTS_0": 11,
            "NORMAL": 9,
            "POSITION": 8,
            "TEXCOORD_0": 10,
            "WEIGHTS_0": 12
          },
          "indices": 7,
          "material": 1,
          "mode": 4
        }
      ]
    },
    {
      "primitives": [
        {
          "attributes": {
            "JOINTS_0": 17,
            "NORMAL": 15,
            "POSITION": 14,
            "TEXCOORD_0": 16,
            "WEIGHTS_0": 18
          },
          "indices": 13,
          "material": 2,
          "mode": 4
        }
      ]
    },
    {
      "primitives": [
        {
          "attributes": {
            "JOINTS_0": 23,
            "NORMAL": 21,
            "POSITION": 20,
            "TEXCOORD_0": 22,
            "WEIGHTS_0": 24
          },
          "indices": 19,
          "material": 3,
          "mode": 4
        }
      ]
    },
    {
      "primitives": [
        {
          "attributes": {
            "JOINTS_0": 29,
            "NORMAL": 27,
            "POSITION": 26,
            "TEXCOORD_0": 28,
            "WEIGHTS_0": 30
          },
          "indices": 25,
          "material": 4,
          "mode": 4
        }
      ]
    },
    {
      "primitives": [
        {
          "attributes": {
            "JOINTS_0": 35,
            "NORMAL": 33,
            "POSITION": 32,
            "TEXCOORD_0": 34,
            "WEIGHTS_0": 36
          },
          "indices": 31,
          "material": 4,
          "mode": 4
        }
      ]
    },
    {
      "primitives": [
        {
          "attributes": {
            "JOINTS_0": 41,
            "NORMAL": 39,
            "POSITION": 38,
            "TEXCOORD_0": 40,
            "WEIGHTS_0": 42
          },
          "indices": 37,
          "material": 5,
          "mode": 4
        }
      ]
    }
  ],
  "nodes": [
    {
      "children": [
        1,
        2,
        49,
        50,
        52
      ],
      "name": "tag_origin",
      "rotation": [
        0.0,
        0.0,
        0.0,
        1.0
      ],
      "translation": [
        0.0,
        0.0,
        0.0
      ]
    },
    {
      "name": "tag_sync",
      "rotation": [
        0.0,
        0.0,
        0.0,
        0.999969482421875
      ],
      "translation": [
        0.0,
        0.0,
        0.0
      ]
    },
    {
      "children": [
        3,
        45
      ],
      "name": "tag_view",
      "rotation": [
        0.0,
        0.0,
        0.0,
        0.999969482421875
      ],
      "translation": [
        -0.26923999190330505,
        0.0,
        163.372802734375
      ]
    },
    {
      "children": [
        4
      ],
      "name": "tag_ads",
      "rotation": [
        0.0,
        0.0,
        0.0,
        0.999969482421875
      ],
      "translation": [
        0.0,
        0.0,
        0.0
      ]
    },
    {
      "children": [
        5,
        44
      ],
      "name": "tag_torso",
      "rotation": [
        0.0,
        0.0,
        0.0,
        0.999969482421875
      ],
      "translation": [
        -2.2961599826812744,
        0.0,
        -29.987239837646484
      ]
    },
    {
      "children": [
        6,
        11,
        17,
        43,
        117
      ],
      "name": "j_mainroot",
      "rotation": [
        0.5,
        -0.499969482421875,
        0.5,
        0.499969482421875
      ],
      "translation": [
        0.0,
        0.0,
        -36.35755920410156
      ]
    },
    {
      "children": [
        7,
        8,
        53
      ],
      "name": "j_hip_le",
      "rotation": [
        -0.0064697265625,
        0.99993896484375,
        0.0,
        0.004364013671875
      ],
      "translation": [
        0.0,
        0.0,
        -12.36217975616455
      ]
    },
    {
      "name": "j_hiptwist_le",
      "rotation": [
        0.0,
        0.0,
        0.0,
        0.999969482421875
      ],
      "translation": [
        2.5402228832244873,
        -7.357835420407355e-05,
        0.0
      ]
    },
    {
      "children": [
        9,
        59
      ],
      "name": "j_knee_le",
      "rotation": [
        0.0,
        0.0,
        0.0595703125,
        0.998199462890625
      ],
      "translation": [
        43.59280014038086,
        -0.0010261606657877564,
        0.0
      ]
    },
    {
      "children": [
        10
      ],
      "name": "j_ankle_le",
      "rotation": [
        0.0,
        0.0,
        -0.547576904296875,
        0.83673095703125
      ],
      "translation": [
        45.08341598510742,
        0.7506076097488403,
        0.0
      ]
    },
    {
      "name": "j_ball_le",
      "rotation": [
        0.0,
        0.0,
        -0.256134033203125,
        0.96661376953125
      ],
      "translation": [
        13.750349998474121,
        0.0008823347161523998,
        0.0
      ]
    },
    {
      "children": [
        12,
        14,
        54
      ],
      "name": "j_hip_ri",
      "rotation": [
        -0.0064697265625,
        0.99993896484375,
        0.0,
        0.004364013671875
      ],
      "translation": [
        0.0,
        0.0,
        12.36217975616455
      ]
    },
    {
      "children": [
        13
      ],
      "name": "j_hiptwist_ri",
      "rotation": [
        0.0,
        0.0,
        0.0,
        0.999969482421875
      ],
      "translation": [
        2.5402228832244873,
        -7.357835420407355e-05,
        0.0
      ]
    },
    {
      "name": "tag_stowed_thigh",
      "rotation": [
        0.6678466796875,
        -0.002166748046875,
        0.06243896484375,
        0.74163818359375
      ],
      "translation": [
        31.200279235839844,
        4.016898155212402,
        -11.927839279174805
      ]
    },
    {
      "children": [
        15,
        60
      ],
      "name": "j_knee_ri",
      "rotation": [
        0.0,
        0.0,
        0.0595703125,
        0.998199462890625
      ],
      "translation": [
        43.59280014038086,
        -0.0010261606657877564,
        0.0
      ]
    },
    {
      "children": [
        16
      ],
      "name": "j_ankle_ri",
      "rotation": [
        0.0,
        0.0,
        -0.547576904296875,
        0.83673095703125
      ],
      "translation": [
        45.08341598510742,
        0.7506076097488403,
        0.0
      ]
    },
    {
      "name": "j_ball_ri",
      "rotation": [
        0.0,
        0.0,
        -0.256134033203125,
        0.96661376953125
      ],
      "translation": [
        13.750349998474121,
        0.0008823347161523998,
        0.0
      ]
    },
    {
      "children": [
        18,
        55
      ],
      "name": "j_spinelower",
      "rotation": [
        0.0,
        0.0,
        0.0,
        0.999969482421875
      ],
      "translation": [
        8.973822593688965,
        0.0,
        0.0
      ]
    },
    {
      "children": [
        19,
        56
      ],
      "name": "j_spineupper",
      "rotation": [
        0.0,
        0.0,
        0.0,
        0.999969482421875
      ],
      "translation": [
        15.875,
        0.0,
        0.0
      ]
    },
    {
      "children": [
        20,
        21,
        29,
        38,
        51,
        118,
        119
      ],
      "name": "j_spine4",
      "rotation": [
        0.0,
        0.0,
        0.0,
        0.999969482421875
      ],
      "translation": [
        11.508735656738281,
        0.0,
        0.0
      ]
    },
    {
      "name": "j_chest",
      "rotation": [
        0.0,
        0.0,
        0.0,
        0.999969482421875
      ],
      "translation": [
        0.0,
        0.0,
        0.0
      ]
    },
    {
      "children": [
        22
      ],
      "name": "j_clavicle_le",
      "rotation": [
        -0.007537841796875,
        0.703704833984375,
        -0.007598876953125,
        0.710357666015625
      ],
      "translation": [
        12.793976783752441,
        -0.053339917212724686,
        -4.935219764709473
      ]
    },
    {
      "children": [
        23,
        24
      ],
      "name": "j_shoulder_le",
      "rotation": [
        0.015625,
        0.402587890625,
        -0.09820556640625,
        0.909942626953125
      ],
      "translation": [
        14.692924499511719,
        -7.812023250153288e-05,
        0.0005910492036491632
      ]
    },
    {
      "name": "j_shouldertwist_le",
      "rotation": [
        0.0,
        0.0,
        0.0,
        0.999969482421875
      ],
      "translation": [
        1.2705717086791992,
        0.00033973215613514185,
        -0.0001453399599995464
      ]
    },
    {
      "children": [
        25,
        26,
        61,
        62
      ],
      "name": "j_elbow_le",
      "rotation": [
        0.0,
        0.0,
        -0.398468017578125,
        0.917144775390625
      ],
      "translation": [
        29.28681182861328,
        -0.0007376003195531666,
        0.00047477721818722785
      ]
    },
    {
      "children": [
        57
      ],
      "name": "j_wristfronttwist1_le",
      "rotation": [
        0.0,
        0.0,
        0.0,
        0.999969482421875
      ],
      "translation": [
        26.92413330078125,
        -0.0008381271036341786,
        -0.0016084288945421576
      ]
    },
    {
      "children": [
        27,
        28,
        63,
        68,
        72,
        76,
        80,
        85,
        120,
        122,
        124
      ],
      "name": "j_wrist_le",
      "rotation": [
        0.0,
        0.0,
        0.0,
        0.999969482421875
      ],
      "translation": [
        28.044837951660156,
        -0.0008623504545539618,
        -0.0016471862327307463
      ]
    },
    {
      "name": "tag_weapon_left",
      "rotation": [
        0.36285400390625,
        -0.1650390625,
        -0.233673095703125,
        0.886810302734375
      ],
      "translation": [
        -48.031089782714844,
        -21.406221389770508,
        0.0011724090436473489
      ]
    },
    {
      "name": "tag_accessory_left",
      "rotation": [
        0.36285400390625,
        -0.1650390625,
        -0.233673095703125,
        0.886810302734375
      ],
      "translation": [
        -24.334951400756836,
        -70.7697525024414,
        -94.44908905029297
      ]
    },
    {
      "children": [
        30
      ],
      "name": "j_clavicle_ri",
      "rotation": [
        0.007537841796875,
        -0.703704833984375,
        -0.007598876953125,
        0.710357666015625
      ],
      "translation": [
        12.796515464782715,
        -0.053339917212724686,
        4.935219764709473
      ]
    },
    {
      "children": [
        31,
        32
      ],
      "name": "j_shoulder_ri",
      "rotation": [
        -0.015625,
        -0.402587890625,
        -0.09820556640625,
        0.909942626953125
      ],
      "translation": [
        14.692924499511719,
        -7.812023250153288e-05,
        -0.0005910492036491632
      ]
    },
    {
      "name": "j_shouldertwist_ri",
      "rotation": [
        0.0,
        0.0,
        0.0,
        0.999969482421875
      ],
      "translation": [
        1.2705717086791992,
        0.00033973215613514185,
        0.00015502929454669356
      ]
    },
    {
      "children": [
        33,
        34,
        86,
        87
      ],
      "name": "j_elbow_ri",
      "rotation": [
        0.0,
        0.0,
        -0.398468017578125,
        0.917144775390625
      ],
      "translation": [
        29.284961700439453,
        -0.0008611392695456743,
        -0.0021994782146066427
      ]
    },
    {
      "name": "j_shield_ri",
      "rotation": [
        0.0,
        0.0,
        0.0,
        0.999969482421875
      ],
      "translation": [
        10.159743309020996,
        0.00010173797636525705,
        0.00256767263635993
      ]
    },
    {
      "children": [
        35,
        36,
        37,
        88,
        93,
        97,
        101,
        105,
        110,
        111,
        121,
        123,
        125
      ],
      "name": "j_wrist_ri",
      "rotation": [
        0.0,
        0.0,
        0.0,
        0.999969482421875
      ],
      "translation": [
        28.044837951660156,
        -0.0008623504545539618,
        0.0016471862327307463
      ]
    },
    {
      "name": "j_gun",
      "rotation": [
        0.886810302734375,
        -0.233673095703125,
        -0.1650390625,
        0.36285400390625
      ],
      "translation": [
        -48.02991485595703,
        -21.40477752685547,
        0.0005522918654605746
      ]
    },
    {
      "name": "tag_weapon_right",
      "rotation": [
        0.886810302734375,
        -0.233673095703125,
        -0.1650390625,
        0.36285400390625
      ],
      "translation": [
        -48.02991485595703,
        -21.40477752685547,
        0.0005522918654605746
      ]
    },
    {
      "name": "tag_accessory_right",
      "rotation": [
        0.886810302734375,
        -0.233673095703125,
        -0.1650390625,
        0.36285400390625
      ],
      "translation": [
        18.359935760498047,
        20.13764190673828,
        -9.971144676208496
      ]
    },
    {
      "children": [
        39
      ],
      "name": "j_neck",
      "rotation": [
        0.0,
        0.0,
        -0.146514892578125,
        0.989166259765625
      ],
      "translation": [
        22.410425186157227,
        0.0,
        0.0
      ]
    },
    {
      "children": [
        40,
        42,
        112,
        113,
        116
      ],
      "name": "j_head",
      "rotation": [
        0.0,
        0.0,
        0.146514892578125,
        0.989166259765625
      ],
      "translation": [
        7.9171037673950195,
        -0.0011239623418077826,
        0.0
      ]
    },
    {
      "children": [
        41
      ],
      "name": "j_head_end",
      "rotation": [
        0.0,
        0.0,
        0.0,
        0.999969482421875
      ],
      "translation": [
        15.83182430267334,
        0.0,
        0.0
      ]
    },
    {
      "children": [
        114,
        115
      ],
      "name": "j_helmet",
      "rotation": [
        0.0,
        0.0,
        0.0,
        0.999969482421875
      ],
      "translation": [
        4.0589189529418945,
        0.0,
        0.0
      ]
    },
    {
      "name": "j_nvg",
      "rotation": [
        0.0,
        0.0,
        0.0,
        0.999969482421875
      ],
      "translation": [
        15.854671478271484,
        -16.2052001953125,
        0.0
      ]
    },
    {
      "name": "j_groinprotector",
      "rotation": [
        0.0,
        0.0,
        0.00048828125,
        0.999969482421875
      ],
      "translation": [
        10.15999984741211,
        -16.510000228881836,
        0.0
      ]
    },
    {
      "name": "tag_weapon",
      "rotation": [
        0.0,
        0.0,
        0.0,
        0.999969482421875
      ],
      "translation": [
        36.03752136230469,
        0.0,
        0.3606756627559662
      ]
    },
    {
      "children": [
        46
      ],
      "name": "tag_cambone",
      "rotation": [
        0.0,
        0.0,
        0.0,
        0.999969482421875
      ],
      "translation": [
        0.0,
        0.0,
        0.0
      ]
    },
    {
      "children": [
        47,
        48
      ],
      "name": "tag_camera",
      "rotation": [
        0.0,
        0.0,
        0.0,
        0.999969482421875
      ],
      "translation": [
        0.0,
        0.0,
        0.0
      ]
    },
    {
      "name": "tag_player",
      "rotation": [
        0.0,
        0.0,
        0.0,
        0.999969482421875
      ],
      "translation": [
        0.26923999190330505,
        0.0,
        -163.372802734375
      ]
    },
    {
      "name": "tag_playerhelmet",
      "rotation": [
        0.0,
        0.0,
        0.0,
        0.999969482421875
      ],
      "translation": [
        0.0,
        0.0,
        0.0
      ]
    },
    {
      "name": "tag_ik_foot_loc_le",
      "rotation": [
        -0.683502197265625,
        0.181121826171875,
        0.181121826171875,
        0.6834716796875
      ],
      "translation": [
        -7.526020050048828,
        12.36217975616455,
        8.689339637756348
      ]
    },
    {
      "name": "tag_ik_foot_loc_ri",
      "rotation": [
        -0.683502197265625,
        0.181121826171875,
        0.181121826171875,
        0.6834716796875
      ],
      "translation": [
        -7.526020050048828,
        -12.36217975616455,
        8.689339637756348
      ]
    },
    {
      "name": "tag_carry_attach",
      "rotation": [
        0.0,
        0.70709228515625,
        0.70709228515625,
        0.0
      ],
      "translation": [
        25.1586971282959,
        -13.934439659118652,
        -16.365219116210938
      ]
    },
    {
      "name": "tag_camera_scripted",
      "rotation": [
        0.0,
        0.0,
        0.0,
        0.999969482421875
      ],
      "translation": [
        -0.26923999190330505,
        0.0,
        163.372802734375
      ]
    },
    {
      "name": "j_hip_proc_le",
      "rotation": [
        0.0,
        0.0,
        0.0,
        0.999969482421875
      ],
      "translation": [
        25.39971351623535,
        -0.0007684850716032088,
        0.0
      ]
    },
    {
      "name": "j_hip_proc_ri",
      "rotation": [
        0.0,
        0.0,
        0.0,
        0.999969482421875
      ],
      "translation": [
        24.12958335876465,
        0.0005383634706959128,
        0.0
      ]
    },
    {
      "name": "j_proc_spinelower",
      "rotation": [
        0.0,
        0.0,
        0.0,
        0.999969482421875
      ],
      "translation": [
        0.0,
        0.0,
        0.0
      ]
    },
    {
      "name": "j_proc_spineupper",
      "rotation": [
        0.0,
        0.0,
        0.0,
        0.999969482421875
      ],
      "translation": [
        0.0,
        0.0,
        0.0
      ]
    },
    {
      "children": [
        58
      ],
      "name": "j_proc_wristfronttwist1_le",
      "rotation": [
        0.0,
        0.0,
        0.0,
        0.999969482421875
      ],
      "translation": [
        -2.9096405506134033,
        0.00032943725818768144,
        0.001715011545456946
      ]
    },
    {
      "children": [
        148,
        150,
        152
      ],
      "name": "tag_wrist_attach_le",
      "rotation": [
        0.01116943359375,
        0.081939697265625,
        0.005828857421875,
        0.99652099609375
      ],
      "translation": [
        -2.178539514541626,
        0.26433947682380676,
        0.2658946216106415
      ]
    },
    {
      "name": "j_kneedq_le",
      "rotation": [
        0.0,
        0.0,
        -0.02978515625,
        0.99951171875
      ],
      "translation": [
        0.045438118278980255,
        0.7614724040031433,
        0.0
      ]
    },
    {
      "name": "j_kneedq_ri",
      "rotation": [
        0.0,
        0.0,
        -0.02978515625,
        0.99951171875
      ],
      "translation": [
        0.045438118278980255,
        0.7614724040031433,
        0.0
      ]
    },
    {
      "name": "j_shield_le",
      "rotation": [
        0.0,
        0.0,
        0.0,
        0.999969482421875
      ],
      "translation": [
        10.158570289611816,
        -0.0013419723836705089,
        -0.0008429717854596674
      ]
    },
    {
      "name": "j_elbowdq_le",
      "rotation": [
        0.0,
        0.0,
        0.2034912109375,
        0.979034423828125
      ],
      "translation": [
        0.3027867376804352,
        -0.7004320621490479,
        -0.0003681945672724396
      ]
    },
    {
      "children": [
        64
      ],
      "name": "j_metaindex_le_1",
      "rotation": [
        -0.73583984375,
        0.017242431640625,
        -0.110504150390625,
        0.667816162109375
      ],
      "translation": [
        1.5501863956451416,
        -2.3864192962646484,
        0.1785259246826172
      ]
    },
    {
      "children": [
        65,
        138,
        140
      ],
      "name": "j_index_le_1",
      "rotation": [
        0.100830078125,
        0.007659912109375,
        0.17425537109375,
        0.979461669921875
      ],
      "translation": [
        6.653816223144531,
        0.0003681945672724396,
        0.0010319137945771217
      ]
    },
    {
      "children": [
        66
      ],
      "name": "j_index_le_2",
      "rotation": [
        0.0,
        0.0,
        0.229461669921875,
        0.973297119140625
      ],
      "translation": [
        4.74437141418457,
        -0.00015502929454669356,
        -0.0013322830200195313
      ]
    },
    {
      "children": [
        67
      ],
      "name": "j_index_le_3",
      "rotation": [
        0.0,
        0.0,
        0.3109130859375,
        0.950408935546875
      ],
      "translation": [
        2.336819648742676,
        -0.0007557678036391735,
        -0.0010609817691147327
      ]
    },
    {
      "name": "j_index_le_4",
      "rotation": [
        0.0,
        0.0,
        0.0,
        0.999969482421875
      ],
      "translation": [
        1.5227267742156982,
        1.017767310142517,
        0.0005958938272669911
      ]
    },
    {
      "children": [
        69
      ],
      "name": "j_metamid_le_1",
      "rotation": [
        -0.7393798828125,
        -0.019622802734375,
        -0.070831298828125,
        0.669219970703125
      ],
      "translation": [
        1.6254676580429077,
        -0.5058460831642151,
        0.1528491973876953
      ]
    },
    {
      "children": [
        70,
        142
      ],
      "name": "j_mid_le_1",
      "rotation": [
        0.017242431640625,
        -0.012939453125,
        0.23681640625,
        0.971282958984375
      ],
      "translation": [
        6.755302429199219,
        0.00028099058545194566,
        -0.0021025848109275103
      ]
    },
    {
      "children": [
        71
      ],
      "name": "j_mid_le_2",
      "rotation": [
        0.0,
        0.0,
        0.46990966796875,
        0.8826904296875
      ],
      "translation": [
        5.10232400894165,
        -0.0002228546072728932,
        -0.0005619811709038913
      ]
    },
    {
      "name": "j_mid_le_3",
      "rotation": [
        0.0,
        0.0,
        0.229766845703125,
        0.97320556640625
      ],
      "translation": [
        2.793201446533203,
        -0.0010779380099847913,
        0.0003391265927348286
      ]
    },
    {
      "children": [
        73,
        126
      ],
      "name": "j_metapinky_le_1",
      "rotation": [
        -0.762908935546875,
        -0.0343017578125,
        0.042572021484375,
        0.644134521484375
      ],
      "translation": [
        1.5244587659835815,
        2.743868350982666,
        -0.8622729182243347
      ]
    },
    {
      "children": [
        74,
        144
      ],
      "name": "j_pinky_le_1",
      "rotation": [
        0.0,
        0.0,
        0.308929443359375,
        0.9510498046875
      ],
      "translation": [
        5.5873236656188965,
        0.0013080596690997481,
        0.0003052139363717288
      ]
    },
    {
      "children": [
        75
      ],
      "name": "j_pinky_le_2",
      "rotation": [
        0.0,
        0.0,
        0.36309814453125,
        0.931732177734375
      ],
      "translation": [
        2.995485782623291,
        0.0005571365472860634,
        -0.0017634582472965121
      ]
    },
    {
      "name": "j_pinky_le_3",
      "rotation": [
        0.0,
        0.0,
        0.269744873046875,
        0.962890625
      ],
      "translation": [
        1.7275302410125732,
        -0.0031199646182358265,
        0.0011239623418077826
      ]
    },
    {
      "children": [
        77
      ],
      "name": "j_metaring_le_1",
      "rotation": [
        -0.770477294921875,
        -0.036163330078125,
        -0.010101318359375,
        0.636322021484375
      ],
      "translation": [
        1.5487765073776245,
        1.016425371170044,
        -0.02386482246220112
      ]
    },
    {
      "children": [
        78,
        146
      ],
      "name": "j_ring_le_1",
      "rotation": [
        0.007720947265625,
        -0.024139404296875,
        0.257720947265625,
        0.965850830078125
      ],
      "translation": [
        6.5034499168396,
        -0.00039726257091388106,
        7.26699799997732e-05
      ]
    },
    {
      "children": [
        79
      ],
      "name": "j_ring_le_2",
      "rotation": [
        0.0,
        0.0,
        0.40283203125,
        0.915252685546875
      ],
      "translation": [
        4.340224266052246,
        0.0018312835600227118,
        -0.0005086898454464972
      ]
    },
    {
      "name": "j_ring_le_3",
      "rotation": [
        0.0,
        0.0,
        0.279571533203125,
        0.9600830078125
      ],
      "translation": [
        2.5907914638519287,
        -0.0020202253945171833,
        -0.0005377578781917691
      ]
    },
    {
      "children": [
        81,
        84
      ],
      "name": "j_thumb_le_1",
      "rotation": [
        0.201171875,
        0.224761962890625,
        -0.542510986328125,
        0.78399658203125
      ],
      "translation": [
        1.5995172262191772,
        -1.7527079582214355,
        -0.5836174488067627
      ]
    },
    {
      "children": [
        82
      ],
      "name": "j_thumb_le_2",
      "rotation": [
        -0.153656005859375,
        0.106201171875,
        0.27960205078125,
        0.941741943359375
      ],
      "translation": [
        5.332569122314453,
        0.0012160110054537654,
        -0.0010464477818459272
      ]
    },
    {
      "children": [
        83
      ],
      "name": "j_thumb_le_3",
      "rotation": [
        0.0,
        0.0,
        0.182525634765625,
        0.983184814453125
      ],
      "translation": [
        3.2766120433807373,
        -0.0005668258527293801,
        0.001511535607278347
      ]
    },
    {
      "name": "j_thumb_le_4",
      "rotation": [
        0.0,
        0.0,
        0.0,
        0.999969482421875
      ],
      "translation": [
        1.5237102508544922,
        1.0164690017700195,
        -7.751464727334678e-05
      ]
    },
    {
      "name": "j_webbing_le_2",
      "rotation": [
        0.0,
        0.0,
        0.0,
        0.999969482421875
      ],
      "translation": [
        2.538846969604492,
        0.0009592437418177724,
        -3.073901414871216
      ]
    },
    {
      "name": "j_webbing_le_1",
      "rotation": [
        0.43988037109375,
        -0.01544189453125,
        -0.279693603515625,
        0.85321044921875
      ],
      "translation": [
        5.841179370880127,
        -6.34994649887085,
        -1.5226783752441406
      ]
    },
    {
      "name": "j_wristfronttwist1_ri",
      "rotation": [
        0.0,
        0.0,
        0.0,
        0.999969482421875
      ],
      "translation": [
        26.92413330078125,
        -0.0008381271036341786,
        0.0015987396473065019
      ]
    },
    {
      "name": "j_elbowdq_ri",
      "rotation": [
        0.0,
        0.0,
        0.2034912109375,
        0.979034423828125
      ],
      "translation": [
        0.3039543032646179,
        -0.6989980340003967,
        0.0020928955636918545
      ]
    },
    {
      "children": [
        89
      ],
      "name": "j_metaindex_ri_1",
      "rotation": [
        0.73583984375,
        -0.017242431640625,
        -0.110504150390625,
        0.667816162109375
      ],
      "translation": [
        1.55018150806427,
        -2.3864192962646484,
        -0.1785259246826172
      ]
    },
    {
      "children": [
        90,
        139,
        141
      ],
      "name": "j_index_ri_1",
      "rotation": [
        -0.100830078125,
        -0.007659912109375,
        0.17425537109375,
        0.979461669921875
      ],
      "translation": [
        6.653816223144531,
        0.00035850523272529244,
        -0.0010222244309261441
      ]
    },
    {
      "children": [
        91
      ],
      "name": "j_index_ri_2",
      "rotation": [
        0.0,
        0.0,
        0.229461669921875,
        0.973297119140625
      ],
      "translation": [
        4.74437141418457,
        -0.00015502929454669356,
        0.0013322830200195313
      ]
    },
    {
      "children": [
        92
      ],
      "name": "j_index_ri_3",
      "rotation": [
        0.0,
        0.0,
        0.3109130859375,
        0.950408935546875
      ],
      "translation": [
        2.335235357284546,
        0.001027069054543972,
        0.00022043228091206402
      ]
    },
    {
      "name": "j_index_ri_4",
      "rotation": [
        0.0,
        0.0,
        0.999969482421875,
        0.0
      ],
      "translation": [
        1.5250232219696045,
        1.015061616897583,
        -0.0011893654009327292
      ]
    },
    {
      "children": [
        94
      ],
      "name": "j_metamid_ri_1",
      "rotation": [
        0.7393798828125,
        0.019622802734375,
        -0.070831298828125,
        0.669219970703125
      ],
      "translation": [
        1.6254578828811646,
        -0.5058509111404419,
        -0.15286856889724731
      ]
    },
    {
      "children": [
        95,
        143
      ],
      "name": "j_mid_ri_1",
      "rotation": [
        -0.017242431640625,
        0.012939453125,
        0.23681640625,
        0.971282958984375
      ],
      "translation": [
        6.756142616271973,
        0.0019863129127770662,
        0.00041179655818268657
      ]
    },
    {
      "children": [
        96
      ],
      "name": "j_mid_ri_2",
      "rotation": [
        0.0,
        0.0,
        0.46990966796875,
        0.8826904296875
      ],
      "translation": [
        5.102280616760254,
        -0.0022479246836155653,
        -0.00096893310546875
      ]
    },
    {
      "name": "j_mid_ri_3",
      "rotation": [
        0.0,
        0.0,
        0.229766845703125,
        0.97320556640625
      ],
      "translation": [
        2.7949068546295166,
        2.1800995455123484e-05,
        0.0011917876545339823
      ]
    },
    {
      "children": [
        98,
        127
      ],
      "name": "j_metapinky_ri_1",
      "rotation": [
        0.762908935546875,
        0.0343017578125,
        0.042572021484375,
        0.644134521484375
      ],
      "translation": [
        1.524449110031128,
        2.743868350982666,
        0.8622535467147827
      ]
    },
    {
      "children": [
        99,
        145
      ],
      "name": "j_pinky_ri_1",
      "rotation": [
        0.0,
        0.0,
        0.308929443359375,
        0.9510498046875
      ],
      "translation": [
        5.5873284339904785,
        0.0013177490327507257,
        -0.0003100585890933871
      ]
    },
    {
      "children": [
        100
      ],
      "name": "j_pinky_ri_2",
      "rotation": [
        0.0,
        0.0,
        0.36309814453125,
        0.931732177734375
      ],
      "translation": [
        2.9974429607391357,
        0.0009447097545489669,
        0.00019378661818336695
      ]
    },
    {
      "name": "j_pinky_ri_3",
      "rotation": [
        0.0,
        0.0,
        0.269744873046875,
        0.962890625
      ],
      "translation": [
        1.7258248329162598,
        -0.002078361576423049,
        0.0004457092145457864
      ]
    },
    {
      "children": [
        102
      ],
      "name": "j_metaring_ri_1",
      "rotation": [
        0.770477294921875,
        0.036163330078125,
        -0.010101318359375,
        0.636322021484375
      ],
      "translation": [
        1.5499489307403564,
        1.0178593397140503,
        0.02558952383697033
      ]
    },
    {
      "children": [
        103,
        147
      ],
      "name": "j_ring_ri_1",
      "rotation": [
        -0.007720947265625,
        0.024139404296875,
        0.257720947265625,
        0.965850830078125
      ],
      "translation": [
        6.5034499168396,
        -0.0003875732363667339,
        -7.26699799997732e-05
      ]
    },
    {
      "children": [
        104
      ],
      "name": "j_ring_ri_2",
      "rotation": [
        0.0,
        0.0,
        0.40283203125,
        0.915252685546875
      ],
      "translation": [
        4.340219497680664,
        0.0018312835600227118,
        0.0005086898454464972
      ]
    },
    {
      "name": "j_ring_ri_3",
      "rotation": [
        0.0,
        0.0,
        0.279571533203125,
        0.9600830078125
      ],
      "translation": [
        2.5903069972991943,
        -6.298065272858366e-05,
        -0.0010076904436573386
      ]
    },
    {
      "children": [
        106,
        109
      ],
      "name": "j_thumb_ri_1",
      "rotation": [
        -0.201171875,
        -0.224761962890625,
        -0.542510986328125,
        0.78399658203125
      ],
      "translation": [
        1.6006847620010376,
        -1.7512691020965576,
        0.5853518843650818
      ]
    },
    {
      "children": [
        107
      ],
      "name": "j_thumb_ri_2",
      "rotation": [
        0.153656005859375,
        -0.106201171875,
        0.27960205078125,
        0.941741943359375
      ],
      "translation": [
        5.332310199737549,
        -0.0002422332763671875,
        -0.0010076904436573386
      ]
    },
    {
      "children": [
        108
      ],
      "name": "j_thumb_ri_3",
      "rotation": [
        0.0,
        0.0,
        0.182525634765625,
        0.983184814453125
      ],
      "translation": [
        3.2781331539154053,
        0.0009253310854546726,
        -0.00011627197091002017
      ]
    },
    {
      "name": "j_thumb_ri_4",
      "rotation": [
        0.0,
        0.0,
        0.999969482421875,
        0.0
      ],
      "translation": [
        1.5237199068069458,
        1.0164713859558105,
        7.751464727334678e-05
      ]
    },
    {
      "name": "j_webbing_ri_2",
      "rotation": [
        0.0,
        0.0,
        0.0,
        0.999969482421875
      ],
      "translation": [
        2.5385854244232178,
        -0.0005038452218286693,
        3.0718278884887695
      ]
    },
    {
      "name": "j_webbing_ri_1",
      "rotation": [
        -0.43988037109375,
        0.01544189453125,
        -0.279693603515625,
        0.85321044921875
      ],
      "translation": [
        5.84235143661499,
        -6.348512649536133,
        1.5244030952453613
      ]
    },
    {
      "name": "tag_knife_attach2",
      "rotation": [
        0.45098876953125,
        0.570831298828125,
        0.509918212890625,
        0.459014892578125
      ],
      "translation": [
        7.016374111175537,
        0.29705551266670227,
        3.8708972930908203
      ]
    },
    {
      "name": "j_eyeball_le",
      "rotation": [
        0.0,
        0.70709228515625,
        0.0,
        0.70709228515625
      ],
      "translation": [
        8.920482635498047,
        -9.009379386901855,
        -2.7076399326324463
      ]
    },
    {
      "name": "j_eyeball_ri",
      "rotation": [
        0.0,
        0.70709228515625,
        0.0,
        0.70709228515625
      ],
      "translation": [
        8.778243064880371,
        -8.93317985534668,
        2.9692599773406982
      ]
    },
    {
      "name": "j_visor",
      "rotation": [
        0.0,
        0.0,
        0.0,
        0.999969482421875
      ],
      "translation": [
        -11.381747245788574,
        -0.5130800008773804,
        0.0
      ]
    },
    {
      "name": "j_visor_inner",
      "rotation": [
        0.0,
        0.0,
        0.0,
        0.999969482421875
      ],
      "translation": [
        -14.013175010681152,
        -0.7391400337219238,
        -0.0025400000158697367
      ]
    },
    {
      "name": "j_jaw",
      "rotation": [
        -0.350189208984375,
        0.6142578125,
        0.61676025390625,
        0.3458251953125
      ],
      "translation": [
        -0.43687254190444946,
        -0.26923999190330505,
        -2.2910799980163574
      ]
    },
    {
      "name": "j_crotch",
      "rotation": [
        0.0,
        0.70709228515625,
        0.0,
        0.70709228515625
      ],
      "translation": [
        -16.510000228881836,
        0.0,
        0.0
      ]
    },
    {
      "name": "tag_sling_attach_body",
      "rotation": [
        -0.007537841796875,
        0.703704833984375,
        -0.007598876953125,
        0.710357666015625
      ],
      "translation": [
        12.793976783752441,
        -0.053339917212724686,
        -4.935219764709473
      ]
    },
    {
      "name": "tag_sling_attach_body_2",
      "rotation": [
        0.0,
        0.0,
        0.0,
        0.999969482421875
      ],
      "translation": [
        12.796515464782715,
        -0.053339917212724686,
        4.935219764709473
      ]
    },
    {
      "children": [
        132
      ],
      "name": "j_proc_metaindex_le_1",
      "rotation": [
        -0.7396240234375,
        -0.00274658203125,
        -0.086090087890625,
        0.667449951171875
      ],
      "translation": [
        1.6508294343948364,
        -1.3926717042922974,
        0.23787307739257813
      ]
    },
    {
      "children": [
        133
      ],
      "name": "j_proc_metaindex_ri_1",
      "rotation": [
        0.7396240234375,
        0.00274658203125,
        -0.086090087890625,
        0.667449951171875
      ],
      "translation": [
        1.6519969701766968,
        -1.391237735748291,
        -0.23615805804729462
      ]
    },
    {
      "children": [
        128,
        130,
        136
      ],
      "name": "j_proc_metaknuckle_le_1",
      "rotation": [
        -0.738311767578125,
        -0.044158935546875,
        -0.048583984375,
        0.67120361328125
      ],
      "translation": [
        1.668967843055725,
        0.0213359072804451,
        0.10254219174385071
      ]
    },
    {
      "children": [
        129,
        131,
        137
      ],
      "name": "j_proc_metaknuckle_ri_1",
      "rotation": [
        0.738311767578125,
        0.044158935546875,
        -0.048583984375,
        0.67120361328125
      ],
      "translation": [
        1.6689581871032715,
        0.02133106254041195,
        -0.1025615707039833
      ]
    },
    {
      "children": [
        134
      ],
      "name": "j_proc_metapinky_le_1",
      "rotation": [
        -0.735382080078125,
        -0.07916259765625,
        -0.01666259765625,
        0.672760009765625
      ],
      "translation": [
        1.69106924533844,
        1.8979413509368896,
        -0.07414276152849197
      ]
    },
    {
      "children": [
        135
      ],
      "name": "j_proc_metapinky_ri_1",
      "rotation": [
        0.735382080078125,
        0.07916259765625,
        -0.01666259765625,
        0.672760009765625
      ],
      "translation": [
        1.69106924533844,
        1.8979413509368896,
        0.07413306832313538
      ]
    },
    {
      "name": "j_webbing_le_3",
      "rotation": [
        -0.087158203125,
        0.0,
        0.0,
        0.99615478515625
      ],
      "translation": [
        1.5225523710250854,
        2.435093641281128,
        -0.763746976852417
      ]
    },
    {
      "name": "j_webbing_ri_3",
      "rotation": [
        0.087158203125,
        0.0,
        0.0,
        0.99615478515625
      ],
      "translation": [
        1.5239088535308838,
        2.436556577682495,
        0.7621772885322571
      ]
    },
    {
      "name": "j_proc_knuckle_le_1",
      "rotation": [
        0.017242431640625,
        -0.012939453125,
        0.23681640625,
        0.971282958984375
      ],
      "translation": [
        4.571135520935059,
        -0.0006104278727434576,
        0.0005862045218236744
      ]
    },
    {
      "name": "j_proc_knuckle_ri_1",
      "rotation": [
        -0.017242431640625,
        0.012939453125,
        0.23681640625,
        0.971282958984375
      ],
      "translation": [
        4.57113790512085,
        -0.0006104278727434576,
        -0.0005910492036491632
      ]
    },
    {
      "name": "j_proc_idle_knuckle_le_1",
      "rotation": [
        0.017242431640625,
        -0.012939453125,
        0.23681640625,
        0.971282958984375
      ],
      "translation": [
        4.571135520935059,
        -0.0006104278727434576,
        0.0005862045218236744
      ]
    },
    {
      "name": "j_proc_idle_knuckle_ri_1",
      "rotation": [
        -0.017242431640625,
        0.012939453125,
        0.23681640625,
        0.971282958984375
      ],
      "translation": [
        7.333241939544678,
        -3.0611212253570557,
        -2.788322925567627
      ]
    },
    {
      "name": "j_proc_metaindex_le_2",
      "rotation": [
        0.017242431640625,
        -0.012939453125,
        0.23681640625,
        0.971282958984375
      ],
      "translation": [
        4.823765754699707,
        0.0010755157563835382,
        -0.0011142730945721269
      ]
    },
    {
      "name": "j_proc_metaindex_ri_2",
      "rotation": [
        -0.017242431640625,
        0.012939453125,
        0.23681640625,
        0.971282958984375
      ],
      "translation": [
        4.8245673179626465,
        -0.0008042144472710788,
        -0.00038272858364507556
      ]
    },
    {
      "name": "j_proc_metapinky_le_2",
      "rotation": [
        0.017242431640625,
        -0.012939453125,
        0.23681640625,
        0.971282958984375
      ],
      "translation": [
        4.826783657073975,
        -0.00035850523272529244,
        -0.001312904292717576
      ]
    },
    {
      "name": "j_proc_metapinky_ri_2",
      "rotation": [
        -0.017242431640625,
        0.012939453125,
        0.23681640625,
        0.971282958984375
      ],
      "translation": [
        4.827849388122559,
        0.001395263709127903,
        -0.0001840972836362198
      ]
    },
    {
      "name": "j_proc_orient_knuckle_le_1",
      "rotation": [
        0.017242431640625,
        -0.012939453125,
        0.23681640625,
        0.971282958984375
      ],
      "translation": [
        4.571135520935059,
        -0.0006104278727434576,
        0.0005862045218236744
      ]
    },
    {
      "name": "j_proc_orient_knuckle_ri_1",
      "rotation": [
        -0.017242431640625,
        0.012939453125,
        0.23681640625,
        0.971282958984375
      ],
      "translation": [
        4.57113790512085,
        -0.0006104278727434576,
        -0.0005910492036491632
      ]
    },
    {
      "name": "j_indexbulge_le_1",
      "rotation": [
        -0.0047607421875,
        0.008026123046875,
        0.00360107421875,
        0.999908447265625
      ],
      "translation": [
        3.049149990081787,
        1.0132423639297485,
        -0.001886997139081359
      ]
    },
    {
      "name": "j_indexbulge_ri_1",
      "rotation": [
        0.0047607421875,
        -0.008026123046875,
        0.00360107421875,
        0.999908447265625
      ],
      "translation": [
        3.048156976699829,
        1.0158294439315796,
        -0.0003875732363667339
      ]
    },
    {
      "name": "j_proc_index_le_1",
      "rotation": [
        -0.060791015625,
        -0.004608154296875,
        -0.105072021484375,
        0.9925537109375
      ],
      "translation": [
        0.00028099058545194566,
        0.25319191813468933,
        -0.00225519179366529
      ]
    },
    {
      "name": "j_proc_index_ri_1",
      "rotation": [
        0.060791015625,
        0.004608154296875,
        -0.105072021484375,
        0.9925537109375
      ],
      "translation": [
        0.001511535607278347,
        0.25488755106925964,
        0.0008211708045564592
      ]
    },
    {
      "name": "j_proc_mid_le_1",
      "rotation": [
        -0.008697509765625,
        0.006500244140625,
        -0.1192626953125,
        0.992767333984375
      ],
      "translation": [
        0.0005619811709038913,
        0.2514478266239166,
        0.0005232238909229636
      ]
    },
    {
      "name": "j_proc_mid_ri_1",
      "rotation": [
        0.008697509765625,
        -0.006500244140625,
        -0.1192626953125,
        0.992767333984375
      ],
      "translation": [
        0.0005619811709038913,
        0.2514575123786926,
        -0.0005232238909229636
      ]
    },
    {
      "name": "j_proc_pinky_le_1",
      "rotation": [
        0.0,
        0.0,
        -0.156402587890625,
        0.9876708984375
      ],
      "translation": [
        -0.0004941558581776917,
        0.25304657220840454,
        -7.751464727334678e-05
      ]
    },
    {
      "name": "j_proc_pinky_ri_1",
      "rotation": [
        0.0,
        0.0,
        -0.156402587890625,
        0.9876708984375
      ],
      "translation": [
        -0.0004941558581776917,
        0.25304657220840454,
        7.751464727334678e-05
      ]
    },
    {
      "name": "j_proc_ring_le_1",
      "rotation": [
        -0.00390625,
        0.012176513671875,
        -0.129974365234375,
        0.99139404296875
      ],
      "translation": [
        0.0003391265927348286,
        0.25511038303375244,
        0.0008187484345398843
      ]
    },
    {
      "name": "j_proc_ring_ri_1",
      "rotation": [
        0.00390625,
        -0.012176513671875,
        -0.129974365234375,
        0.99139404296875
      ],
      "translation": [
        -0.0014776230091229081,
        0.2543546259403229,
        0.0007945251418277621
      ]
    },
    {
      "children": [
        149
      ],
      "name": "j_grp_wristwatch_hour",
      "rotation": [
        -0.65765380859375,
        0.03399658203125,
        -0.75250244140625,
        0.00384521484375
      ],
      "translation": [
        1.6506139039993286,
        -0.1818687468767166,
        3.7500715255737305
      ]
    },
    {
      "name": "j_wristwatch_hour",
      "rotation": [
        0.0,
        0.0,
        0.0,
        0.999969482421875
      ],
      "translation": [
        0.0,
        0.0,
        0.0
      ]
    },
    {
      "children": [
        151
      ],
      "name": "j_grp_wristwatch_minute",
      "rotation": [
        -0.65765380859375,
        0.03399658203125,
        -0.75250244140625,
        0.00384521484375
      ],
      "translation": [
        1.6506139039993286,
        -0.1818687468767166,
        3.7500715255737305
      ]
    },
    {
      "name": "j_wristwatch_minute",
      "rotation": [
        0.0,
        0.0,
        0.0,
        0.999969482421875
      ],
      "translation": [
        0.0,
        0.0,
        0.0
      ]
    },
    {
      "children": [
        153
      ],
      "name": "j_grp_wristwatch_second",
      "rotation": [
        -0.65765380859375,
        0.03399658203125,
        -0.75250244140625,
        0.00384521484375
      ],
      "translation": [
        1.6506139039993286,
        -0.1818687468767166,
        3.7500715255737305
      ]
    },
    {
      "name": "j_wristwatch_second",
      "rotation": [
        0.0,
        0.0,
        0.0,
        0.999969482421875
      ],
      "translation": [
        0.0,
        0.0,
        0.0
      ]
    },
    {
      "mesh": 0,
      "skin": 0
    },
    {
      "mesh": 1,
      "skin": 0
    },
    {
      "mesh": 2,
      "skin": 0
    },
    {
      "mesh": 3,
      "skin": 0
    },
    {
      "mesh": 4,
      "skin": 0
    },
    {
      "mesh": 5,
      "skin": 0
    },
    {
      "mesh": 6,
      "skin": 0
    }
  ],
  "scene": 0,
  "scenes": [
    {
      "nodes": [
        0
      ]
    }
  ],
  "skins": [
    {
      "inverseBindMatrices": 0,
      "joints": [
        0,
        1,
        2,
        3,
        4,
        5,
        6,
        7,
        8,
        9,
        10,
        11,
        12,
        13,
        14,
        15,
        16,
        17,
        18,
        19,
        20,
        21,
        22,
        23,
        24,
        25,
        26,
        27,
        28,
        29,
        30,
        31,
        32,
        33,
        34,
        35,
        36,
        37,
        38,
        39,
        40,
        41,
        42,
        43,
        44,
        45,
        46,
        47,
        48,
        49,
        50,
        51,
        52,
        53,
        54,
        55,
        56,
        57,
        58,
        59,
        60,
        61,
        62,
        63,
        64,
        65,
        66,
        67,
        68,
        69,
        70,
        71,
        72,
        73,
        74,
        75,
        76,
        77,
        78,
        79,
        80,
        81,
        82,
        83,
        84,
        85,
        86,
        87,
        88,
        89,
        90,
        91,
        92,
        93,
        94,
        95,
        96,
        97,
        98,
        99,
        100,
        101,
        102,
        103,
        104,
        105,
        106,
        107,
        108,
        109,
        110,
        111,
        112,
        113,
        114,
        115,
        116,
        117,
        118,
        119,
        120,
        121,
        122,
        123,
        124,
        125,
        126,
        127,
        128,
        129,
        130,
        131,
        132,
        133,
        134,
        135,
        136,
        137,
        138,
        139,
        140,
        141,
        142,
        143,
        144,
        145,
        146,
        147,
        148,
        149,
        150,
        151,
        152,
        153
      ]
    }
  ],
  "textures": [
    {
      "source": 0
    },
    {
      "source": 1
    },
    {
      "source": 2
    },
    {
      "source": 3
    },
    {
      "source": 4
    },
    {
      "source": 5
    }
  ]
}
