{
  "accessors": [
    {
      "bufferView": 0,
      "componentType": 5126,
      "count": 164,
      "type": "MAT4"
    },
    {
      "bufferView": 1,
      "componentType": 5125,
      "count": 15360,
      "max": [
        2886
      ],
      "min": [
        0
      ],
      "type": "SCALAR"
    },
    {
      "bufferView": 2,
      "componentType": 5126,
      "count": 2887,
      "max": [
        18.927837371826172,
        44.993446350097656,
        163.76629638671875
      ],
      "min": [
        -26.99281883239746,
        -45.7939567565918,
        108.96585845947266
      ],
      "type": "VEC3"
    },
    {
      "bufferView": 3,
      "componentType": 5126,
      "count": 2887,
      "type": "VEC3"
    },
    {
      "bufferView": 4,
      "componentType": 5126,
      "count": 2887,
      "type": "VEC2"
    },
    {
      "bufferView": 5,
      "componentType": 5123,
      "count": 2887,
      "type": "VEC4"
    },
    {
      "bufferView": 6,
      "componentType": 5126,
      "count": 2887,
      "type": "VEC4"
    },
    {
      "bufferView": 7,
      "componentType": 5125,
      "count": 15141,
      "max": [
        2810
      ],
      "min": [
        0
      ],
      "type": "SCALAR"
    },
    {
      "bufferView": 8,
      "componentType": 5126,
      "count": 2811,
      "max": [
        11.353551864624023,
        20.02283477783203,
        119.74542236328125
      ],
      "min": [
        -15.222319602966309,
        -22.677270889282227,
        11.013216018676758
      ],
      "type": "VEC3"
    },
    {
      "bufferView": 9,
      "componentType": 5126,
      "count": 2811,
      "type": "VEC3"
    },
    {
      "bufferView": 10,
      "componentType": 5126,
      "count": 2811,
      "type": "VEC2"
    },
    {
      "bufferView": 11,
      "componentType": 5123,
      "count": 2811,
      "type": "VEC4"
    },
    {
      "bufferView": 12,
      "componentType": 5126,
      "count": 2811,
      "type": "VEC4"
    },
    {
      "bufferView": 13,
      "componentType": 5125,
      "count": 14769,
      "max": [
        2743
      ],
      "min": [
        0
      ],
      "type": "SCALAR"
    },
    {
      "bufferView": 14,
      "componentType": 5126,
      "count": 2744,
      "max": [
        26.6901912689209,
        46.90610885620117,
        166.71286010742188
      ],
      "min": [
        -15.037115097045898,
        -47.1347770690918,
        103.99732208251953
      ],
      "type": "VEC3"
    },
    {
      "bufferView": 15,
      "componentType": 5126,
      "count": 2744,
      "type": "VEC3"
    },
    {
      "bufferView": 16,
      "componentType": 5126,
      "count": 2744,
      "type": "VEC2"
    },
    {
      "bufferView": 17,
      "componentType": 5123,
      "count": 2744,
      "type": "VEC4"
    },
    {
      "bufferView": 18,
      "componentType": 5126,
      "count": 2744,
      "type": "VEC4"
    },
    {
      "bufferView": 19,
      "componentType": 5125,
      "count": 31305,
      "max": [
        7689
      ],
      "min": [
        0
      ],
      "type": "SCALAR"
    },
    {
      "bufferView": 20,
      "componentType": 5126,
      "count": 7690,
      "max": [
        17.08390998840332,
        16.961711883544922,
        159.66650390625
      ],
      "min": [
        -17.07149887084961,
        -16.91684341430664,
        117.08382415771484
      ],
      "type": "VEC3"
    },
    {
      "bufferView": 21,
      "componentType": 5126,
      "count": 7690,
      "type": "VEC3"
    },
    {
      "bufferView": 22,
      "componentType": 5126,
      "count": 7690,
      "type": "VEC2"
    },
    {
      "bufferView": 23,
      "componentType": 5123,
      "count": 7690,
      "type": "VEC4"
    },
    {
      "bufferView": 24,
      "componentType": 5126,
      "count": 7690,
      "type": "VEC4"
    },
    {
      "bufferView": 25,
      "componentType": 5125,
      "count": 9672,
      "max": [
        1873
      ],
      "min": [
        0
      ],
      "type": "SCALAR"
    },
    {
      "bufferView": 26,
      "componentType": 5126,
      "count": 1874,
      "max": [
        18.640962600708008,
        19.50970458984375,
        16.14643096923828
      ],
      "min": [
        -16.12399673461914,
        -19.5125675201416,
        0.05799569934606552
      ],
      "type": "VEC3"
    },
    {
      "bufferView": 27,
      "componentType": 5126,
      "count": 1874,
      "type": "VEC3"
    },
    {
      "bufferView": 28,
      "componentType": 5126,
      "count": 1874,
      "type": "VEC2"
    },
    {
      "bufferView": 29,
      "componentType": 5123,
      "count": 1874,
      "type": "VEC4"
    },
    {
      "bufferView": 30,
      "componentType": 5126,
      "count": 1874,
      "type": "VEC4"
    },
    {
      "bufferView": 31,
      "componentType": 5125,
      "count": 5460,
      "max": [
        1412
      ],
      "min": [
        0
      ],
      "type": "SCALAR"
    },
    {
      "bufferView": 32,
      "componentType": 5126,
      "count": 1413,
      "max": [
        22.120704650878906,
        11.310593605041504,
        158.61781311035156
      ],
      "min": [
        -17.21613121032715,
        -18.49633026123047,
        126.12590789794922
      ],
      "type": "VEC3"
    },
    {
      "bufferView": 33,
      "componentType": 5126,
      "count": 1413,
      "type": "VEC3"
    },
    {
      "bufferView": 34,
      "componentType": 5126,
      "count": 1413,
      "type": "VEC2"
    },
    {
      "bufferView": 35,
      "componentType": 5123,
      "count": 1413,
      "type": "VEC4"
    },
    {
      "bufferView": 36,
      "componentType": 5126,
      "count": 1413,
      "type": "VEC4"
    },
    {
      "bufferView": 37,
      "componentType": 5125,
      "count": 10380,
      "max": [
        2007
      ],
      "min": [
        0
      ],
      "type": "SCALAR"
    },
    {
      "bufferView": 38,
      "componentType": 5126,
      "count": 2008,
      "max": [
        39.994834899902344,
        49.21973419189453,
        118.9401626586914
      ],
      "min": [
        21.071531295776367,
        -49.220237731933594,
        104.4827651977539
      ],
      "type": "VEC3"
    },
    {
      "bufferView": 39,
      "componentType": 5126,
      "count": 2008,
      "type": "VEC3"
    },
    {
      "bufferView": 40,
      "componentType": 5126,
      "count": 2008,
      "type": "VEC2"
    },
    {
      "bufferView": 41,
      "componentType": 5123,
      "count": 2008,
      "type": "VEC4"
    },
    {
      "bufferView": 42,
      "componentType": 5126,
      "count": 2008,
      "type": "VEC4"
    },
    {
      "bufferView": 43,
      "componentType": 5125,
      "count": 1338,
      "max": [
        453
      ],
      "min": [
        0
      ],
      "type": "SCALAR"
    },
    {
      "bufferView": 44,
      "componentType": 5126,
      "count": 454,
      "max": [
        20.098730087280273,
        11.284817695617676,
        144.2386932373047
      ],
      "min": [
        14.772196769714355,
        -6.657571792602539,
        133.34982299804688
      ],
      "type": "VEC3"
    },
    {
      "bufferView": 45,
      "componentType": 5126,
      "count": 454,
      "type": "VEC3"
    },
    {
      "bufferView": 46,
      "componentType": 5126,
      "count": 454,
      "type": "VEC2"
    },
    {
      "bufferView": 47,
      "componentType": 5123,
      "count": 454,
      "type": "VEC4"
    },
    {
      "bufferView": 48,
      "componentType": 5126,
      "count": 454,
      "type": "VEC4"
    },
    {
      "bufferView": 49,
      "componentType": 5125,
      "count": 864,
      "max": [
        187
      ],
      "min": [
        0
      ],
      "type": "SCALAR"
    },
    {
      "bufferView": 50,
      "componentType": 5126,
      "count": 188,
      "max": [
        -0.0002386654232395813,
        16.105859756469727,
        14.429472923278809
      ],
      "min": [
        -11.493887901306152,
        -15.938793182373047,
        4.782616138458252
      ],
      "type": "VEC3"
    },
    {
      "bufferView": 51,
      "componentType": 5126,
      "count": 188,
      "type": "VEC3"
    },
    {
      "bufferView": 52,
      "componentType": 5126,
      "count": 188,
      "type": "VEC2"
    },
    {
      "bufferView": 53,
      "componentType": 5123,
      "count": 188,
      "type": "VEC4"
    },
    {
      "bufferView": 54,
      "componentType": 5126,
      "count": 188,
      "type": "VEC4"
    },
    {
      "bufferView": 55,
      "componentType": 5125,
      "count": 3339,
      "max": [
        897
      ],
      "min": [
        0
      ],
      "type": "SCALAR"
    },
    {
      "bufferView": 56,
      "componentType": 5126,
      "count": 898,
      "max": [
        21.434778213500977,
        12.659052848815918,
        133.51498413085938
      ],
      "min": [
        14.117298126220703,
        6.0575666427612305,
        122.1382827758789
      ],
      "type": "VEC3"
    },
    {
      "bufferView": 57,
      "componentType": 5126,
      "count": 898,
      "type": "VEC3"
    },
    {
      "bufferView": 58,
      "componentType": 5126,
      "count": 898,
      "type": "VEC2"
    },
    {
      "bufferView": 59,
      "componentType": 5123,
      "count": 898,
      "type": "VEC4"
    },
    {
      "bufferView": 60,
      "componentType": 5126,
      "count": 898,
      "type": "VEC4"
    },
    {
      "bufferView": 61,
      "componentType": 5125,
      "count": 1908,
      "max": [
        543
      ],
      "min": [
        0
      ],
      "type": "SCALAR"
    },
    {
      "bufferView": 62,
      "componentType": 5126,
      "count": 544,
      "max": [
        26.209999084472656,
        47.6932258605957,
        120.21797943115234
      ],
      "min": [
        20.258636474609375,
        39.95139694213867,
        112.80121612548828
      ],
      "type": "VEC3"
    },
    {
      "bufferView": 63,
      "componentType": 5126,
      "count": 544,
      "type": "VEC3"
    },
    {
      "bufferView": 64,
      "componentType": 5126,
      "count": 544,
      "type": "VEC2"
    },
    {
      "bufferView": 65,
      "componentType": 5123,
      "count": 544,
      "type": "VEC4"
    },
    {
      "bufferView": 66,
      "componentType": 5126,
      "count": 544,
      "type": "VEC4"
    },
    {
      "bufferView": 67,
      "componentType": 5125,
      "count": 3996,
      "max": [
        1454
      ],
      "min": [
        0
      ],
      "type": "SCALAR"
    },
    {
      "bufferView": 68,
      "componentType": 5126,
      "count": 1455,
      "max": [
        15.97650146484375,
        9.532535552978516,
        151.94998168945313
      ],
      "min": [
        11.615130424499512,
        1.6303235292434692,
        146.0396728515625
      ],
      "type": "VEC3"
    },
    {
      "bufferView": 69,
      "componentType": 5126,
      "count": 1455,
      "type": "VEC3"
    },
    {
      "bufferView": 70,
      "componentType": 5126,
      "count": 1455,
      "type": "VEC2"
    },
    {
      "bufferView": 71,
      "componentType": 5123,
      "count": 1455,
      "type": "VEC4"
    },
    {
      "bufferView": 72,
      "componentType": 5126,
      "count": 1455,
      "type": "VEC4"
    },
    {
      "bufferView": 73,
      "componentType": 5125,
      "count": 1200,
      "max": [
        385
      ],
      "min": [
        0
      ],
      "type": "SCALAR"
    },
    {
      "bufferView": 74,
      "componentType": 5126,
      "count": 386,
      "max": [
        20.73358154296875,
        6.789315223693848,
        140.36038208007813
      ],
      "min": [
        15.546904563903809,
        -5.918186187744141,
        129.74024963378906
      ],
      "type": "VEC3"
    },
    {
      "bufferView": 75,
      "componentType": 5126,
      "count": 386,
      "type": "VEC3"
    },
    {
      "bufferView": 76,
      "componentType": 5126,
      "count": 386,
      "type": "VEC2"
    },
    {
      "bufferView": 77,
      "componentType": 5123,
      "count": 386,
      "type": "VEC4"
    },
    {
      "bufferView": 78,
      "componentType": 5126,
      "count": 386,
      "type": "VEC4"
    },
    {
      "bufferView": 79,
      "componentType": 5125,
      "count": 840,
      "max": [
        189
      ],
      "min": [
        0
      ],
      "type": "SCALAR"
    },
    {
      "bufferView": 80,
      "componentType": 5126,
      "count": 190,
      "max": [
        15.247617721557617,
        14.625177383422852,
        165.52670288085938
      ],
      "min": [
        -3.6169745922088623,
        -0.5716036558151245,
        131.50064086914063
      ],
      "type": "VEC3"
    },
    {
      "bufferView": 81,
      "componentType": 5126,
      "count": 190,
      "type": "VEC3"
    },
    {
      "bufferView": 82,
      "componentType": 5126,
      "count": 190,
      "type": "VEC2"
    },
    {
      "bufferView": 83,
      "componentType": 5123,
      "count": 190,
      "type": "VEC4"
    },
    {
      "bufferView": 84,
      "componentType": 5126,
      "count": 190,
      "type": "VEC4"
    },
    {
      "bufferView": 85,
      "componentType": 5125,
      "count": 1944,
      "max": [
        731
      ],
      "min": [
        0
      ],
      "type": "SCALAR"
    },
    {
      "bufferView": 86,
      "componentType": 5126,
      "count": 732,
      "max": [
        16.466720581054688,
        20.71878433227539,
        122.47623443603516
      ],
      "min": [
        -0.7190989255905151,
        -21.0237979888916,
        107.54103088378906
      ],
      "type": "VEC3"
    },
    {
      "bufferView": 87,
      "componentType": 5126,
      "count": 732,
      "type": "VEC3"
    },
    {
      "bufferView": 88,
      "componentType": 5126,
      "count": 732,
      "type": "VEC2"
    },
    {
      "bufferView": 89,
      "componentType": 5123,
      "count": 732,
      "type": "VEC4"
    },
    {
      "bufferView": 90,
      "componentType": 5126,
      "count": 732,
      "type": "VEC4"
    },
    {
      "bufferView": 91,
      "componentType": 5125,
      "count": 1356,
      "max": [
        476
      ],
      "min": [
        0
      ],
      "type": "SCALAR"
    },
    {
      "bufferView": 92,
      "componentType": 5126,
      "count": 477,
      "max": [
        25.808563232421875,
        47.4798583984375,
        120.05043029785156
      ],
      "min": [
        20.97272300720215,
        43.37529373168945,
        116.25040435791016
      ],
      "type": "VEC3"
    },
    {
      "bufferView": 93,
      "componentType": 5126,
      "count": 477,
      "type": "VEC3"
    },
    {
      "bufferView": 94,
      "componentType": 5126,
      "count": 477,
      "type": "VEC2"
    },
    {
      "bufferView": 95,
      "componentType": 5123,
      "count": 477,
      "type": "VEC4"
    },
    {
      "bufferView": 96,
      "componentType": 5126,
      "count": 477,
      "type": "VEC4"
    },
    {
      "bufferView": 97,
      "componentType": 5125,
      "count": 153,
      "max": [
        60
      ],
      "min": [
        0
      ],
      "type": "SCALAR"
    },
    {
      "bufferView": 98,
      "componentType": 5126,
      "count": 61,
      "max": [
        24.69351577758789,
        46.723289489746094,
        119.39744567871094
      ],
      "min": [
        22.265336990356445,
        44.868858337402344,
        117.77452087402344
      ],
      "type": "VEC3"
    },
    {
      "bufferView": 99,
      "componentType": 5126,
      "count": 61,
      "type": "VEC3"
    },
    {
      "bufferView": 100,
      "componentType": 5126,
      "count": 61,
      "type": "VEC2"
    },
    {
      "bufferView": 101,
      "componentType": 5123,
      "count": 61,
      "type": "VEC4"
    },
    {
      "bufferView": 102,
      "componentType": 5126,
      "count": 61,
      "type": "VEC4"
    },
    {
      "bufferView": 103,
      "componentType": 5125,
      "count": 42,
      "max": [
        15
      ],
      "min": [
        0
      ],
      "type": "SCALAR"
    },
    {
      "bufferView": 104,
      "componentType": 5126,
      "count": 16,
      "max": [
        25.026216506958008,
        47.04549026489258,
        119.71487426757813
      ],
      "min": [
        21.963184356689453,
        44.70895767211914,
        117.65757751464844
      ],
      "type": "VEC3"
    },
    {
      "bufferView": 105,
      "componentType": 5126,
      "count": 16,
      "type": "VEC3"
    },
    {
      "bufferView": 106,
      "componentType": 5126,
      "count": 16,
      "type": "VEC2"
    },
    {
      "bufferView": 107,
      "componentType": 5123,
      "count": 16,
      "type": "VEC4"
    },
    {
      "bufferView": 108,
      "componentType": 5126,
      "count": 16,
      "type": "VEC4"
    }
  ],
  "asset": {
    "generator": "Greyhound",
    "version": "2.0"
  },
  "bufferViews": [
    {
      "buffer": 0,
      "byteLength": 10496
    },
    {
      "buffer": 0,
      "byteLength": 61440,
      "byteOffset": 10496,
      "target": 34963
    },
    {
      "buffer": 0,
      "byteLength": 34644,
      "byteOffset": 71936,
      "target": 34962
    },
    {
      "buffer": 0,
      "byteLength": 34644,
      "byteOffset": 106580,
      "target": 34962
    },
    {
      "buffer": 0,
      "byteLength": 23096,
      "byteOffset": 141224,
      "target": 34962
    },
    {
      "buffer": 0,
      "byteLength": 23096,
      "byteOffset": 164320,
      "target": 34962
    },
    {
      "buffer": 0,
      "byteLength": 46192,
      "byteOffset": 187416,
      "target": 34962
    },
    {
      "buffer": 0,
      "byteLength": 60564,
      "byteOffset": 233608,
      "target": 34963
    },
    {
      "buffer": 0,
      "byteLength": 33732,
      "byteOffset": 294172,
      "target": 34962
    },
    {
      "buffer": 0,
      "byteLength": 33732,
      "byteOffset": 327904,
      "target": 34962
    },
    {
      "buffer": 0,
      "byteLength": 22488,
      "byteOffset": 361636,
      "target": 34962
    },
    {
      "buffer": 0,
      "byteLength": 22488,
      "byteOffset": 384124,
      "target": 34962
    },
    {
      "buffer": 0,
      "byteLength": 44976,
      "byteOffset": 406612,
      "target": 34962
    },
    {
      "buffer": 0,
      "byteLength": 59076,
      "byteOffset": 451588,
      "target": 34963
    },
    {
      "buffer": 0,
      "byteLength": 32928,
      "byteOffset": 510664,
      "target": 34962
    },
    {
      "buffer": 0,
      "byteLength": 32928,
      "byteOffset": 543592,
      "target": 34962
    },
    {
      "buffer": 0,
      "byteLength": 21952,
      "byteOffset": 576520,
      "target": 34962
    },
    {
      "buffer": 0,
      "byteLength": 21952,
      "byteOffset": 598472,
      "target": 34962
    },
    {
      "buffer": 0,
      "byteLength": 43904,
      "byteOffset": 620424,
      "target": 34962
    },
    {
      "buffer": 0,
      "byteLength": 125220,
      "byteOffset": 664328,
      "target": 34963
    },
    {
      "buffer": 0,
      "byteLength": 92280,
      "byteOffset": 789548,
      "target": 34962
    },
    {
      "buffer": 0,
      "byteLength": 92280,
      "byteOffset": 881828,
      "target": 34962
    },
    {
      "buffer": 0,
      "byteLength": 61520,
      "byteOffset": 974108,
      "target": 34962
    },
    {
      "buffer": 0,
      "byteLength": 61520,
      "byteOffset": 1035628,
      "target": 34962
    },
    {
      "buffer": 0,
      "byteLength": 123040,
      "byteOffset": 1097148,
      "target": 34962
    },
    {
      "buffer": 0,
      "byteLength": 38688,
      "byteOffset": 1220188,
      "target": 34963
    },
    {
      "buffer": 0,
      "byteLength": 22488,
      "byteOffset": 1258876,
      "target": 34962
    },
    {
      "buffer": 0,
      "byteLength": 22488,
      "byteOffset": 1281364,
      "target": 34962
    },
    {
      "buffer": 0,
      "byteLength": 14992,
      "byteOffset": 1303852,
      "target": 34962
    },
    {
      "buffer": 0,
      "byteLength": 14992,
      "byteOffset": 1318844,
      "target": 34962
    },
    {
      "buffer": 0,
      "byteLength": 29984,
      "byteOffset": 1333836,
      "target": 34962
    },
    {
      "buffer": 0,
      "byteLength": 21840,
      "byteOffset": 1363820,
      "target": 34963
    },
    {
      "buffer": 0,
      "byteLength": 16956,
      "byteOffset": 1385660,
      "target": 34962
    },
    {
      "buffer": 0,
      "byteLength": 16956,
      "byteOffset": 1402616,
      "target": 34962
    },
    {
      "buffer": 0,
      "byteLength": 11304,
      "byteOffset": 1419572,
      "target": 34962
    },
    {
      "buffer": 0,
      "byteLength": 11304,
      "byteOffset": 1430876,
      "target": 34962
    },
    {
      "buffer": 0,
      "byteLength": 22608,
      "byteOffset": 1442180,
      "target": 34962
    },
    {
      "buffer": 0,
      "byteLength": 41520,
      "byteOffset": 1464788,
      "target": 34963
    },
    {
      "buffer": 0,
      "byteLength": 24096,
      "byteOffset": 1506308,
      "target": 34962
    },
    {
      "buffer": 0,
      "byteLength": 24096,
      "byteOffset": 1530404,
      "target": 34962
    },
    {
      "buffer": 0,
      "byteLength": 16064,
      "byteOffset": 1554500,
      "target": 34962
    },
    {
      "buffer": 0,
      "byteLength": 16064,
      "byteOffset": 1570564,
      "target": 34962
    },
    {
      "buffer": 0,
      "byteLength": 32128,
      "byteOffset": 1586628,
      "target": 34962
    },
    {
      "buffer": 0,
      "byteLength": 5352,
      "byteOffset": 1618756,
      "target": 34963
    },
    {
      "buffer": 0,
      "byteLength": 5448,
      "byteOffset": 1624108,
      "target": 34962
    },
    {
      "buffer": 0,
      "byteLength": 5448,
      "byteOffset": 1629556,
      "target": 34962
    },
    {
      "buffer": 0,
      "byteLength": 3632,
      "byteOffset": 1635004,
      "target": 34962
    },
    {
      "buffer": 0,
      "byteLength": 3632,
      "byteOffset": 1638636,
      "target": 34962
    },
    {
      "buffer": 0,
      "byteLength": 7264,
      "byteOffset": 1642268,
      "target": 34962
    },
    {
      "buffer": 0,
      "byteLength": 3456,
      "byteOffset": 1649532,
      "target": 34963
    },
    {
      "buffer": 0,
      "byteLength": 2256,
      "byteOffset": 1652988,
      "target": 34962
    },
    {
      "buffer": 0,
      "byteLength": 2256,
      "byteOffset": 1655244,
      "target": 34962
    },
    {
      "buffer": 0,
      "byteLength": 1504,
      "byteOffset": 1657500,
      "target": 34962
    },
    {
      "buffer": 0,
      "byteLength": 1504,
      "byteOffset": 1659004,
      "target": 34962
    },
    {
      "buffer": 0,
      "byteLength": 3008,
      "byteOffset": 1660508,
      "target": 34962
    },
    {
      "buffer": 0,
      "byteLength": 13356,
      "byteOffset": 1663516,
      "target": 34963
    },
    {
      "buffer": 0,
      "byteLength": 10776,
      "byteOffset": 1676872,
      "target": 34962
    },
    {
      "buffer": 0,
      "byteLength": 10776,
      "byteOffset": 1687648,
      "target": 34962
    },
    {
      "buffer": 0,
      "byteLength": 7184,
      "byteOffset": 1698424,
      "target": 34962
    },
    {
      "buffer": 0,
      "byteLength": 7184,
      "byteOffset": 1705608,
      "target": 34962
    },
    {
      "buffer": 0,
      "byteLength": 14368,
      "byteOffset": 1712792,
      "target": 34962
    },
    {
      "buffer": 0,
      "byteLength": 7632,
      "byteOffset": 1727160,
      "target": 34963
    },
    {
      "buffer": 0,
      "byteLength": 6528,
      "byteOffset": 1734792,
      "target": 34962
    },
    {
      "buffer": 0,
      "byteLength": 6528,
      "byteOffset": 1741320,
      "target": 34962
    },
    {
      "buffer": 0,
      "byteLength": 4352,
      "byteOffset": 1747848,
      "target": 34962
    },
    {
      "buffer": 0,
      "byteLength": 4352,
      "byteOffset": 1752200,
      "target": 34962
    },
    {
      "buffer": 0,
      "byteLength": 8704,
      "byteOffset": 1756552,
      "target": 34962
    },
    {
      "buffer": 0,
      "byteLength": 15984,
      "byteOffset": 1765256,
      "target": 34963
    },
    {
      "buffer": 0,
      "byteLength": 17460,
      "byteOffset": 1781240,
      "target": 34962
    },
    {
      "buffer": 0,
      "byteLength": 17460,
      "byteOffset": 1798700,
      "target": 34962
    },
    {
      "buffer": 0,
      "byteLength": 11640,
      "byteOffset": 1816160,
      "target": 34962
    },
    {
      "buffer": 0,
      "byteLength": 11640,
      "byteOffset": 1827800,
      "target": 34962
    },
    {
      "buffer": 0,
      "byteLength": 23280,
      "byteOffset": 1839440,
      "target": 34962
    },
    {
      "buffer": 0,
      "byteLength": 4800,
      "byteOffset": 1862720,
      "target": 34963
    },
    {
      "buffer": 0,
      "byteLength": 4632,
      "byteOffset": 1867520,
      "target": 34962
    },
    {
      "buffer": 0,
      "byteLength": 4632,
      "byteOffset": 1872152,
      "target": 34962
    },
    {
      "buffer": 0,
      "byteLength": 3088,
      "byteOffset": 1876784,
      "target": 34962
    },
    {
      "buffer": 0,
      "byteLength": 3088,
      "byteOffset": 1879872,
      "target": 34962
    },
    {
      "buffer": 0,
      "byteLength": 6176,
      "byteOffset": 1882960,
      "target": 34962
    },
    {
      "buffer": 0,
      "byteLength": 3360,
      "byteOffset": 1889136,
      "target": 34963
    },
    {
      "buffer": 0,
      "byteLength": 2280,
      "byteOffset": 1892496,
      "target": 34962
    },
    {
      "buffer": 0,
      "byteLength": 2280,
      "byteOffset": 1894776,
      "target": 34962
    },
    {
      "buffer": 0,
      "byteLength": 1520,
      "byteOffset": 1897056,
      "target": 34962
    },
    {
      "buffer": 0,
      "byteLength": 1520,
      "byteOffset": 1898576,
      "target": 34962
    },
    {
      "buffer": 0,
      "byteLength": 3040,
      "byteOffset": 1900096,
      "target": 34962
    },
    {
      "buffer": 0,
      "byteLength": 7776,
      "byteOffset": 1903136,
      "target": 34963
    },
    {
      "buffer": 0,
      "byteLength": 8784,
      "byteOffset": 1910912,
      "target": 34962
    },
    {
      "buffer": 0,
      "byteLength": 8784,
      "byteOffset": 1919696,
      "target": 34962
    },
    {
      "buffer": 0,
      "byteLength": 5856,
      "byteOffset": 1928480,
      "target": 34962
    },
    {
      "buffer": 0,
      "byteLength": 5856,
      "byteOffset": 1934336,
      "target": 34962
    },
    {
      "buffer": 0,
      "byteLength": 11712,
      "byteOffset": 1940192,
      "target": 34962
    },
    {
      "buffer": 0,
      "byteLength": 5424,
      "byteOffset": 1951904,
      "target": 34963
    },
    {
      "buffer": 0,
      "byteLength": 5724,
      "byteOffset": 1957328,
      "target": 34962
    },
    {
      "buffer": 0,
      "byteLength": 5724,
      "byteOffset": 1963052,
      "target": 34962
    },
    {
      "buffer": 0,
      "byteLength": 3816,
      "byteOffset": 1968776,
      "target": 34962
    },
    {
      "buffer": 0,
      "byteLength": 3816,
      "byteOffset": 1972592,
      "target": 34962
    },
    {
      "buffer": 0,
      "byteLength": 7632,
      "byteOffset": 1976408,
      "target": 34962
    },
    {
      "buffer": 0,
      "byteLength": 612,
      "byteOffset": 1984040,
      "target": 34963
    },
    {
      "buffer": 0,
      "byteLength": 732,
      "byteOffset": 1984652,
      "target": 34962
    },
    {
      "buffer": 0,
      "byteLength": 732,
      "byteOffset": 1985384,
      "target": 34962
    },
    {
      "buffer": 0,
      "byteLength": 488,
      "byteOffset": 1986116,
      "target": 34962
    },
    {
      "buffer": 0,
      "byteLength": 488,
      "byteOffset": 1986604,
      "target": 34962
    },
    {
      "buffer": 0,
      "byteLength": 976,
      "byteOffset": 1987092,
      "target": 34962
    },
    {
      "buffer": 0,
      "byteLength": 168,
      "byteOffset": 1988068,
      "target": 34963
    },
    {
      "buffer": 0,
      "byteLength": 192,
      "byteOffset": 1988236,
      "target": 34962
    },
    {
      "buffer": 0,
      "byteLength": 192,
      "byteOffset": 1988428,
      "target": 34962
    },
    {
      "buffer": 0,
      "byteLength": 128,
      "byteOffset": 1988620,
      "target": 34962
    },
    {
      "buffer": 0,
      "byteLength": 128,
      "byteOffset": 1988748,
      "target": 34962
    },
    {
      "buffer": 0,
      "byteLength": 256,
      "byteOffset": 1988876,
      "target": 34962
    }
  ],
  "buffers": [
    {
      "byteLength": 1989132,
      "uri": "body_mp_kleo_iw9_3_1_LOD0.bin"
    }
  ],
  "images": [
    {
      "uri": "_images\\\\xmaterial_77222472d63f8064\\\\ximage_29cec6488f769811.dds"
    },
    {
      "uri": "_images\\\\xmaterial_69b289ca74fc793b\\\\ximage_ecb8c7a67ed3581.dds"
    },
    {
      "uri": "_images\\\\xmaterial_6f46266527d342bf\\\\ximage_69ac422019052055.dds"
    },
    {
      "uri": "_images\\\\xmaterial_677647f5b5e5c6ba\\\\ximage_4a0b8d8ef43b62fd.dds"
    },
    {
      "uri": "_images\\\\xmaterial_2361df96c859e5c9\\\\ximage_2e308b6650d7f802.dds"
    },
    {
      "uri": "_images\\\\xmaterial_f23de9d0003e0ba\\\\ximage_3fa42673af3f3e38.dds"
    },
    {
      "uri": "_images\\\\xmaterial_57b9f1548d6ecb5a\\\\ximage_188424140a6ba0fb.dds"
    },
    {
      "uri": "_images\\\\xmaterial_674ffa73bec233c2\\\\ximage_5db5a1c0adc50dd5.dds"
    },
    {
      "uri": "_images\\\\xmaterial_46cad986ead844bc\\\\ximage_114fd457c2073ff2.dds"
    },
    {
      "uri": "_images\\\\xmaterial_5b8378fe7201ffd4\\\\ximage_1d3311bde4f55c9b.dds"
    },
    {
      "uri": "_images\\\\xmaterial_109529c57f7ede3\\\\ximage_61fabe02cca63f62.dds"
    },
    {
      "uri": "_images\\\\xmaterial_61348fa15f534bc9\\\\ximage_587cf604a77cb218.dds"
    },
    {
      "uri": "_images\\\\xmaterial_5d2d22cdf227785f\\\\ximage_43ab8007e66cf717.dds"
    },
    {
      "uri": "_images\\\\xmaterial_4239e8469b97ebc5\\\\ximage_4beeb2356d4f9600.dds"
    },
    {
      "uri": "_images\\\\xmaterial_6d71f1c4c455481a\\\\ximage_5b81d4cfc3125722.dds"
    },
    {
      "uri": "_images\\\\xmaterial_3ebb9f0796c0b768\\\\ximage_411cef3d5b066ec1.dds"
    },
    {
      "uri": "_images\\\\xmaterial_7012a28887e5c728\\\\ximage_deeab4fb8b2973c.dds"
    },
    {
      "uri": "_images\\\\xmaterial_597076307ac0631c\\\\ximage_97a7da0576a1f6d.dds"
    }
  ],
  "materials": [
    {
      "name": "xmaterial_77222472d63f8064",
      "pbrMetallicRoughness": {
        "baseColorTexture": {
          "index": 0
        },
        "metallicFactor": 0.0,
        "roughnessFactor": 0.75
      }
    },
    {
      "name": "xmaterial_69b289ca74fc793b",
      "pbrMetallicRoughness": {
        "baseColorTexture": {
          "index": 1
        },
        "metallicFactor": 0.0,
        "roughnessFactor": 0.75
      }
    },
    {
      "name": "xmaterial_6f46266527d342bf",
      "pbrMetallicRoughness": {
        "baseColorTexture": {
          "index": 2
        },
        "metallicFactor": 0.0,
        "roughnessFactor": 0.75
      }
    },
    {
      "name": "xmaterial_677647f5b5e5c6ba",
      "pbrMetallicRoughness": {
        "baseColorTexture": {
          "index": 3
        },
        "metallicFactor": 0.0,
        "roughnessFactor": 0.75
      }
    },
    {
      "name": "xmaterial_2361df96c859e5c9",
      "pbrMetallicRoughness": {
        "baseColorTexture": {
          "index": 4
        },
        "metallicFactor": 0.0,
        "roughnessFactor": 0.75
      }
    },
    {
      "name": "xmaterial_f23de9d0003e0ba",
      "pbrMetallicRoughness": {
        "baseColorTexture": {
          "index": 5
        },
        "metallicFactor": 0.0,
        "roughnessFactor": 0.75
      }
    },
    {
      "name": "xmaterial_57b9f1548d6ecb5a",
      "pbrMetallicRoughness": {
        "baseColorTexture": {
          "index": 6
        },
        "metallicFactor": 0.0,
        "roughnessFactor": 0.75
      }
    },
    {
      "name": "xmaterial_674ffa73bec233c2",
      "pbrMetallicRoughness": {
        "baseColorTexture": {
          "index": 7
        },
        "metallicFactor": 0.0,
        "roughnessFactor": 0.75
      }
    },
    {
      "name": "xmaterial_46cad986ead844bc",
      "pbrMetallicRoughness": {
        "baseColorTexture": {
          "index": 8
        },
        "metallicFactor": 0.0,
        "roughnessFactor": 0.75
      }
    },
    {
      "name": "xmaterial_5b8378fe7201ffd4",
      "pbrMetallicRoughness": {
        "baseColorTexture": {
          "index": 9
        },
        "metallicFactor": 0.0,
        "roughnessFactor": 0.75
      }
    },
    {
      "name": "xmaterial_109529c57f7ede3",
      "pbrMetallicRoughness": {
        "baseColorTexture": {
          "index": 10
        },
        "metallicFactor": 0.0,
        "roughnessFactor": 0.75
      }
    },
    {
      "name": "xmaterial_61348fa15f534bc9",
      "pbrMetallicRoughness": {
        "baseColorTexture": {
          "index": 11
        },
        "metallicFactor": 0.0,
        "roughnessFactor": 0.75
      }
    },
    {
      "name": "xmaterial_5d2d22cdf227785f",
      "pbrMetallicRoughness": {
        "baseColorTexture": {
          "index": 12
        },
        "metallicFactor": 0.0,
        "roughnessFactor": 0.75
      }
    },
    {
      "name": "xmaterial_4239e8469b97ebc5",
      "pbrMetallicRoughness": {
        "baseColorTexture": {
          "index": 13
        },
        "metallicFactor": 0.0,
        "roughnessFactor": 0.75
      }
    },
    {
      "name": "xmaterial_6d71f1c4c455481a",
      "pbrMetallicRoughness": {
        "baseColorTexture": {
          "index": 14
        },
        "metallicFactor": 0.0,
        "roughnessFactor": 0.75
      }
    },
    {
      "name": "xmaterial_3ebb9f0796c0b768",
      "pbrMetallicRoughness": {
        "baseColorTexture": {
          "index": 15
        },
        "metallicFactor": 0.0,
        "roughnessFactor": 0.75
      }
    },
    {
      "name": "xmaterial_7012a28887e5c728",
      "pbrMetallicRoughness": {
        "baseColorTexture": {
          "index": 16
        },
        "metallicFactor": 0.0,
        "roughnessFactor": 0.75
      }
    },
    {
      "name": "xmaterial_597076307ac0631c",
      "pbrMetallicRoughness": {
        "baseColorTexture": {
          "index": 17
        },
        "metallicFactor": 0.0,
        "roughnessFactor": 0.75
      }
    }
  ],
  "meshes": [
    {
      "primitives": [
        {
          "attributes": {
            "JOINTS_0": 5,
            "NORMAL": 3,
            "POSITION": 2,
            "TEXCOORD_0": 4,
            "WEIGHTS_0": 6
          },
          "indices": 1,
          "material": 0,
          "mode": 4
        }
      ]
    },
    {
      "primitives": [
        {
          "attributes": {
            "JOINTS_0": 11,
            "NORMAL": 9,
            "POSITION": 8,
            "TEXCOORD_0": 10,
            "WEIGHTS_0": 12
          },
          "indices": 7,
          "material": 1,
          "mode": 4
        }
      ]
    },
    {
      "primitives": [
        {
          "attributes": {
            "JOINTS_0": 17,
            "NORMAL": 15,
            "POSITION": 14,
            "TEXCOORD_0": 16,
            "WEIGHTS_0": 18
          },
          "indices": 13,
          "material": 2,
          "mode": 4
        }
      ]
    },
    {
      "primitives": [
        {
          "attributes": {
            "JOINTS_0": 23,
            "NORMAL": 21,
            "POSITION": 20,
            "TEXCOORD_0": 22,
            "WEIGHTS_0": 24
          },
          "indices": 19,
          "material": 3,
          "mode": 4
        }
      ]
    },
    {
      "primitives": [
        {
          "attributes": {
            "JOINTS_0": 29,
            "NORMAL": 27,
            "POSITION": 26,
            "TEXCOORD_0": 28,
            "WEIGHTS_0": 30
          },
          "indices": 25,
          "material": 4,
          "mode": 4
        }
      ]
    },
    {
      "primitives": [
        {
          "attributes": {
            "JOINTS_0": 35,
            "NORMAL": 33,
            "POSITION": 32,
            "TEXCOORD_0": 34,
            "WEIGHTS_0": 36
          },
          "indices": 31,
          "material": 5,
          "mode": 4
        }
      ]
    },
    {
      "primitives": [
        {
          "attributes": {
            "JOINTS_0": 41,
            "NORMAL": 39,
            "POSITION": 38,
            "TEXCOORD_0": 40,
            "WEIGHTS_0": 42
          },
          "indices": 37,
          "material": 6,
          "mode": 4
        }
      ]
    },
    {
      "primitives": [
        {
          "attributes": {
            "JOINTS_0": 47,
            "NORMAL": 45,
            "POSITION": 44,
            "TEXCOORD_0": 46,
            "WEIGHTS_0": 48
          },
          "indices": 43,
          "material": 7,
          "mode": 4
        }
      ]
    },
    {
      "primitives": [
        {
          "attributes": {
            "JOINTS_0": 53,
            "NORMAL": 51,
            "POSITION": 50,
            "TEXCOORD_0": 52,
            "WEIGHTS_0": 54
          },
          "indices": 49,
          "material": 8,
          "mode": 4
        }
      ]
    },
    {
      "primitives": [
        {
          "attributes": {
            "JOINTS_0": 59,
            "NORMAL": 57,
            "POSITION": 56,
            "TEXCOORD_0": 58,
            "WEIGHTS_0": 60
          },
          "indices": 55,
          "material": 9,
          "mode": 4
        }
      ]
    },
    {
      "primitives": [
        {
          "attributes": {
            "JOINTS_0": 65,
            "NORMAL": 63,
            "POSITION": 62,
            "TEXCOORD_0": 64,
            "WEIGHTS_0": 66
          },
          "indices": 61,
          "material": 10,
          "mode": 4
        }
      ]
    },
    {
      "primitives": [
        {
          "attributes": {
            "JOINTS_0": 71,
            "NORMAL": 69,
            "POSITION": 68,
            "TEXCOORD_0": 70,
            "WEIGHTS_0": 72
          },
          "indices": 67,
          "material": 11,
          "mode": 4
        }
      ]
    },
    {
      "primitives": [
        {
          "attributes": {
            "JOINTS_0": 77,
            "NORMAL": 75,
            "POSITION": 74,
            "TEXCOORD_0": 76,
            "WEIGHTS_0": 78
          },
          "indices": 73,
          "material": 12,
          "mode": 4
        }
      ]
    },
    {
      "primitives": [
        {
          "attributes": {
            "JOINTS_0": 83,
            "NORMAL": 81,
            "POSITION": 80,
            "TEXCOORD_0": 82,
            "WEIGHTS_0": 84
          },
          "indices": 79,
          "material": 13,
          "mode": 4
        }
      ]
    },
    {
      "primitives": [
        {
          "attributes": {
            "JOINTS_0": 89,
            "NORMAL": 87,
            "POSITION": 86,
            "TEXCOORD_0": 88,
            "WEIGHTS_0": 90
          },
          "indices": 85,
          "material": 14,
          "mode": 4
        }
      ]
    },
    {
      "primitives": [
        {
          "attributes": {
            "JOINTS_0": 95,
            "NORMAL": 93,
            "POSITION": 92,
            "TEXCOORD_0": 94,
            "WEIGHTS_0": 96
          },
          "indices": 91,
          "material": 15,
          "mode": 4
        }
      ]
    },
    {
      "primitives": [
        {
          "attributes": {
            "JOINTS_0": 101,
            "NORMAL": 99,
            "POSITION": 98,
            "TEXCOORD_0": 100,
            "WEIGHTS_0": 102
          },
          "indices": 97,
          "material": 16,
          "mode": 4
        }
      ]
    },
    {
      "primitives": [
        {
          "attributes": {
            "JOINTS_0": 107,
            "NORMAL": 105,
            "POSITION": 104,
            "TEXCOORD_0": 106,
            "WEIGHTS_0": 108
          },
          "indices": 103,
          "material": 17,
          "mode": 4
        }
      ]
    }
  ],
  "nodes": [
    {
      "children": [
        1,
        2,
        56,
        59
      ],
      "name": "tag_origin",
      "rotation": [
        0.0,
        0.0,
        0.0,
        1.0
      ],
      "translation": [
        0.0,
        0.0,
        0.0
      ]
    },
    {
      "children": [
        37
      ],
      "name": "tag_sync",
      "rotation": [
        0.0,
        0.0,
        0.0,
        0.999969482421875
      ],
      "translation": [
        0.0,
        0.0,
        0.0
      ]
    },
    {
      "children": [
        3,
        17,
        21,
        25,
        51,
        63,
        64,
        138
      ],
      "name": "j_mainroot",
      "rotation": [
        0.5,
        -0.499969482421875,
        0.5,
        0.499969482421875
      ],
      "translation": [
        -2.8524200916290283,
        0.0,
        102.95635986328125
      ]
    },
    {
      "children": [
        4,
        52
      ],
      "name": "j_spinelower",
      "rotation": [
        0.0,
        0.0,
        0.0,
        0.999969482421875
      ],
      "translation": [
        7.99845552444458,
        0.0,
        0.0
      ]
    },
    {
      "children": [
        5,
        55,
        67,
        68,
        69
      ],
      "name": "j_spineupper",
      "rotation": [
        0.0,
        0.0,
        0.0,
        0.999969482421875
      ],
      "translation": [
        14.455144882202148,
        0.0,
        0.0
      ]
    },
    {
      "children": [
        6,
        9,
        13,
        28,
        29,
        30,
        45,
        46,
        62,
        72,
        73,
        74,
        77,
        78,
        79
      ],
      "name": "j_spine4",
      "rotation": [
        0.0,
        0.0,
        0.0,
        0.999969482421875
      ],
      "translation": [
        12.235182762145996,
        0.0,
        0.0
      ]
    },
    {
      "children": [
        7
      ],
      "name": "j_neck",
      "rotation": [
        0.0,
        0.0,
        -0.146514892578125,
        0.989166259765625
      ],
      "translation": [
        18.199092864990234,
        0.0,
        0.0
      ]
    },
    {
      "children": [
        8,
        35
      ],
      "name": "j_head",
      "rotation": [
        0.0,
        0.0,
        0.146514892578125,
        0.989166259765625
      ],
      "translation": [
        8.367918968200684,
        8.235931454692036e-05,
        0.0
      ]
    },
    {
      "children": [
        41,
        101,
        102
      ],
      "name": "j_helmet",
      "rotation": [
        0.0,
        0.0,
        0.0,
        0.999969482421875
      ],
      "translation": [
        20.19552993774414,
        1.6891000270843506,
        0.0
      ]
    },
    {
      "children": [
        10,
        44,
        141
      ],
      "name": "j_clavicle_le",
      "rotation": [
        -0.007537841796875,
        0.703704833984375,
        -0.007598876953125,
        0.710357666015625
      ],
      "translation": [
        8.559797286987305,
        -0.4546600580215454,
        -5.245100021362305
      ]
    },
    {
      "children": [
        11,
        33,
        149
      ],
      "name": "j_shoulder_le",
      "rotation": [
        0.034942626953125,
        0.38836669921875,
        -0.12762451171875,
        0.91192626953125
      ],
      "translation": [
        13.869734764099121,
        6.0255526477703825e-05,
        0.0007557678036391735
      ]
    },
    {
      "children": [
        12,
        38,
        100,
        160
      ],
      "name": "j_elbow_le",
      "rotation": [
        0.0,
        0.0,
        -0.379119873046875,
        0.925323486328125
      ],
      "translation": [
        26.197101593017578,
        -0.00035487173590809107,
        0.0005910492036491632
      ]
    },
    {
      "children": [
        42,
        96,
        104,
        106,
        108,
        110,
        162
      ],
      "name": "j_wrist_le",
      "rotation": [
        0.0,
        0.0,
        0.0,
        0.999969482421875
      ],
      "translation": [
        25.810068130493164,
        -0.0003730392490979284,
        0.00010658263636287302
      ]
    },
    {
      "children": [
        14,
        31,
        142
      ],
      "name": "j_clavicle_ri",
      "rotation": [
        0.007537841796875,
        -0.703704833984375,
        -0.007598876953125,
        0.710357666015625
      ],
      "translation": [
        8.559797286987305,
        -0.4546600580215454,
        5.245100021362305
      ]
    },
    {
      "children": [
        15,
        34,
        150
      ],
      "name": "j_shoulder_ri",
      "rotation": [
        -0.034942626953125,
        -0.38836669921875,
        -0.12762451171875,
        0.91192626953125
      ],
      "translation": [
        13.869734764099121,
        6.0255526477703825e-05,
        -0.0007557678036391735
      ]
    },
    {
      "children": [
        16,
        103,
        161
      ],
      "name": "j_elbow_ri",
      "rotation": [
        0.0,
        0.0,
        -0.379119873046875,
        0.925323486328125
      ],
      "translation": [
        26.195405960083008,
        -0.001069459947757423,
        0.0011530304327607155
      ]
    },
    {
      "children": [
        43,
        98,
        105,
        107,
        109,
        111,
        163
      ],
      "name": "j_wrist_ri",
      "rotation": [
        0.0,
        0.0,
        0.0,
        0.999969482421875
      ],
      "translation": [
        25.812002182006836,
        0.002650032052770257,
        -6.782531272619963e-05
      ]
    },
    {
      "children": [
        18,
        26,
        49
      ],
      "name": "j_hip_le",
      "rotation": [
        -0.0064697265625,
        0.99993896484375,
        0.0,
        0.004364013671875
      ],
      "translation": [
        0.0,
        0.0,
        -11.201399803161621
      ]
    },
    {
      "children": [
        19,
        139
      ],
      "name": "j_knee_le",
      "rotation": [
        0.0,
        0.0,
        0.06787109375,
        0.997650146484375
      ],
      "translation": [
        49.33877182006836,
        -0.00016138791397679597,
        0.0
      ]
    },
    {
      "children": [
        20
      ],
      "name": "j_ankle_le",
      "rotation": [
        0.0,
        0.0,
        -0.55450439453125,
        0.8321533203125
      ],
      "translation": [
        45.12777328491211,
        -0.0008599281427450478,
        0.0
      ]
    },
    {
      "name": "j_ball_le",
      "rotation": [
        0.0,
        0.0,
        -0.256134033203125,
        0.96661376953125
      ],
      "translation": [
        14.616106033325195,
        0.0015154719585552812,
        0.0
      ]
    },
    {
      "children": [
        22,
        27,
        50
      ],
      "name": "j_hip_ri",
      "rotation": [
        -0.006500244140625,
        0.99993896484375,
        0.0,
        0.00433349609375
      ],
      "translation": [
        0.0,
        0.0,
        11.201399803161621
      ]
    },
    {
      "children": [
        23,
        140
      ],
      "name": "j_knee_ri",
      "rotation": [
        0.0,
        0.0,
        0.06787109375,
        0.997650146484375
      ],
      "translation": [
        49.338783264160156,
        0.0008252584957517684,
        0.0
      ]
    },
    {
      "children": [
        24
      ],
      "name": "j_ankle_ri",
      "rotation": [
        0.0,
        0.0,
        -0.55450439453125,
        0.8321533203125
      ],
      "translation": [
        45.12777328491211,
        -0.0008599281427450478,
        0.0
      ]
    },
    {
      "name": "j_ball_ri",
      "rotation": [
        0.0,
        0.0,
        -0.256134033203125,
        0.96661376953125
      ],
      "translation": [
        14.61472225189209,
        -0.0007630347972735763,
        0.0
      ]
    },
    {
      "name": "tag_stowed_hip_rear",
      "rotation": [
        0.83935546875,
        0.0526123046875,
        -0.1024169921875,
        0.53118896484375
      ],
      "translation": [
        3.035299062728882,
        13.830299377441406,
        11.882120132446289
      ]
    },
    {
      "children": [
        47
      ],
      "name": "j_hiptwist_le",
      "rotation": [
        0.0,
        0.0,
        0.0,
        0.999969482421875
      ],
      "translation": [
        1.3514097929000854,
        -0.0002522254071664065,
        0.0
      ]
    },
    {
      "children": [
        48
      ],
      "name": "j_hiptwist_ri",
      "rotation": [
        0.0,
        0.0,
        0.0,
        0.999969482421875
      ],
      "translation": [
        1.3514097929000854,
        -0.0002252769481856376,
        0.0
      ]
    },
    {
      "name": "tag_inhand",
      "rotation": [
        -0.499969482421875,
        0.5,
        -0.499969482421875,
        0.5
      ],
      "translation": [
        -36.66490173339844,
        -37.12718200683594,
        0.0
      ]
    },
    {
      "name": "tag_shield_back",
      "rotation": [
        0.50927734375,
        0.490509033203125,
        0.490509033203125,
        0.50927734375
      ],
      "translation": [
        -2.567944049835205,
        6.728460311889648,
        -2.1640799045562744
      ]
    },
    {
      "name": "tag_weapon_chest",
      "rotation": [
        0.0,
        0.0,
        0.0,
        0.999969482421875
      ],
      "translation": [
        0.0,
        0.0,
        0.0
      ]
    },
    {
      "children": [
        32,
        36
      ],
      "name": "j_gun_adjust",
      "rotation": [
        0.700225830078125,
        -0.713470458984375,
        0.003997802734375,
        0.0238037109375
      ],
      "translation": [
        13.869734764099121,
        6.0255526477703825e-05,
        -0.0007557678036391735
      ]
    },
    {
      "name": "j_gun",
      "rotation": [
        0.0,
        0.0,
        0.0,
        0.999969482421875
      ],
      "translation": [
        0.0,
        0.0,
        0.0
      ]
    },
    {
      "children": [
        39
      ],
      "name": "j_shouldertwist_le",
      "rotation": [
        0.0,
        0.0,
        0.0,
        0.999969482421875
      ],
      "translation": [
        1.3502566814422607,
        -0.00031671999022364616,
        -0.00011627197091002017
      ]
    },
    {
      "children": [
        40
      ],
      "name": "j_shouldertwist_ri",
      "rotation": [
        0.0,
        0.0,
        0.0,
        0.999969482421875
      ],
      "translation": [
        1.3502566814422607,
        -0.00031671999022364616,
        0.00011627197091002017
      ]
    },
    {
      "name": "tag_eye",
      "rotation": [
        -0.499969482421875,
        0.5,
        -0.499969482421875,
        0.5
      ],
      "translation": [
        7.899401664733887,
        -8.976359367370605,
        0.0
      ]
    },
    {
      "name": "tag_weapon_right",
      "rotation": [
        0.0,
        0.0,
        0.0,
        0.999969482421875
      ],
      "translation": [
        0.0,
        0.0,
        0.0
      ]
    },
    {
      "name": "j_shield_ri",
      "rotation": [
        -0.0184326171875,
        0.01910400390625,
        0.019989013671875,
        0.999420166015625
      ],
      "translation": [
        -2.1005799770355225,
        -19.110960006713867,
        146.33702087402344
      ]
    },
    {
      "children": [
        60
      ],
      "name": "j_wristfronttwist1_le",
      "rotation": [
        0.0,
        0.0,
        0.0,
        0.999969482421875
      ],
      "translation": [
        24.760108947753906,
        -3.875732363667339e-05,
        0.0006976318545639515
      ]
    },
    {
      "name": "tag_reflector_arm_le",
      "rotation": [
        0.0,
        0.0,
        0.0,
        0.999969482421875
      ],
      "translation": [
        -0.06328102201223373,
        0.29580286145210266,
        6.744200706481934
      ]
    },
    {
      "name": "tag_reflector_arm_ri",
      "rotation": [
        0.0,
        0.0,
        0.0,
        0.999969482421875
      ],
      "translation": [
        -0.06328102201223373,
        0.29580286145210266,
        -6.744200706481934
      ]
    },
    {
      "name": "tag_helmetlight",
      "rotation": [
        -0.499969482421875,
        0.5,
        -0.499969482421875,
        0.5
      ],
      "translation": [
        -9.720569610595703,
        -14.848840713500977,
        0.0
      ]
    },
    {
      "name": "tag_accessory_left",
      "rotation": [
        0.0,
        0.0,
        0.0,
        0.999969482421875
      ],
      "translation": [
        0.0,
        0.0,
        0.0
      ]
    },
    {
      "name": "tag_accessory_right",
      "rotation": [
        0.0,
        0.0,
        0.0,
        0.999969482421875
      ],
      "translation": [
        0.0,
        0.0,
        0.0
      ]
    },
    {
      "children": [
        61
      ],
      "name": "j_gun_adjust_le",
      "rotation": [
        0.023101806640625,
        0.003997802734375,
        -0.713470458984375,
        0.70025634765625
      ],
      "translation": [
        13.869734764099121,
        6.0255526477703825e-05,
        0.0007557678036391735
      ]
    },
    {
      "name": "tag_ik_target_left_character",
      "rotation": [
        -0.39239501953125,
        0.549407958984375,
        -0.727081298828125,
        0.124359130859375
      ],
      "translation": [
        -4.198629379272461,
        -19.23033905029297,
        -22.20214080810547
      ]
    },
    {
      "name": "tag_ik_target_right_character",
      "rotation": [
        0.39239501953125,
        -0.549407958984375,
        -0.727081298828125,
        0.124359130859375
      ],
      "translation": [
        -4.198629379272461,
        -19.23033905029297,
        22.20214080810547
      ]
    },
    {
      "name": "j_hipholster_le",
      "rotation": [
        0.0,
        0.0,
        0.0,
        0.999969482421875
      ],
      "translation": [
        13.498740196228027,
        -0.00018288612773176283,
        0.0
      ]
    },
    {
      "name": "j_hipholster_ri",
      "rotation": [
        0.0,
        0.0,
        0.0,
        0.999969482421875
      ],
      "translation": [
        13.498749732971191,
        8.720398182049394e-05,
        0.0
      ]
    },
    {
      "name": "j_hip_proc_le",
      "rotation": [
        0.0,
        0.0,
        0.0,
        0.999969482421875
      ],
      "translation": [
        25.65117645263672,
        -4.6932695113355294e-05,
        0.0
      ]
    },
    {
      "name": "j_hip_proc_ri",
      "rotation": [
        0.0,
        0.0,
        0.0,
        0.999969482421875
      ],
      "translation": [
        25.651185989379883,
        0.00046614764141850173,
        0.0
      ]
    },
    {
      "name": "j_dummy_knee_dist",
      "rotation": [
        0.0,
        0.0,
        0.0,
        0.999969482421875
      ],
      "translation": [
        -46.41088104248047,
        -0.6400800943374634,
        0.0
      ]
    },
    {
      "children": [
        53
      ],
      "name": "j_spinelower_lift",
      "rotation": [
        0.0,
        0.0,
        0.0,
        0.999969482421875
      ],
      "translation": [
        0.0,
        0.0,
        0.0
      ]
    },
    {
      "children": [
        54,
        71,
        75
      ],
      "name": "j_proc_spinelower",
      "rotation": [
        0.0,
        0.0,
        0.0,
        0.999969482421875
      ],
      "translation": [
        0.0,
        0.0,
        0.0
      ]
    },
    {
      "children": [
        84
      ],
      "name": "j_proc_spinelower2",
      "rotation": [
        0.0,
        0.0,
        0.0,
        0.999969482421875
      ],
      "translation": [
        8.366765975952148,
        0.0,
        0.0
      ]
    },
    {
      "children": [
        76
      ],
      "name": "j_proc_spineupper",
      "rotation": [
        0.0,
        0.0,
        0.0,
        0.999969482421875
      ],
      "translation": [
        0.0,
        0.0,
        0.0
      ]
    },
    {
      "children": [
        57,
        58
      ],
      "name": "j_ik_foot_root",
      "rotation": [
        0.0,
        0.0,
        0.0,
        0.999969482421875
      ],
      "translation": [
        0.0,
        0.0,
        0.0
      ]
    },
    {
      "name": "tag_ik_foot_loc_le",
      "rotation": [
        -0.683502197265625,
        0.181121826171875,
        0.181121826171875,
        0.6834716796875
      ],
      "translation": [
        -7.741919994354248,
        11.201399803161621,
        8.83411979675293
      ]
    },
    {
      "name": "tag_ik_foot_loc_ri",
      "rotation": [
        -0.683502197265625,
        0.181121826171875,
        0.181121826171875,
        0.6834716796875
      ],
      "translation": [
        -7.741919994354248,
        -11.201399803161621,
        8.83411979675293
      ]
    },
    {
      "name": "j_antislide_ik",
      "rotation": [
        0.0,
        0.0,
        0.0,
        0.999969482421875
      ],
      "translation": [
        -50.79999923706055,
        0.0,
        12.699999809265137
      ]
    },
    {
      "name": "tag_wrist_attach_le",
      "rotation": [
        0.0,
        0.0,
        0.0,
        0.999969482421875
      ],
      "translation": [
        -2.9072353839874268,
        0.0013613509945571423,
        -0.0008817291236482561
      ]
    },
    {
      "name": "tag_weapon_left",
      "rotation": [
        0.0,
        0.0,
        0.0,
        0.999969482421875
      ],
      "translation": [
        0.0,
        0.0,
        0.0
      ]
    },
    {
      "name": "tag_stowed_chest2",
      "rotation": [
        0.01739501953125,
        0.8577880859375,
        0.010406494140625,
        0.5135498046875
      ],
      "translation": [
        -9.75106143951416,
        -19.451318740844727,
        -12.918439865112305
      ]
    },
    {
      "children": [
        65
      ],
      "name": "j_proc_hip_lift_le",
      "rotation": [
        0.0,
        0.0,
        0.0,
        0.999969482421875
      ],
      "translation": [
        2.7939960956573486,
        0.0,
        -10.541000366210938
      ]
    },
    {
      "children": [
        66
      ],
      "name": "j_proc_hip_lift_ri",
      "rotation": [
        0.0,
        0.0,
        0.0,
        0.999969482421875
      ],
      "translation": [
        2.7939960956573486,
        0.0,
        10.541000366210938
      ]
    },
    {
      "name": "j_proc_hip_lift_aim_le",
      "rotation": [
        0.0,
        0.0,
        0.0,
        0.999969482421875
      ],
      "translation": [
        0.0,
        0.0,
        0.0
      ]
    },
    {
      "name": "j_proc_hip_lift_aim_ri",
      "rotation": [
        0.0,
        0.0,
        0.0,
        0.999969482421875
      ],
      "translation": [
        0.0,
        0.0,
        0.0
      ]
    },
    {
      "children": [
        70
      ],
      "name": "j_dummy_rot_aim_02",
      "rotation": [
        0.70709228515625,
        -0.70709228515625,
        0.0,
        0.0
      ],
      "translation": [
        7.975598335266113,
        -0.28702008724212646,
        0.0
      ]
    },
    {
      "name": "j_proc_dummy_spinelift",
      "rotation": [
        0.0,
        0.0,
        0.0,
        0.999969482421875
      ],
      "translation": [
        20.79751968383789,
        -0.45974013209342957,
        0.0
      ]
    },
    {
      "name": "j_sling_clavicle",
      "rotation": [
        0.70709228515625,
        -0.70709228515625,
        0.0,
        0.0
      ],
      "translation": [
        7.975598335266113,
        -0.28702008724212646,
        0.0
      ]
    },
    {
      "children": [
        86
      ],
      "name": "j_dummy_slingcenteraim",
      "rotation": [
        0.0,
        0.0,
        0.0,
        0.999969482421875
      ],
      "translation": [
        0.0,
        0.0,
        0.0
      ]
    },
    {
      "name": "j_groinprotector",
      "rotation": [
        0.0,
        0.0,
        0.0,
        0.999969482421875
      ],
      "translation": [
        2.801621675491333,
        -17.551401138305664,
        0.0
      ]
    },
    {
      "children": [
        80
      ],
      "name": "j_proc_lift_clavicle_le",
      "rotation": [
        -0.007537841796875,
        0.703704833984375,
        -0.007598876953125,
        0.710357666015625
      ],
      "translation": [
        8.562335968017578,
        -0.45974013209342957,
        -5.4990997314453125
      ]
    },
    {
      "children": [
        81
      ],
      "name": "j_proc_lift_clavicle_ri",
      "rotation": [
        0.007537841796875,
        -0.703704833984375,
        -0.007598876953125,
        0.710357666015625
      ],
      "translation": [
        8.562335968017578,
        -0.45974013209342957,
        5.4990997314453125
      ]
    },
    {
      "children": [
        83,
        143,
        144,
        145,
        146,
        147,
        148
      ],
      "name": "j_proc_spinelift",
      "rotation": [
        0.0,
        0.0,
        0.0,
        0.999969482421875
      ],
      "translation": [
        -8.074662208557129,
        0.0,
        0.0
      ]
    },
    {
      "children": [
        85
      ],
      "name": "j_proc_spinelower_lift",
      "rotation": [
        0.0,
        0.0,
        0.0,
        0.999969482421875
      ],
      "translation": [
        -5.204459190368652,
        0.0,
        0.0
      ]
    },
    {
      "children": [
        82
      ],
      "name": "j_proc_spineupperlift",
      "rotation": [
        0.0,
        0.0,
        0.0,
        0.999969482421875
      ],
      "translation": [
        0.0,
        0.0,
        0.0
      ]
    },
    {
      "name": "j_cosmetic_1",
      "rotation": [
        0.0,
        0.0,
        0.988983154296875,
        0.1478271484375
      ],
      "translation": [
        17.231351852416992,
        9.982199668884277,
        0.0
      ]
    },
    {
      "name": "j_cosmetic_2",
      "rotation": [
        0.0,
        0.70709228515625,
        0.70709228515625,
        0.0
      ],
      "translation": [
        11.656051635742188,
        -17.330419540405273,
        -13.279120445251465
      ]
    },
    {
      "children": [
        87,
        88,
        89
      ],
      "name": "j_cosmetic_4",
      "rotation": [
        0.998809814453125,
        -0.0479736328125,
        0.0,
        0.004058837890625
      ],
      "translation": [
        -3.0073647499084473,
        -26.972261428833008,
        0.18795999884605408
      ]
    },
    {
      "children": [
        91
      ],
      "name": "j_proc_rot_clavicle_le",
      "rotation": [
        0.0,
        0.0,
        0.0,
        0.999969482421875
      ],
      "translation": [
        0.0,
        0.0,
        0.0
      ]
    },
    {
      "children": [
        92
      ],
      "name": "j_proc_rot_clavicle_ri",
      "rotation": [
        0.0,
        0.0,
        0.0,
        0.999969482421875
      ],
      "translation": [
        0.0,
        0.0,
        0.0
      ]
    },
    {
      "children": [
        93
      ],
      "name": "j_proc_stowed_chest",
      "rotation": [
        0.0,
        0.999969482421875,
        0.0,
        0.0
      ],
      "translation": [
        1.9049999713897705,
        -27.81808090209961,
        0.0
      ]
    },
    {
      "children": [
        94,
        95,
        158
      ],
      "name": "j_proc_spine4",
      "rotation": [
        0.0,
        0.0,
        0.0,
        0.999969482421875
      ],
      "translation": [
        8.074662208557129,
        0.0,
        0.0
      ]
    },
    {
      "name": "j_proc_spinelower3",
      "rotation": [
        0.0,
        0.0,
        0.0,
        0.999969482421875
      ],
      "translation": [
        0.0,
        0.0,
        0.0
      ]
    },
    {
      "children": [
        90
      ],
      "name": "j_proc_spinelower_swivel",
      "rotation": [
        0.0,
        0.0,
        0.0,
        0.999969482421875
      ],
      "translation": [
        0.0,
        0.0,
        0.0
      ]
    },
    {
      "children": [
        151
      ],
      "name": "j_sling_pivot",
      "rotation": [
        0.0,
        0.0,
        0.0,
        0.999969482421875
      ],
      "translation": [
        22.153879165649414,
        0.0,
        0.0
      ]
    },
    {
      "name": "tag_stowed_back",
      "rotation": [
        0.022674560546875,
        0.70672607421875,
        0.70672607421875,
        0.02239990234375
      ],
      "translation": [
        -6.534882068634033,
        -46.7441520690918,
        -14.48307991027832
      ]
    },
    {
      "name": "tag_stowed_back2",
      "rotation": [
        0.0479736328125,
        0.998809814453125,
        0.0,
        0.004058837890625
      ],
      "translation": [
        -7.855460166931152,
        -39.31129837036133,
        -1.1607800722122192
      ]
    },
    {
      "name": "tag_stowed_back3",
      "rotation": [
        0.046600341796875,
        0.705535888671875,
        0.705535888671875,
        0.046966552734375
      ],
      "translation": [
        -10.294942855834961,
        -40.821800231933594,
        0.0
      ]
    },
    {
      "name": "j_proc_spinelower_swivel_lift",
      "rotation": [
        0.0,
        0.0,
        0.0,
        0.999969482421875
      ],
      "translation": [
        0.0,
        0.0,
        0.0
      ]
    },
    {
      "name": "j_proc_target_clavicle_le",
      "rotation": [
        0.007537841796875,
        -0.703704833984375,
        0.007598876953125,
        0.710357666015625
      ],
      "translation": [
        0.0,
        0.0,
        0.0
      ]
    },
    {
      "name": "j_proc_target_clavicle_ri",
      "rotation": [
        -0.007537841796875,
        0.703704833984375,
        0.007598876953125,
        0.710357666015625
      ],
      "translation": [
        0.0,
        0.0,
        0.0
      ]
    },
    {
      "name": "tag_stowed_chest",
      "rotation": [
        0.0,
        0.0,
        0.0,
        0.999969482421875
      ],
      "translation": [
        26.423620223999023,
        0.0,
        0.0
      ]
    },
    {
      "name": "tag_stowed_thigh",
      "rotation": [
        0.01739501953125,
        0.8577880859375,
        0.010406494140625,
        0.5135498046875
      ],
      "translation": [
        -9.75106143951416,
        -19.451318740844727,
        -12.918439865112305
      ]
    },
    {
      "name": "tag_carry_attach",
      "rotation": [
        0.0,
        0.70709228515625,
        0.70709228515625,
        0.0
      ],
      "translation": [
        25.1586971282959,
        -13.934439659118652,
        -16.365219116210938
      ]
    },
    {
      "children": [
        97
      ],
      "name": "j_metamid_le_1",
      "rotation": [
        -0.738616943359375,
        -0.043975830078125,
        -0.04840087890625,
        0.6708984375
      ],
      "translation": [
        1.9183106422424316,
        -0.8909388184547424,
        0.5823966264724731
      ]
    },
    {
      "children": [
        122
      ],
      "name": "j_mid_le_1",
      "rotation": [
        0.017242431640625,
        -0.012939453125,
        0.23681640625,
        0.971282958984375
      ],
      "translation": [
        7.105568885803223,
        0.00021316527272574604,
        0.0005571365472860634
      ]
    },
    {
      "children": [
        99
      ],
      "name": "j_metamid_ri_1",
      "rotation": [
        0.738616943359375,
        0.043975830078125,
        -0.04840087890625,
        0.6708984375
      ],
      "translation": [
        1.9170849323272705,
        -0.8922662734985352,
        -0.5841794610023499
      ]
    },
    {
      "children": [
        123
      ],
      "name": "j_mid_ri_1",
      "rotation": [
        -0.017242431640625,
        0.012939453125,
        0.23681640625,
        0.971282958984375
      ],
      "translation": [
        7.105568885803223,
        0.00021316527272574604,
        -0.0005571365472860634
      ]
    },
    {
      "name": "j_shield_le",
      "rotation": [
        0.36285400390625,
        -0.1650390625,
        -0.233673095703125,
        0.886810302734375
      ],
      "translation": [
        -18.665876388549805,
        -18.381494522094727,
        -0.0005910492036491632
      ]
    },
    {
      "name": "j_visor",
      "rotation": [
        0.0,
        0.0,
        0.0,
        0.999969482421875
      ],
      "translation": [
        -14.368773460388184,
        -2.3799800872802734,
        0.0
      ]
    },
    {
      "name": "j_visor_inner",
      "rotation": [
        0.0,
        0.0,
        0.0,
        0.999969482421875
      ],
      "translation": [
        -14.117316246032715,
        1.0922000408172607,
        0.0
      ]
    },
    {
      "name": "j_wristfronttwist1_ri",
      "rotation": [
        0.0,
        3.0517578125e-05,
        0.000274658203125,
        0.999969482421875
      ],
      "translation": [
        24.764156341552734,
        0.0016471862327307463,
        -0.0011045837309211493
      ]
    },
    {
      "children": [
        118
      ],
      "name": "j_thumb_le_1",
      "rotation": [
        0.201171875,
        0.224761962890625,
        -0.54254150390625,
        0.783966064453125
      ],
      "translation": [
        1.7841715812683105,
        -1.5384235382080078,
        -0.16129828989505768
      ]
    },
    {
      "children": [
        119
      ],
      "name": "j_thumb_ri_1",
      "rotation": [
        -0.201171875,
        -0.224761962890625,
        -0.542510986328125,
        0.78399658203125
      ],
      "translation": [
        1.7822386026382446,
        -1.541446566581726,
        0.16125953197479248
      ]
    },
    {
      "children": [
        112
      ],
      "name": "j_metaindex_le_1",
      "rotation": [
        -0.73553466796875,
        -0.019622802734375,
        -0.076629638671875,
        0.672821044921875
      ],
      "translation": [
        1.9457629919052124,
        -2.430447578430176,
        0.45837318897247314
      ]
    },
    {
      "children": [
        113
      ],
      "name": "j_metaindex_ri_1",
      "rotation": [
        0.73553466796875,
        0.019622802734375,
        -0.076629638671875,
        0.672821044921875
      ],
      "translation": [
        1.9445372819900513,
        -2.4317750930786133,
        -0.46015602350234985
      ]
    },
    {
      "children": [
        114
      ],
      "name": "j_metapinky_le_1",
      "rotation": [
        -0.762969970703125,
        -0.0345458984375,
        0.04290771484375,
        0.64404296875
      ],
      "translation": [
        1.890981912612915,
        1.889075517654419,
        0.2691502273082733
      ]
    },
    {
      "children": [
        115
      ],
      "name": "j_metapinky_ri_1",
      "rotation": [
        0.762908935546875,
        0.0343017578125,
        0.042572021484375,
        0.644134521484375
      ],
      "translation": [
        1.889756202697754,
        1.887748122215271,
        -0.27093306183815
      ]
    },
    {
      "children": [
        116
      ],
      "name": "j_metaring_le_1",
      "rotation": [
        -0.7706298828125,
        -0.0362548828125,
        -0.009674072265625,
        0.636138916015625
      ],
      "translation": [
        1.9446511268615723,
        0.5934085249900818,
        0.37700217962265015
      ]
    },
    {
      "children": [
        117
      ],
      "name": "j_metaring_ri_1",
      "rotation": [
        0.7706298828125,
        0.0362548828125,
        -0.009674072265625,
        0.636138916015625
      ],
      "translation": [
        1.9434254169464111,
        0.5920810699462891,
        -0.37878501415252686
      ]
    },
    {
      "children": [
        120
      ],
      "name": "j_index_le_1",
      "rotation": [
        0.100830078125,
        0.007659912109375,
        0.17425537109375,
        0.979461669921875
      ],
      "translation": [
        7.01979923248291,
        0.0005038452218286693,
        0.0016035842709243298
      ]
    },
    {
      "children": [
        121
      ],
      "name": "j_index_ri_1",
      "rotation": [
        -0.100830078125,
        -0.007659912109375,
        0.17425537109375,
        0.979461669921875
      ],
      "translation": [
        7.01979923248291,
        0.0005038452218286693,
        -0.0016035842709243298
      ]
    },
    {
      "children": [
        124
      ],
      "name": "j_pinky_le_1",
      "rotation": [
        0.0,
        0.0,
        0.308929443359375,
        0.9510498046875
      ],
      "translation": [
        6.4260149002075195,
        -0.0013371276436373591,
        0.0016229628818109632
      ]
    },
    {
      "children": [
        125
      ],
      "name": "j_pinky_ri_1",
      "rotation": [
        0.0,
        0.0,
        0.308929443359375,
        0.9510498046875
      ],
      "translation": [
        6.427626132965088,
        -0.0009107970981858671,
        -0.0009543991181999445
      ]
    },
    {
      "children": [
        126
      ],
      "name": "j_ring_le_1",
      "rotation": [
        0.007720947265625,
        -0.024139404296875,
        0.257720947265625,
        0.965850830078125
      ],
      "translation": [
        6.8709564208984375,
        -0.0007460784981958568,
        0.0005619811709038913
      ]
    },
    {
      "children": [
        127
      ],
      "name": "j_ring_ri_1",
      "rotation": [
        -0.007720947265625,
        0.024139404296875,
        0.257720947265625,
        0.965850830078125
      ],
      "translation": [
        6.8709564208984375,
        -0.0007460784981958568,
        -0.0005619811709038913
      ]
    },
    {
      "children": [
        128
      ],
      "name": "j_thumb_le_2",
      "rotation": [
        -0.153656005859375,
        0.106201171875,
        0.27960205078125,
        0.941741943359375
      ],
      "translation": [
        5.620182514190674,
        0.0004505538963712752,
        -0.0011433410691097379
      ]
    },
    {
      "children": [
        129
      ],
      "name": "j_thumb_ri_2",
      "rotation": [
        0.153656005859375,
        -0.106201171875,
        0.27960205078125,
        0.941741943359375
      ],
      "translation": [
        5.616689682006836,
        0.0001526069681858644,
        0.0019863129127770662
      ]
    },
    {
      "children": [
        130
      ],
      "name": "j_index_le_2",
      "rotation": [
        0.0,
        0.0,
        0.229461669921875,
        0.973297119140625
      ],
      "translation": [
        4.425919055938721,
        -0.0012014770181849599,
        -0.0026040077209472656
      ]
    },
    {
      "children": [
        131
      ],
      "name": "j_index_ri_2",
      "rotation": [
        0.0,
        0.0,
        0.229461669921875,
        0.973297119140625
      ],
      "translation": [
        4.425311088562012,
        0.001511535607278347,
        0.00032701491727493703
      ]
    },
    {
      "children": [
        132
      ],
      "name": "j_mid_le_2",
      "rotation": [
        0.0,
        0.0,
        0.46990966796875,
        0.8826904296875
      ],
      "translation": [
        5.0729169845581055,
        0.001569671556353569,
        -0.0005619811709038913
      ]
    },
    {
      "children": [
        133
      ],
      "name": "j_mid_ri_2",
      "rotation": [
        0.0,
        0.0,
        0.46990966796875,
        0.8826904296875
      ],
      "translation": [
        5.0729169845581055,
        0.001569671556353569,
        0.0005619811709038913
      ]
    },
    {
      "children": [
        134
      ],
      "name": "j_pinky_le_2",
      "rotation": [
        0.0,
        0.0,
        0.36309814453125,
        0.931732177734375
      ],
      "translation": [
        3.240635395050049,
        0.001283836318179965,
        -0.0005862045218236744
      ]
    },
    {
      "children": [
        135
      ],
      "name": "j_pinky_ri_2",
      "rotation": [
        0.0,
        0.0,
        0.36309814453125,
        0.931732177734375
      ],
      "translation": [
        3.240635395050049,
        0.001458244281820953,
        -0.0010222244309261441
      ]
    },
    {
      "children": [
        136
      ],
      "name": "j_ring_le_2",
      "rotation": [
        0.0,
        0.0,
        0.40283203125,
        0.915252685546875
      ],
      "translation": [
        4.072256088256836,
        0.0006588745163753629,
        0.0009156417800113559
      ]
    },
    {
      "children": [
        137
      ],
      "name": "j_ring_ri_2",
      "rotation": [
        0.0,
        0.0,
        0.40283203125,
        0.915252685546875
      ],
      "translation": [
        4.072256088256836,
        0.0006588745163753629,
        -0.0009156417800113559
      ]
    },
    {
      "name": "j_thumb_le_3",
      "rotation": [
        0.0,
        0.0,
        0.182525634765625,
        0.983184814453125
      ],
      "translation": [
        3.1459271907806396,
        -0.000484466552734375,
        -0.0016665649600327015
      ]
    },
    {
      "name": "j_thumb_ri_3",
      "rotation": [
        0.0,
        0.0,
        0.18255615234375,
        0.983154296875
      ],
      "translation": [
        3.1474289894104004,
        -0.0003899955772794783,
        -0.0003681945672724396
      ]
    },
    {
      "name": "j_index_le_3",
      "rotation": [
        0.0,
        0.0,
        0.3109130859375,
        0.950408935546875
      ],
      "translation": [
        2.3574819564819336,
        -0.001085205003619194,
        0.0012571907136589289
      ]
    },
    {
      "name": "j_index_ri_3",
      "rotation": [
        0.0,
        0.0,
        0.3109130859375,
        0.950408935546875
      ],
      "translation": [
        2.3554279804229736,
        -0.0019378662109375,
        -2.422332727292087e-05
      ]
    },
    {
      "name": "j_mid_le_3",
      "rotation": [
        0.0,
        0.0,
        0.229766845703125,
        0.97320556640625
      ],
      "translation": [
        2.911285400390625,
        -0.0018215941963717341,
        7.26699799997732e-05
      ]
    },
    {
      "name": "j_mid_ri_3",
      "rotation": [
        0.0,
        0.0,
        0.229766845703125,
        0.97320556640625
      ],
      "translation": [
        2.911285400390625,
        -0.0018215941963717341,
        -7.26699799997732e-05
      ]
    },
    {
      "name": "j_pinky_le_3",
      "rotation": [
        0.0,
        0.0,
        0.269744873046875,
        0.962890625
      ],
      "translation": [
        1.8880436420440674,
        -0.00017440796364098787,
        0.00017440796364098787
      ]
    },
    {
      "name": "j_pinky_ri_3",
      "rotation": [
        0.0,
        0.0,
        0.269744873046875,
        0.962890625
      ],
      "translation": [
        1.8898361921310425,
        0.0011724090436473489,
        0.0013565063709393144
      ]
    },
    {
      "name": "j_ring_le_3",
      "rotation": [
        0.0,
        0.0,
        0.279571533203125,
        0.9600830078125
      ],
      "translation": [
        2.6651861667633057,
        -0.0010052680736407638,
        -0.00042633054545149207
      ]
    },
    {
      "name": "j_ring_ri_3",
      "rotation": [
        0.0,
        0.0,
        0.279571533203125,
        0.9600830078125
      ],
      "translation": [
        2.666881799697876,
        0.00034154890454374254,
        0.0017489242600277066
      ]
    },
    {
      "name": "j_crotch",
      "rotation": [
        0.0,
        0.70709228515625,
        0.0,
        0.70709228515625
      ],
      "translation": [
        -16.510000228881836,
        0.0,
        0.0
      ]
    },
    {
      "name": "j_kneedq_le",
      "rotation": [
        0.0,
        0.0,
        -0.033935546875,
        0.9993896484375
      ],
      "translation": [
        0.0561351403594017,
        0.8069214224815369,
        0.0
      ]
    },
    {
      "name": "j_kneedq_ri",
      "rotation": [
        0.0,
        0.0,
        -0.033966064453125,
        0.9993896484375
      ],
      "translation": [
        0.0561351403594017,
        0.8069214224815369,
        0.0
      ]
    },
    {
      "name": "j_teres_le",
      "rotation": [
        0.0,
        0.0,
        0.0,
        0.999969482421875
      ],
      "translation": [
        12.955449104309082,
        0.0008169317152351141,
        -10.14855670928955
      ]
    },
    {
      "name": "j_teres_ri",
      "rotation": [
        0.0,
        0.0,
        0.0,
        0.999969482421875
      ],
      "translation": [
        12.955449104309082,
        0.0008169317152351141,
        10.14855670928955
      ]
    },
    {
      "children": [
        152
      ],
      "name": "bone_e33fa534",
      "rotation": [
        0.05792236328125,
        -0.952362060546875,
        0.2982177734375,
        0.025634765625
      ],
      "translation": [
        6.664961338043213,
        14.223999977111816,
        -11.175999641418457
      ]
    },
    {
      "children": [
        153
      ],
      "name": "bone_bdbd3112",
      "rotation": [
        -0.05792236328125,
        0.952362060546875,
        0.2982177734375,
        0.025634765625
      ],
      "translation": [
        6.664961338043213,
        14.223999977111816,
        11.175999641418457
      ]
    },
    {
      "children": [
        154
      ],
      "name": "bone_4944a0b0",
      "rotation": [
        0.02691650390625,
        -0.228790283203125,
        0.973052978515625,
        0.006103515625
      ],
      "translation": [
        1.2268146276474,
        -17.924779891967773,
        -11.831319808959961
      ]
    },
    {
      "children": [
        155
      ],
      "name": "bone_cd52b756",
      "rotation": [
        0.0,
        0.1656494140625,
        0.98614501953125,
        0.004150390625
      ],
      "translation": [
        1.2268146276474,
        -20.683218002319336,
        7.917180061340332
      ]
    },
    {
      "children": [
        156
      ],
      "name": "bone_7b93aa3b",
      "rotation": [
        0.017303466796875,
        -0.706878662109375,
        0.706878662109375,
        0.016876220703125
      ],
      "translation": [
        3.853175640106201,
        -2.8524200916290283,
        -19.4284610748291
      ]
    },
    {
      "children": [
        157
      ],
      "name": "bone_3ef35915",
      "rotation": [
        -0.017303466796875,
        0.706878662109375,
        0.706878662109375,
        0.016876220703125
      ],
      "translation": [
        3.853175640106201,
        -2.8524200916290283,
        19.4284610748291
      ]
    },
    {
      "name": "j_proc_shoulder_le",
      "rotation": [
        0.0,
        0.0,
        0.0,
        0.999969482421875
      ],
      "translation": [
        12.321398735046387,
        -0.0009459209395572543,
        0.00011627197091002017
      ]
    },
    {
      "name": "j_proc_shoulder_ri",
      "rotation": [
        0.0,
        0.0,
        0.0,
        0.999969482421875
      ],
      "translation": [
        12.15995979309082,
        -0.0013089680578559637,
        0.13075752556324005
      ]
    },
    {
      "children": [
        159
      ],
      "name": "j_sling_pivot_dyn",
      "rotation": [
        0.0,
        0.0,
        0.0,
        0.999969482421875
      ],
      "translation": [
        0.0,
        0.0,
        0.0
      ]
    },
    {
      "name": "bone_e63fa9ed",
      "rotation": [
        -0.00250244140625,
        0.0208740234375,
        -0.023773193359375,
        0.99945068359375
      ],
      "translation": [
        15.874611854553223,
        0.0014703560154885054,
        -0.0005036938237026334
      ]
    },
    {
      "name": "bone_bcbd2f7f",
      "rotation": [
        0.00250244140625,
        -0.0208740234375,
        -0.023773193359375,
        0.99945068359375
      ],
      "translation": [
        15.874611854553223,
        0.0014703560154885054,
        0.0005036938237026334
      ]
    },
    {
      "name": "bone_4c44a569",
      "rotation": [
        0.0,
        0.0521240234375,
        0.0,
        0.99859619140625
      ],
      "translation": [
        16.01384735107422,
        -0.0004626655427273363,
        0.0010434198193252087
      ]
    },
    {
      "name": "bone_cc52b5c3",
      "rotation": [
        0.0,
        0.0,
        0.0,
        0.999969482421875
      ],
      "translation": [
        15.94611930847168,
        0.0,
        0.0
      ]
    },
    {
      "name": "bone_7c93abce",
      "rotation": [
        0.0,
        0.01715087890625,
        0.0,
        0.99981689453125
      ],
      "translation": [
        15.93470573425293,
        6.782531272619963e-05,
        0.0
      ]
    },
    {
      "name": "bone_3bf3545c",
      "rotation": [
        0.0,
        -0.01715087890625,
        0.0,
        0.99981689453125
      ],
      "translation": [
        15.93470573425293,
        6.782531272619963e-05,
        0.0
      ]
    },
    {
      "name": "bone_9d2527e8",
      "rotation": [
        0.07568359375,
        0.125762939453125,
        0.014129638671875,
        0.989044189453125
      ],
      "translation": [
        -7.574285507202148,
        -18.98904037475586,
        -10.066020011901855
      ]
    },
    {
      "name": "j_sling_target",
      "rotation": [
        0.0,
        0.0,
        0.999969482421875,
        0.0
      ],
      "translation": [
        0.0,
        0.0,
        0.0
      ]
    },
    {
      "name": "j_elbowdq_le",
      "rotation": [
        0.0,
        0.0,
        0.193206787109375,
        0.98114013671875
      ],
      "translation": [
        0.30543193221092224,
        -0.7500026822090149,
        -0.00017440796364098787
      ]
    },
    {
      "name": "j_elbowdq_ri",
      "rotation": [
        0.0,
        0.0,
        0.193206787109375,
        0.98114013671875
      ],
      "translation": [
        0.3061392605304718,
        -0.7483070492744446,
        -0.001569671556353569
      ]
    },
    {
      "name": "tag_ik_wrist_loc_le",
      "rotation": [
        0.0,
        0.0,
        0.0,
        0.999969482421875
      ],
      "translation": [
        0.0,
        0.0,
        0.0
      ]
    },
    {
      "name": "tag_ik_wrist_loc_ri",
      "rotation": [
        0.0,
        0.0,
        0.0,
        0.999969482421875
      ],
      "translation": [
        0.0,
        0.0,
        0.0
      ]
    },
    {
      "mesh": 0,
      "skin": 0
    },
    {
      "mesh": 1,
      "skin": 0
    },
    {
      "mesh": 2,
      "skin": 0
    },
    {
      "mesh": 3,
      "skin": 0
    },
    {
      "mesh": 4,
      "skin": 0
    },
    {
      "mesh": 5,
      "skin": 0
    },
    {
      "mesh": 6,
      "skin": 0
    },
    {
      "mesh": 7,
      "skin": 0
    },
    {
      "mesh": 8,
      "skin": 0
    },
    {
      "mesh": 9,
      "skin": 0
    },
    {
      "mesh": 10,
      "skin": 0
    },
    {
      "mesh": 11,
      "skin": 0
    },
    {
      "mesh": 12,
      "skin": 0
    },
    {
      "mesh": 13,
      "skin": 0
    },
    {
      "mesh": 14,
      "skin": 0
    },
    {
      "mesh": 15,
      "skin": 0
    },
    {
      "mesh": 16,
      "skin": 0
    },
    {
      "mesh": 17,
      "skin": 0
    }
  ],
  "scene": 0,
  "scenes": [
    {
      "nodes": [
        0
      ]
    }
  ],
  "skins": [
    {
      "inverseBindMatrices": 0,
      "joints": [
        0,
        1,
        2,
        3,
        4,
        5,
        6,
        7,
        8,
        9,
        10,
        11,
        12,
        13,
        14,
        15,
        16,
        17,
        18,
        19,
        20,
        21,
        22,
        23,
        24,
        25,
        26,
        27,
        28,
        29,
        30,
        31,
        32,
        33,
        34,
        35,
        36,
        37,
        38,
        39,
        40,
        41,
        42,
        43,
        44,
        45,
        46,
        47,
        48,
        49,
        50,
        51,
        52,
        53,
        54,
        55,
        56,
        57,
        58,
        59,
        60,
        61,
        62,
        63,
        64,
        65,
        66,
        67,
        68,
        69,
        70,
        71,
        72,
        73,
        74,
        75,
        76,
        77,
        78,
        79,
        80,
        81,
        82,
        83,
        84,
        85,
        86,
        87,
        88,
        89,
        90,
        91,
        92,
        93,
        94,
        95,
        96,
        97,
        98,
        99,
        100,
        101,
        102,
        103,
        104,
        105,
        106,
        107,
        108,
        109,
        110,
        111,
        112,
        113,
        114,
        115,
        116,
        117,
        118,
        119,
        120,
        121,
        122,
        123,
        124,
        125,
        126,
        127,
        128,
        129,
        130,
        131,
        132,
        133,
        134,
        135,
        136,
        137,
        138,
        139,
        140,
        141,
        142,
        143,
        144,
        145,
        146,
        147,
        148,
        149,
        150,
        151,
        152,
        153,
        154,
        155,
        156,
        157,
        158,
        159,
        160,
        161,
        162,
        163
      ]
    }
  ],
  "textures": [
    {
      "source": 0
    },
    {
      "source": 1
    },
    {
      "source": 2
    },
    {
      "source": 3
    },
    {
      "source": 4
    },
    {
      "source": 5
    },
    {
      "source": 6
    },
    {
      "source": 7
    },
    {
      "source": 8
    },
    {
      "source": 9
    },
    {
      "source": 10
    },
    {
      "source": 11
    },
    {
      "source": 12
    },
    {
      "source": 13
    },
    {
      "source": 14
    },
    {
      "source": 15
    },
    {
      "source": 16
    },
    {
      "source": 17
    }
  ]
}
