{
  "accessors": [
    {
      "bufferView": 0,
      "componentType": 5126,
      "count": 78,
      "type": "MAT4"
    },
    {
      "bufferView": 1,
      "componentType": 5125,
      "count": 35535,
      "max": [
        9651
      ],
      "min": [
        0
      ],
      "type": "SCALAR"
    },
    {
      "bufferView": 2,
      "componentType": 5126,
      "count": 9652,
      "max": [
        39.04483413696289,
        10.205708503723145,
        13.63974380493164
      ],
      "min": [
        19.476680755615234,
        -17.86387825012207,
        -14.711702346801758
      ],
      "type": "VEC3"
    },
    {
      "bufferView": 3,
      "componentType": 5126,
      "count": 9652,
      "type": "VEC3"
    },
    {
      "bufferView": 4,
      "componentType": 5126,
      "count": 9652,
      "type": "VEC2"
    },
    {
      "bufferView": 5,
      "componentType": 5123,
      "count": 9652,
      "type": "VEC4"
    },
    {
      "bufferView": 6,
      "componentType": 5126,
      "count": 9652,
      "type": "VEC4"
    },
    {
      "bufferView": 7,
      "componentType": 5125,
      "count": 23148,
      "max": [
        6713
      ],
      "min": [
        0
      ],
      "type": "SCALAR"
    },
    {
      "bufferView": 8,
      "componentType": 5126,
      "count": 6714,
      "max": [
        37.87896728515625,
        9.418280601501465,
        14.06900691986084
      ],
      "min": [
        20.901596069335938,
        -13.70330810546875,
        -14.688824653625488
      ],
      "type": "VEC3"
    },
    {
      "bufferView": 9,
      "componentType": 5126,
      "count": 6714,
      "type": "VEC3"
    },
    {
      "bufferView": 10,
      "componentType": 5126,
      "count": 6714,
      "type": "VEC2"
    },
    {
      "bufferView": 11,
      "componentType": 5123,
      "count": 6714,
      "type": "VEC4"
    },
    {
      "bufferView": 12,
      "componentType": 5126,
      "count": 6714,
      "type": "VEC4"
    },
    {
      "bufferView": 13,
      "componentType": 5125,
      "count": 112110,
      "max": [
        18944
      ],
      "min": [
        0
      ],
      "type": "SCALAR"
    },
    {
      "bufferView": 14,
      "componentType": 5126,
      "count": 18945,
      "max": [
        45.84442138671875,
        6.047732353210449,
        9.24560260772705
      ],
      "min": [
        22.887907028198242,
        -15.351795196533203,
        -8.661466598510742
      ],
      "type": "VEC3"
    },
    {
      "bufferView": 15,
      "componentType": 5126,
      "count": 18945,
      "type": "VEC3"
    },
    {
      "bufferView": 16,
      "componentType": 5126,
      "count": 18945,
      "type": "VEC2"
    },
    {
      "bufferView": 17,
      "componentType": 5123,
      "count": 18945,
      "type": "VEC4"
    },
    {
      "bufferView": 18,
      "componentType": 5126,
      "count": 18945,
      "type": "VEC4"
    },
    {
      "bufferView": 19,
      "componentType": 5123,
      "count": 18945,
      "type": "VEC4"
    },
    {
      "bufferView": 20,
      "componentType": 5126,
      "count": 18945,
      "type": "VEC4"
    },
    {
      "bufferView": 21,
      "componentType": 5125,
      "count": 5634,
      "max": [
        1052
      ],
      "min": [
        0
      ],
      "type": "SCALAR"
    },
    {
      "bufferView": 22,
      "componentType": 5126,
      "count": 1053,
      "max": [
        47.03063201904297,
        7.096744537353516,
        8.732492446899414
      ],
      "min": [
        31.348649978637695,
        -14.452651977539063,
        -8.326179504394531
      ],
      "type": "VEC3"
    },
    {
      "bufferView": 23,
      "componentType": 5126,
      "count": 1053,
      "type": "VEC3"
    },
    {
      "bufferView": 24,
      "componentType": 5126,
      "count": 1053,
      "type": "VEC2"
    },
    {
      "bufferView": 25,
      "componentType": 5123,
      "count": 1053,
      "type": "VEC4"
    },
    {
      "bufferView": 26,
      "componentType": 5126,
      "count": 1053,
      "type": "VEC4"
    },
    {
      "bufferView": 27,
      "componentType": 5125,
      "count": 10026,
      "max": [
        2488
      ],
      "min": [
        0
      ],
      "type": "SCALAR"
    },
    {
      "bufferView": 28,
      "componentType": 5126,
      "count": 2489,
      "max": [
        47.751956939697266,
        2.44348406791687,
        11.981118202209473
      ],
      "min": [
        25.74541473388672,
        -17.520919799804688,
        -12.41811752319336
      ],
      "type": "VEC3"
    },
    {
      "bufferView": 29,
      "componentType": 5126,
      "count": 2489,
      "type": "VEC3"
    },
    {
      "bufferView": 30,
      "componentType": 5126,
      "count": 2489,
      "type": "VEC2"
    },
    {
      "bufferView": 31,
      "componentType": 5123,
      "count": 2489,
      "type": "VEC4"
    },
    {
      "bufferView": 32,
      "componentType": 5126,
      "count": 2489,
      "type": "VEC4"
    },
    {
      "bufferView": 33,
      "componentType": 5125,
      "count": 8343,
      "max": [
        1682
      ],
      "min": [
        0
      ],
      "type": "SCALAR"
    },
    {
      "bufferView": 34,
      "componentType": 5126,
      "count": 1683,
      "max": [
        29.58591079711914,
        -7.393951892852783,
        2.669520378112793
      ],
      "min": [
        27.4243221282959,
        -12.618741035461426,
        -3.2689952850341797
      ],
      "type": "VEC3"
    },
    {
      "bufferView": 35,
      "componentType": 5126,
      "count": 1683,
      "type": "VEC3"
    },
    {
      "bufferView": 36,
      "componentType": 5126,
      "count": 1683,
      "type": "VEC2"
    },
    {
      "bufferView": 37,
      "componentType": 5123,
      "count": 1683,
      "type": "VEC4"
    },
    {
      "bufferView": 38,
      "componentType": 5126,
      "count": 1683,
      "type": "VEC4"
    },
    {
      "bufferView": 39,
      "componentType": 5125,
      "count": 837,
      "max": [
        168
      ],
      "min": [
        0
      ],
      "type": "SCALAR"
    },
    {
      "bufferView": 40,
      "componentType": 5126,
      "count": 169,
      "max": [
        28.06694984436035,
        -5.552443027496338,
        1.4350892305374146
      ],
      "min": [
        25.8419246673584,
        -11.70945930480957,
        -2.207310676574707
      ],
      "type": "VEC3"
    },
    {
      "bufferView": 41,
      "componentType": 5126,
      "count": 169,
      "type": "VEC3"
    },
    {
      "bufferView": 42,
      "componentType": 5126,
      "count": 169,
      "type": "VEC2"
    },
    {
      "bufferView": 43,
      "componentType": 5123,
      "count": 169,
      "type": "VEC4"
    },
    {
      "bufferView": 44,
      "componentType": 5126,
      "count": 169,
      "type": "VEC4"
    },
    {
      "bufferView": 45,
      "componentType": 5125,
      "count": 9159,
      "max": [
        1925
      ],
      "min": [
        0
      ],
      "type": "SCALAR"
    },
    {
      "bufferView": 46,
      "componentType": 5126,
      "count": 1926,
      "max": [
        27.876461029052734,
        -7.477790832519531,
        2.849869728088379
      ],
      "min": [
        26.062891006469727,
        -12.359689712524414,
        -3.6753807067871094
      ],
      "type": "VEC3"
    },
    {
      "bufferView": 47,
      "componentType": 5126,
      "count": 1926,
      "type": "VEC3"
    },
    {
      "bufferView": 48,
      "componentType": 5126,
      "count": 1926,
      "type": "VEC2"
    },
    {
      "bufferView": 49,
      "componentType": 5123,
      "count": 1926,
      "type": "VEC4"
    },
    {
      "bufferView": 50,
      "componentType": 5126,
      "count": 1926,
      "type": "VEC4"
    },
    {
      "bufferView": 51,
      "componentType": 5125,
      "count": 1656,
      "max": [
        313
      ],
      "min": [
        0
      ],
      "type": "SCALAR"
    },
    {
      "bufferView": 52,
      "componentType": 5126,
      "count": 314,
      "max": [
        35.780941009521484,
        -10.137139320373535,
        4.635485649108887
      ],
      "min": [
        32.85233688354492,
        -12.326676368713379,
        -4.48822021484375
      ],
      "type": "VEC3"
    },
    {
      "bufferView": 53,
      "componentType": 5126,
      "count": 314,
      "type": "VEC3"
    },
    {
      "bufferView": 54,
      "componentType": 5126,
      "count": 314,
      "type": "VEC2"
    },
    {
      "bufferView": 55,
      "componentType": 5123,
      "count": 314,
      "type": "VEC4"
    },
    {
      "bufferView": 56,
      "componentType": 5126,
      "count": 314,
      "type": "VEC4"
    },
    {
      "bufferView": 57,
      "componentType": 5125,
      "count": 11544,
      "max": [
        5039
      ],
      "min": [
        0
      ],
      "type": "SCALAR"
    },
    {
      "bufferView": 58,
      "componentType": 5126,
      "count": 5040,
      "max": [
        36.321990966796875,
        -9.845073699951172,
        6.149311065673828
      ],
      "min": [
        34.59987258911133,
        -13.76933765411377,
        -5.880126476287842
      ],
      "type": "VEC3"
    },
    {
      "bufferView": 59,
      "componentType": 5126,
      "count": 5040,
      "type": "VEC3"
    },
    {
      "bufferView": 60,
      "componentType": 5126,
      "count": 5040,
      "type": "VEC2"
    },
    {
      "bufferView": 61,
      "componentType": 5123,
      "count": 5040,
      "type": "VEC4"
    },
    {
      "bufferView": 62,
      "componentType": 5126,
      "count": 5040,
      "type": "VEC4"
    },
    {
      "bufferView": 63,
      "componentType": 5123,
      "count": 5040,
      "type": "VEC4"
    },
    {
      "bufferView": 64,
      "componentType": 5126,
      "count": 5040,
      "type": "VEC4"
    },
    {
      "bufferView": 65,
      "componentType": 5125,
      "count": 2988,
      "max": [
        1065
      ],
      "min": [
        0
      ],
      "type": "SCALAR"
    },
    {
      "bufferView": 66,
      "componentType": 5126,
      "count": 1066,
      "max": [
        41.094642639160156,
        -10.101590156555176,
        -4.536445617675781
      ],
      "min": [
        37.07633590698242,
        -12.164066314697266,
        -6.253497123718262
      ],
      "type": "VEC3"
    },
    {
      "bufferView": 67,
      "componentType": 5126,
      "count": 1066,
      "type": "VEC3"
    },
    {
      "bufferView": 68,
      "componentType": 5126,
      "count": 1066,
      "type": "VEC2"
    },
    {
      "bufferView": 69,
      "componentType": 5123,
      "count": 1066,
      "type": "VEC4"
    },
    {
      "bufferView": 70,
      "componentType": 5126,
      "count": 1066,
      "type": "VEC4"
    },
    {
      "bufferView": 71,
      "componentType": 5125,
      "count": 6456,
      "max": [
        2366
      ],
      "min": [
        0
      ],
      "type": "SCALAR"
    },
    {
      "bufferView": 72,
      "componentType": 5126,
      "count": 2367,
      "max": [
        34.90207290649414,
        -11.450340270996094,
        5.046940326690674
      ],
      "min": [
        33.2435188293457,
        -13.037866592407227,
        -5.008929252624512
      ],
      "type": "VEC3"
    },
    {
      "bufferView": 73,
      "componentType": 5126,
      "count": 2367,
      "type": "VEC3"
    },
    {
      "bufferView": 74,
      "componentType": 5126,
      "count": 2367,
      "type": "VEC2"
    },
    {
      "bufferView": 75,
      "componentType": 5123,
      "count": 2367,
      "type": "VEC4"
    },
    {
      "bufferView": 76,
      "componentType": 5126,
      "count": 2367,
      "type": "VEC4"
    },
    {
      "bufferView": 77,
      "componentType": 5123,
      "count": 2367,
      "type": "VEC4"
    },
    {
      "bufferView": 78,
      "componentType": 5126,
      "count": 2367,
      "type": "VEC4"
    }
  ],
  "asset": {
    "generator": "Greyhound",
    "version": "2.0"
  },
  "bufferViews": [
    {
      "buffer": 0,
      "byteLength": 4992
    },
    {
      "buffer": 0,
      "byteLength": 142140,
      "byteOffset": 4992,
      "target": 34963
    },
    {
      "buffer": 0,
      "byteLength": 115824,
      "byteOffset": 147132,
      "target": 34962
    },
    {
      "buffer": 0,
      "byteLength": 115824,
      "byteOffset": 262956,
      "target": 34962
    },
    {
      "buffer": 0,
      "byteLength": 77216,
      "byteOffset": 378780,
      "target": 34962
    },
    {
      "buffer": 0,
      "byteLength": 77216,
      "byteOffset": 455996,
      "target": 34962
    },
    {
      "buffer": 0,
      "byteLength": 154432,
      "byteOffset": 533212,
      "target": 34962
    },
    {
      "buffer": 0,
      "byteLength": 92592,
      "byteOffset": 687644,
      "target": 34963
    },
    {
      "buffer": 0,
      "byteLength": 80568,
      "byteOffset": 780236,
      "target": 34962
    },
    {
      "buffer": 0,
      "byteLength": 80568,
      "byteOffset": 860804,
      "target": 34962
    },
    {
      "buffer": 0,
      "byteLength": 53712,
      "byteOffset": 941372,
      "target": 34962
    },
    {
      "buffer": 0,
      "byteLength": 53712,
      "byteOffset": 995084,
      "target": 34962
    },
    {
      "buffer": 0,
      "byteLength": 107424,
      "byteOffset": 1048796,
      "target": 34962
    },
    {
      "buffer": 0,
      "byteLength": 448440,
      "byteOffset": 1156220,
      "target": 34963
    },
    {
      "buffer": 0,
      "byteLength": 227340,
      "byteOffset": 1604660,
      "target": 34962
    },
    {
      "buffer": 0,
      "byteLength": 227340,
      "byteOffset": 1832000,
      "target": 34962
    },
    {
      "buffer": 0,
      "byteLength": 151560,
      "byteOffset": 2059340,
      "target": 34962
    },
    {
      "buffer": 0,
      "byteLength": 151560,
      "byteOffset": 2210900,
      "target": 34962
    },
    {
      "buffer": 0,
      "byteLength": 303120,
      "byteOffset": 2362460,
      "target": 34962
    },
    {
      "buffer": 0,
      "byteLength": 151560,
      "byteOffset": 2665580,
      "target": 34962
    },
    {
      "buffer": 0,
      "byteLength": 303120,
      "byteOffset": 2817140,
      "target": 34962
    },
    {
      "buffer": 0,
      "byteLength": 22536,
      "byteOffset": 3120260,
      "target": 34963
    },
    {
      "buffer": 0,
      "byteLength": 12636,
      "byteOffset": 3142796,
      "target": 34962
    },
    {
      "buffer": 0,
      "byteLength": 12636,
      "byteOffset": 3155432,
      "target": 34962
    },
    {
      "buffer": 0,
      "byteLength": 8424,
      "byteOffset": 3168068,
      "target": 34962
    },
    {
      "buffer": 0,
      "byteLength": 8424,
      "byteOffset": 3176492,
      "target": 34962
    },
    {
      "buffer": 0,
      "byteLength": 16848,
      "byteOffset": 3184916,
      "target": 34962
    },
    {
      "buffer": 0,
      "byteLength": 40104,
      "byteOffset": 3201764,
      "target": 34963
    },
    {
      "buffer": 0,
      "byteLength": 29868,
      "byteOffset": 3241868,
      "target": 34962
    },
    {
      "buffer": 0,
      "byteLength": 29868,
      "byteOffset": 3271736,
      "target": 34962
    },
    {
      "buffer": 0,
      "byteLength": 19912,
      "byteOffset": 3301604,
      "target": 34962
    },
    {
      "buffer": 0,
      "byteLength": 19912,
      "byteOffset": 3321516,
      "target": 34962
    },
    {
      "buffer": 0,
      "byteLength": 39824,
      "byteOffset": 3341428,
      "target": 34962
    },
    {
      "buffer": 0,
      "byteLength": 33372,
      "byteOffset": 3381252,
      "target": 34963
    },
    {
      "buffer": 0,
      "byteLength": 20196,
      "byteOffset": 3414624,
      "target": 34962
    },
    {
      "buffer": 0,
      "byteLength": 20196,
      "byteOffset": 3434820,
      "target": 34962
    },
    {
      "buffer": 0,
      "byteLength": 13464,
      "byteOffset": 3455016,
      "target": 34962
    },
    {
      "buffer": 0,
      "byteLength": 13464,
      "byteOffset": 3468480,
      "target": 34962
    },
    {
      "buffer": 0,
      "byteLength": 26928,
      "byteOffset": 3481944,
      "target": 34962
    },
    {
      "buffer": 0,
      "byteLength": 3348,
      "byteOffset": 3508872,
      "target": 34963
    },
    {
      "buffer": 0,
      "byteLength": 2028,
      "byteOffset": 3512220,
      "target": 34962
    },
    {
      "buffer": 0,
      "byteLength": 2028,
      "byteOffset": 3514248,
      "target": 34962
    },
    {
      "buffer": 0,
      "byteLength": 1352,
      "byteOffset": 3516276,
      "target": 34962
    },
    {
      "buffer": 0,
      "byteLength": 1352,
      "byteOffset": 3517628,
      "target": 34962
    },
    {
      "buffer": 0,
      "byteLength": 2704,
      "byteOffset": 3518980,
      "target": 34962
    },
    {
      "buffer": 0,
      "byteLength": 36636,
      "byteOffset": 3521684,
      "target": 34963
    },
    {
      "buffer": 0,
      "byteLength": 23112,
      "byteOffset": 3558320,
      "target": 34962
    },
    {
      "buffer": 0,
      "byteLength": 23112,
      "byteOffset": 3581432,
      "target": 34962
    },
    {
      "buffer": 0,
      "byteLength": 15408,
      "byteOffset": 3604544,
      "target": 34962
    },
    {
      "buffer": 0,
      "byteLength": 15408,
      "byteOffset": 3619952,
      "target": 34962
    },
    {
      "buffer": 0,
      "byteLength": 30816,
      "byteOffset": 3635360,
      "target": 34962
    },
    {
      "buffer": 0,
      "byteLength": 6624,
      "byteOffset": 3666176,
      "target": 34963
    },
    {
      "buffer": 0,
      "byteLength": 3768,
      "byteOffset": 3672800,
      "target": 34962
    },
    {
      "buffer": 0,
      "byteLength": 3768,
      "byteOffset": 3676568,
      "target": 34962
    },
    {
      "buffer": 0,
      "byteLength": 2512,
      "byteOffset": 3680336,
      "target": 34962
    },
    {
      "buffer": 0,
      "byteLength": 2512,
      "byteOffset": 3682848,
      "target": 34962
    },
    {
      "buffer": 0,
      "byteLength": 5024,
      "byteOffset": 3685360,
      "target": 34962
    },
    {
      "buffer": 0,
      "byteLength": 46176,
      "byteOffset": 3690384,
      "target": 34963
    },
    {
      "buffer": 0,
      "byteLength": 60480,
      "byteOffset": 3736560,
      "target": 34962
    },
    {
      "buffer": 0,
      "byteLength": 60480,
      "byteOffset": 3797040,
      "target": 34962
    },
    {
      "buffer": 0,
      "byteLength": 40320,
      "byteOffset": 3857520,
      "target": 34962
    },
    {
      "buffer": 0,
      "byteLength": 40320,
      "byteOffset": 3897840,
      "target": 34962
    },
    {
      "buffer": 0,
      "byteLength": 80640,
      "byteOffset": 3938160,
      "target": 34962
    },
    {
      "buffer": 0,
      "byteLength": 40320,
      "byteOffset": 4018800,
      "target": 34962
    },
    {
      "buffer": 0,
      "byteLength": 80640,
      "byteOffset": 4059120,
      "target": 34962
    },
    {
      "buffer": 0,
      "byteLength": 11952,
      "byteOffset": 4139760,
      "target": 34963
    },
    {
      "buffer": 0,
      "byteLength": 12792,
      "byteOffset": 4151712,
      "target": 34962
    },
    {
      "buffer": 0,
      "byteLength": 12792,
      "byteOffset": 4164504,
      "target": 34962
    },
    {
      "buffer": 0,
      "byteLength": 8528,
      "byteOffset": 4177296,
      "target": 34962
    },
    {
      "buffer": 0,
      "byteLength": 8528,
      "byteOffset": 4185824,
      "target": 34962
    },
    {
      "buffer": 0,
      "byteLength": 17056,
      "byteOffset": 4194352,
      "target": 34962
    },
    {
      "buffer": 0,
      "byteLength": 25824,
      "byteOffset": 4211408,
      "target": 34963
    },
    {
      "buffer": 0,
      "byteLength": 28404,
      "byteOffset": 4237232,
      "target": 34962
    },
    {
      "buffer": 0,
      "byteLength": 28404,
      "byteOffset": 4265636,
      "target": 34962
    },
    {
      "buffer": 0,
      "byteLength": 18936,
      "byteOffset": 4294040,
      "target": 34962
    },
    {
      "buffer": 0,
      "byteLength": 18936,
      "byteOffset": 4312976,
      "target": 34962
    },
    {
      "buffer": 0,
      "byteLength": 37872,
      "byteOffset": 4331912,
      "target": 34962
    },
    {
      "buffer": 0,
      "byteLength": 18936,
      "byteOffset": 4369784,
      "target": 34962
    },
    {
      "buffer": 0,
      "byteLength": 37872,
      "byteOffset": 4388720,
      "target": 34962
    }
  ],
  "buffers": [
    {
      "byteLength": 4426592,
      "uri": "head_mp_kleo_iw9_3_1_lod1_LOD0.bin"
    }
  ],
  "images": [
    {
      "uri": "_images\\\\xmaterial_1dd6d8e8bcfe67ad\\\\ximage_3161bdbffb442388.dds"
    },
    {
      "uri": "_images\\\\xmaterial_d7957ec0c2b603d\\\\ximage_62d334ae29df8837.dds"
    },
    {
      "uri": "_images\\\\xmaterial_2a2c60685ba942c4\\\\ximage_2253e7408dc83a66.dds"
    },
    {
      "uri": "_images\\\\xmaterial_730d6774a0200f07\\\\ximage_69eda2f98ad2e571.dds"
    },
    {
      "uri": "_images\\\\xmaterial_76e00fc4c54e68d\\\\ximage_6b4801e195b8e78.dds"
    },
    {
      "uri": "_images\\\\xmaterial_298f87ca16d723eb\\\\ximage_58e8e491c8206e1d.dds"
    },
    {
      "uri": "_images\\\\xmaterial_517bd4e2087a83af\\\\ximage_6eed5fe746ec8f32.dds"
    },
    {
      "uri": "_images\\\\xmaterial_1f51ab727b6ab022\\\\ximage_40ee44fe90cc4855.dds"
    },
    {
      "uri": "_images\\\\xmaterial_5f9d5edef5297c41\\\\ximage_4574854c235cd28.dds"
    }
  ],
  "materials": [
    {
      "name": "xmaterial_1dd6d8e8bcfe67ad",
      "pbrMetallicRoughness": {
        "baseColorTexture": {
          "index": 0
        },
        "metallicFactor": 0.0,
        "roughnessFactor": 0.75
      }
    },
    {
      "name": "xmaterial_d7957ec0c2b603d",
      "pbrMetallicRoughness": {
        "baseColorTexture": {
          "index": 1
        },
        "metallicFactor": 0.0,
        "roughnessFactor": 0.75
      }
    },
    {
      "name": "xmaterial_2a2c60685ba942c4",
      "pbrMetallicRoughness": {
        "baseColorTexture": {
          "index": 2
        },
        "metallicFactor": 0.0,
        "roughnessFactor": 0.75
      }
    },
    {
      "name": "xmaterial_730d6774a0200f07",
      "pbrMetallicRoughness": {
        "baseColorTexture": {
          "index": 3
        },
        "metallicFactor": 0.0,
        "roughnessFactor": 0.75
      }
    },
    {
      "name": "xmaterial_76e00fc4c54e68d",
      "pbrMetallicRoughness": {
        "baseColorTexture": {
          "index": 4
        },
        "metallicFactor": 0.0,
        "roughnessFactor": 0.75
      }
    },
    {
      "name": "xmaterial_298f87ca16d723eb",
      "pbrMetallicRoughness": {
        "baseColorTexture": {
          "index": 5
        },
        "metallicFactor": 0.0,
        "roughnessFactor": 0.75
      }
    },
    {
      "name": "xmaterial_517bd4e2087a83af",
      "pbrMetallicRoughness": {
        "baseColorTexture": {
          "index": 6
        },
        "metallicFactor": 0.0,
        "roughnessFactor": 0.75
      }
    },
    {
      "name": "xmaterial_1f51ab727b6ab022",
      "pbrMetallicRoughness": {
        "baseColorTexture": {
          "index": 7
        },
        "metallicFactor": 0.0,
        "roughnessFactor": 0.75
      }
    },
    {
      "name": "xmaterial_5f9d5edef5297c41",
      "pbrMetallicRoughness": {
        "baseColorTexture": {
          "index": 8
        },
        "metallicFactor": 0.0,
        "roughnessFactor": 0.75
      }
    }
  ],
  "meshes": [
    {
      "primitives": [
        {
          "attributes": {
            "JOINTS_0": 5,
            "NORMAL": 3,
            "POSITION": 2,
            "TEXCOORD_0": 4,
            "WEIGHTS_0": 6
          },
          "indices": 1,
          "material": 0,
          "mode": 4
        }
      ]
    },
    {
      "primitives": [
        {
          "attributes": {
            "JOINTS_0": 11,
            "NORMAL": 9,
            "POSITION": 8,
            "TEXCOORD_0": 10,
            "WEIGHTS_0": 12
          },
          "indices": 7,
          "material": 0,
          "mode": 4
        }
      ]
    },
    {
      "primitives": [
        {
          "attributes": {
            "JOINTS_0": 17,
            "JOINTS_1": 19,
            "NORMAL": 15,
            "POSITION": 14,
            "TEXCOORD_0": 16,
            "WEIGHTS_0": 18,
            "WEIGHTS_1": 20
          },
          "indices": 13,
          "material": 1,
          "mode": 4
        }
      ]
    },
    {
      "primitives": [
        {
          "attributes": {
            "JOINTS_0": 25,
            "NORMAL": 23,
            "POSITION": 22,
            "TEXCOORD_0": 24,
            "WEIGHTS_0": 26
          },
          "indices": 21,
          "material": 2,
          "mode": 4
        }
      ]
    },
    {
      "primitives": [
        {
          "attributes": {
            "JOINTS_0": 31,
            "NORMAL": 29,
            "POSITION": 28,
            "TEXCOORD_0": 30,
            "WEIGHTS_0": 32
          },
          "indices": 27,
          "material": 3,
          "mode": 4
        }
      ]
    },
    {
      "primitives": [
        {
          "attributes": {
            "JOINTS_0": 37,
            "NORMAL": 35,
            "POSITION": 34,
            "TEXCOORD_0": 36,
            "WEIGHTS_0": 38
          },
          "indices": 33,
          "material": 4,
          "mode": 4
        }
      ]
    },
    {
      "primitives": [
        {
          "attributes": {
            "JOINTS_0": 43,
            "NORMAL": 41,
            "POSITION": 40,
            "TEXCOORD_0": 42,
            "WEIGHTS_0": 44
          },
          "indices": 39,
          "material": 4,
          "mode": 4
        }
      ]
    },
    {
      "primitives": [
        {
          "attributes": {
            "JOINTS_0": 49,
            "NORMAL": 47,
            "POSITION": 46,
            "TEXCOORD_0": 48,
            "WEIGHTS_0": 50
          },
          "indices": 45,
          "material": 4,
          "mode": 4
        }
      ]
    },
    {
      "primitives": [
        {
          "attributes": {
            "JOINTS_0": 55,
            "NORMAL": 53,
            "POSITION": 52,
            "TEXCOORD_0": 54,
            "WEIGHTS_0": 56
          },
          "indices": 51,
          "material": 5,
          "mode": 4
        }
      ]
    },
    {
      "primitives": [
        {
          "attributes": {
            "JOINTS_0": 61,
            "JOINTS_1": 63,
            "NORMAL": 59,
            "POSITION": 58,
            "TEXCOORD_0": 60,
            "WEIGHTS_0": 62,
            "WEIGHTS_1": 64
          },
          "indices": 57,
          "material": 6,
          "mode": 4
        }
      ]
    },
    {
      "primitives": [
        {
          "attributes": {
            "JOINTS_0": 69,
            "NORMAL": 67,
            "POSITION": 66,
            "TEXCOORD_0": 68,
            "WEIGHTS_0": 70
          },
          "indices": 65,
          "material": 7,
          "mode": 4
        }
      ]
    },
    {
      "primitives": [
        {
          "attributes": {
            "JOINTS_0": 75,
            "JOINTS_1": 77,
            "NORMAL": 73,
            "POSITION": 72,
            "TEXCOORD_0": 74,
            "WEIGHTS_0": 76,
            "WEIGHTS_1": 78
          },
          "indices": 71,
          "material": 8,
          "mode": 4
        }
      ]
    }
  ],
  "nodes": [
    {
      "children": [
        1,
        2,
        3,
        8
      ],
      "name": "j_spine4",
      "rotation": [
        0.0,
        0.0,
        0.0,
        1.0
      ],
      "translation": [
        0.0,
        0.0,
        0.0
      ]
    },
    {
      "name": "j_clavicle_le",
      "rotation": [
        -0.007537841796875,
        0.70367431640625,
        -0.007598876953125,
        0.71038818359375
      ],
      "translation": [
        8.559797286987305,
        -0.4546600580215454,
        -5.245100021362305
      ]
    },
    {
      "name": "j_clavicle_ri",
      "rotation": [
        0.007537841796875,
        -0.70367431640625,
        -0.007598876953125,
        0.71038818359375
      ],
      "translation": [
        8.559797286987305,
        -0.4546600580215454,
        5.245100021362305
      ]
    },
    {
      "children": [
        4
      ],
      "name": "j_neck",
      "rotation": [
        0.0,
        0.0,
        -0.146514892578125,
        0.989166259765625
      ],
      "translation": [
        18.199092864990234,
        0.0,
        0.0
      ]
    },
    {
      "children": [
        5,
        7,
        9,
        10,
        11,
        12,
        13,
        14,
        15,
        16,
        17,
        18,
        19,
        20,
        21,
        22,
        23,
        24,
        25,
        26,
        27,
        28,
        29,
        30,
        31,
        32,
        33,
        34,
        35,
        36,
        37,
        38,
        39,
        40,
        41,
        42,
        43,
        44,
        45,
        46,
        47,
        48,
        49,
        50,
        51,
        52,
        53,
        54,
        55,
        56,
        57,
        58,
        59,
        60,
        61,
        62,
        63,
        64,
        65,
        66,
        67,
        68,
        69,
        70,
        73,
        74,
        76,
        77
      ],
      "name": "j_head",
      "rotation": [
        0.0,
        0.0,
        0.146514892578125,
        0.989166259765625
      ],
      "translation": [
        8.367918968200684,
        8.235931454692036e-05,
        0.0
      ]
    },
    {
      "children": [
        6,
        71,
        72
      ],
      "name": "j_helmet",
      "rotation": [
        0.0,
        0.0,
        0.0,
        0.999969482421875
      ],
      "translation": [
        20.19552993774414,
        1.6891000270843506,
        0.0
      ]
    },
    {
      "name": "tag_helmetlight",
      "rotation": [
        -0.499969482421875,
        0.5,
        -0.499969482421875,
        0.5
      ],
      "translation": [
        -9.720569610595703,
        -14.848840713500977,
        0.0
      ]
    },
    {
      "name": "tag_eye",
      "rotation": [
        -0.499969482421875,
        0.5,
        -0.499969482421875,
        0.5
      ],
      "translation": [
        8.107664108276367,
        -8.191499710083008,
        0.0736599937081337
      ]
    },
    {
      "name": "j_proc_spine4",
      "rotation": [
        0.0,
        0.0,
        0.0,
        0.999969482421875
      ],
      "translation": [
        0.0,
        0.0,
        0.0
      ]
    },
    {
      "name": "bone_17e650ba",
      "rotation": [
        0.0,
        0.70709228515625,
        0.0,
        0.70709228515625
      ],
      "translation": [
        -0.39625486731529236,
        -10.48512077331543,
        -0.2184400111436844
      ]
    },
    {
      "name": "j_brow_le_1",
      "rotation": [
        0.0,
        0.70709228515625,
        0.0,
        0.70709228515625
      ],
      "translation": [
        9.230347633361816,
        -10.995659828186035,
        -2.1005799770355225
      ]
    },
    {
      "name": "j_brow_le_2",
      "rotation": [
        0.0,
        0.70709228515625,
        0.0,
        0.70709228515625
      ],
      "translation": [
        9.6011962890625,
        -10.0964994430542,
        -4.175760269165039
      ]
    },
    {
      "name": "j_brow_ri_1",
      "rotation": [
        0.0,
        0.70709228515625,
        0.0,
        0.70709228515625
      ],
      "translation": [
        9.456418991088867,
        -10.104119300842285,
        4.429759979248047
      ]
    },
    {
      "name": "j_brow_ri_2",
      "rotation": [
        0.0,
        0.70709228515625,
        0.0,
        0.70709228515625
      ],
      "translation": [
        9.0525484085083,
        -10.94994068145752,
        2.2834599018096924
      ]
    },
    {
      "name": "j_cheek_le_3",
      "rotation": [
        0.0,
        0.70709228515625,
        0.0,
        0.70709228515625
      ],
      "translation": [
        5.496544361114502,
        -7.851140022277832,
        -5.847080230712891
      ]
    },
    {
      "name": "j_cheek_puff_le",
      "rotation": [
        0.0,
        0.70709228515625,
        0.0,
        0.70709228515625
      ],
      "translation": [
        2.6542952060699463,
        -6.95959997177124,
        -5.7657999992370605
      ]
    },
    {
      "name": "j_cheek_puff_le_2",
      "rotation": [
        0.0,
        0.70709228515625,
        0.0,
        0.70709228515625
      ],
      "translation": [
        0.5333976745605469,
        -7.79017972946167,
        -4.472939968109131
      ]
    },
    {
      "name": "j_cheek_puff_le_3",
      "rotation": [
        0.0,
        0.70709228515625,
        0.0,
        0.70709228515625
      ],
      "translation": [
        2.7685906887054443,
        -8.978899955749512,
        -4.556759834289551
      ]
    },
    {
      "name": "j_cheek_puff_ri",
      "rotation": [
        0.0,
        0.70709228515625,
        0.0,
        0.70709228515625
      ],
      "translation": [
        2.8498647212982178,
        -6.91387939453125,
        5.6514997482299805
      ]
    },
    {
      "name": "j_cheek_puff_ri_2",
      "rotation": [
        0.0,
        0.70709228515625,
        0.0,
        0.70709228515625
      ],
      "translation": [
        0.6680212020874023,
        -7.785099983215332,
        4.414519786834717
      ]
    },
    {
      "name": "j_cheek_puff_ri_3",
      "rotation": [
        0.0,
        0.70709228515625,
        0.0,
        0.70709228515625
      ],
      "translation": [
        2.890521287918091,
        -8.760459899902344,
        4.622799873352051
      ]
    },
    {
      "name": "j_cheek_ri_3",
      "rotation": [
        0.0,
        0.70709228515625,
        0.0,
        0.70709228515625
      ],
      "translation": [
        5.466081142425537,
        -7.675879955291748,
        5.9283599853515625
      ]
    },
    {
      "name": "j_chin",
      "rotation": [
        0.0,
        0.70709228515625,
        0.0,
        0.70709228515625
      ],
      "translation": [
        -1.7170463800430298,
        -10.32763957977295,
        -0.3606800138950348
      ]
    },
    {
      "name": "j_eye_lid_bot_le",
      "rotation": [
        0.0,
        0.70709228515625,
        0.0,
        0.70709228515625
      ],
      "translation": [
        7.404102325439453,
        -9.766300201416016,
        -3.286760091781616
      ]
    },
    {
      "name": "j_eye_lid_bot_ri",
      "rotation": [
        0.0,
        0.70709228515625,
        0.0,
        0.70709228515625
      ],
      "translation": [
        7.350752830505371,
        -9.687559127807617,
        3.441699981689453
      ]
    },
    {
      "name": "j_eye_lid_top_le_1",
      "rotation": [
        0.0,
        0.70709228515625,
        0.0,
        0.70709228515625
      ],
      "translation": [
        8.844265937805176,
        -10.045700073242188,
        -3.535679817199707
      ]
    },
    {
      "name": "j_eye_lid_top_le_2",
      "rotation": [
        0.0,
        0.70709228515625,
        0.0,
        0.70709228515625
      ],
      "translation": [
        8.65377426147461,
        -9.174479484558105,
        -4.907279968261719
      ]
    },
    {
      "name": "j_eye_lid_top_ri_1",
      "rotation": [
        0.0,
        0.70709228515625,
        0.0,
        0.70709228515625
      ],
      "translation": [
        8.577576637268066,
        -10.139679908752441,
        3.761739730834961
      ]
    },
    {
      "name": "j_eye_lid_top_ri_2",
      "rotation": [
        0.0,
        0.70709228515625,
        0.0,
        0.70709228515625
      ],
      "translation": [
        8.514073371887207,
        -9.33195972442627,
        4.960619926452637
      ]
    },
    {
      "name": "j_eyeball_le",
      "rotation": [
        0.0,
        0.70709228515625,
        0.0,
        0.70709228515625
      ],
      "translation": [
        8.13053035736084,
        -8.211819648742676,
        -3.0454599857330322
      ]
    },
    {
      "name": "j_eyeball_ri",
      "rotation": [
        0.0,
        0.70709228515625,
        0.0,
        0.70709228515625
      ],
      "translation": [
        8.08735466003418,
        -8.16864013671875,
        3.192779779434204
      ]
    },
    {
      "name": "j_eyelash_bot_le_1",
      "rotation": [
        0.0,
        0.70709228515625,
        0.0,
        0.70709228515625
      ],
      "translation": [
        7.553957462310791,
        -9.420859336853027,
        -4.043680191040039
      ]
    },
    {
      "name": "j_eyelash_bot_le_2",
      "rotation": [
        0.0,
        0.70709228515625,
        0.0,
        0.70709228515625
      ],
      "translation": [
        7.485376358032227,
        -9.771379470825195,
        -2.5653998851776123
      ]
    },
    {
      "name": "j_eyelash_bot_ri_1",
      "rotation": [
        0.0,
        0.70709228515625,
        0.0,
        0.70709228515625
      ],
      "translation": [
        7.457432270050049,
        -9.687559127807617,
        2.7381198406219482
      ]
    },
    {
      "name": "j_eyelash_bot_ri_2",
      "rotation": [
        0.0,
        0.70709228515625,
        0.0,
        0.70709228515625
      ],
      "translation": [
        7.538706302642822,
        -9.314180374145508,
        4.274819850921631
      ]
    },
    {
      "name": "j_eyelash_top_le_1",
      "rotation": [
        0.0,
        0.70709228515625,
        0.0,
        0.70709228515625
      ],
      "translation": [
        8.011157989501953,
        -9.23036003112793,
        -4.297679901123047
      ]
    },
    {
      "name": "j_eyelash_top_le_4",
      "rotation": [
        0.0,
        0.70709228515625,
        0.0,
        0.70709228515625
      ],
      "translation": [
        8.221978187561035,
        -9.687559127807617,
        -3.936999797821045
      ]
    },
    {
      "name": "j_eyelash_top_le",
      "rotation": [
        0.0,
        0.70709228515625,
        0.0,
        0.70709228515625
      ],
      "translation": [
        8.407393455505371,
        -10.015219688415527,
        -3.340100049972534
      ]
    },
    {
      "name": "j_eyelash_top_le_2",
      "rotation": [
        0.0,
        0.70709228515625,
        0.0,
        0.70709228515625
      ],
      "translation": [
        8.313406944274902,
        -9.870439529418945,
        -2.5323798656463623
      ]
    },
    {
      "name": "j_eyelash_top_le_5",
      "rotation": [
        0.0,
        0.70709228515625,
        0.0,
        0.70709228515625
      ],
      "translation": [
        8.05179500579834,
        -9.537699699401855,
        -2.0421600341796875
      ]
    },
    {
      "name": "j_eyelash_top_ri_2",
      "rotation": [
        0.0,
        0.70709228515625,
        0.0,
        0.70709228515625
      ],
      "translation": [
        8.079739570617676,
        -9.227819442749023,
        4.452620029449463
      ]
    },
    {
      "name": "j_eyelash_top_ri_1",
      "rotation": [
        0.0,
        0.70709228515625,
        0.0,
        0.70709228515625
      ],
      "translation": [
        8.310868263244629,
        -9.776459693908691,
        2.6314399242401123
      ]
    },
    {
      "name": "j_eyelash_top_ri",
      "rotation": [
        0.0,
        0.70709228515625,
        0.0,
        0.70709228515625
      ],
      "translation": [
        8.432799339294434,
        -9.918700218200684,
        3.307080030441284
      ]
    },
    {
      "name": "j_eyelash_top_ri_4",
      "rotation": [
        0.0,
        0.70709228515625,
        0.0,
        0.70709228515625
      ],
      "translation": [
        8.277847290039063,
        -9.649459838867188,
        4.064000129699707
      ]
    },
    {
      "name": "j_eyelash_top_ri_5",
      "rotation": [
        0.0,
        0.70709228515625,
        0.0,
        0.70709228515625
      ],
      "translation": [
        8.000984191894531,
        -9.43355941772461,
        2.1310598850250244
      ]
    },
    {
      "name": "j_furrow_ri",
      "rotation": [
        0.0,
        0.70709228515625,
        0.0,
        0.70709228515625
      ],
      "translation": [
        8.895076751708984,
        -11.074399948120117,
        0.8280400037765503
      ]
    },
    {
      "name": "j_jaw",
      "rotation": [
        0.0,
        0.70709228515625,
        0.0,
        0.70709228515625
      ],
      "translation": [
        1.3106369972229004,
        -1.4452600479125977,
        0.0
      ]
    },
    {
      "name": "j_jaw_le_1",
      "rotation": [
        0.0,
        0.70709228515625,
        0.0,
        0.70709228515625
      ],
      "translation": [
        -0.38861969113349915,
        -4.498340129852295,
        -5.019039630889893
      ]
    },
    {
      "name": "j_jaw_ri_1",
      "rotation": [
        0.0,
        0.70709228515625,
        0.0,
        0.70709228515625
      ],
      "translation": [
        -0.33782821893692017,
        -4.483099937438965,
        4.884419918060303
      ]
    },
    {
      "name": "j_levator_le_1",
      "rotation": [
        0.0,
        0.70709228515625,
        0.0,
        0.70709228515625
      ],
      "translation": [
        4.538967132568359,
        -10.85088062286377,
        -1.8872199058532715
      ]
    },
    {
      "name": "j_levator_ri_1",
      "rotation": [
        0.0,
        0.70709228515625,
        0.0,
        0.70709228515625
      ],
      "translation": [
        4.447538375854492,
        -10.911839485168457,
        1.8389599323272705
      ]
    },
    {
      "name": "j_lip_bot",
      "rotation": [
        0.0,
        0.70709228515625,
        0.0,
        0.70709228515625
      ],
      "translation": [
        1.0896621942520142,
        -11.0871000289917,
        -0.16764000058174133
      ]
    },
    {
      "name": "j_lip_bot_le_1",
      "rotation": [
        0.0,
        0.70709228515625,
        0.0,
        0.70709228515625
      ],
      "translation": [
        1.176013469696045,
        -10.939780235290527,
        -1.0058399438858032
      ]
    },
    {
      "name": "j_lip_bot_le_2",
      "rotation": [
        0.0,
        0.70709228515625,
        0.0,
        0.70709228515625
      ],
      "translation": [
        1.2293435335159302,
        -10.411459922790527,
        -1.7602200508117676
      ]
    },
    {
      "name": "j_lip_bot_ri_1",
      "rotation": [
        0.0,
        0.70709228515625,
        0.0,
        0.70709228515625
      ],
      "translation": [
        1.1048938035964966,
        -10.896600723266602,
        0.9118599891662598
      ]
    },
    {
      "name": "j_lip_bot_ri_2",
      "rotation": [
        0.0,
        0.70709228515625,
        0.0,
        0.70709228515625
      ],
      "translation": [
        1.071872591972351,
        -10.266680717468262,
        1.747520089149475
      ]
    },
    {
      "name": "j_lip_top",
      "rotation": [
        0.0,
        0.70709228515625,
        0.0,
        0.70709228515625
      ],
      "translation": [
        1.4630308151245117,
        -11.295379638671875,
        -0.1803400069475174
      ]
    },
    {
      "name": "j_lip_top_le_2",
      "rotation": [
        0.0,
        0.70709228515625,
        0.0,
        0.70709228515625
      ],
      "translation": [
        1.4833590984344482,
        -10.58418083190918,
        -1.798319935798645
      ]
    },
    {
      "name": "j_lip_top_ri_2",
      "rotation": [
        0.0,
        0.70709228515625,
        0.0,
        0.70709228515625
      ],
      "translation": [
        1.5062065124511719,
        -10.8229398727417,
        1.3055599927902222
      ]
    },
    {
      "name": "j_mouthcorner_le",
      "rotation": [
        0.0,
        0.70709228515625,
        0.0,
        0.70709228515625
      ],
      "translation": [
        1.4274710416793823,
        -9.425939559936523,
        -2.4790399074554443
      ]
    },
    {
      "name": "j_mouthcorner_ri",
      "rotation": [
        0.0,
        0.70709228515625,
        0.0,
        0.70709228515625
      ],
      "translation": [
        1.2293435335159302,
        -9.667240142822266,
        2.3241000175476074
      ]
    },
    {
      "name": "j_nasolabial_le_3",
      "rotation": [
        0.0,
        0.70709228515625,
        0.0,
        0.70709228515625
      ],
      "translation": [
        0.005077209323644638,
        -8.99668025970459,
        -3.218179941177368
      ]
    },
    {
      "name": "j_nasolabial_le_5",
      "rotation": [
        0.0,
        0.70709228515625,
        0.0,
        0.70709228515625
      ],
      "translation": [
        1.155685305595398,
        -9.537699699401855,
        -2.997199773788452
      ]
    },
    {
      "name": "j_nasolabial_le_6",
      "rotation": [
        0.0,
        0.70709228515625,
        0.0,
        0.70709228515625
      ],
      "translation": [
        0.3276544213294983,
        -10.32763957977295,
        -1.8491199016571045
      ]
    },
    {
      "name": "j_nasolabial_ri_3",
      "rotation": [
        0.0,
        0.70709228515625,
        0.0,
        0.70709228515625
      ],
      "translation": [
        -0.30480697751045227,
        -9.039859771728516,
        2.9133799076080322
      ]
    },
    {
      "name": "j_nasolabial_ri_5",
      "rotation": [
        0.0,
        0.70709228515625,
        0.0,
        0.70709228515625
      ],
      "translation": [
        1.0109072923660278,
        -9.692639350891113,
        2.8651199340820313
      ]
    },
    {
      "name": "j_nasolabial_ri_6",
      "rotation": [
        0.0,
        0.70709228515625,
        0.0,
        0.70709228515625
      ],
      "translation": [
        0.1397007703781128,
        -10.429239273071289,
        1.4477999210357666
      ]
    },
    {
      "name": "j_periorbital_le_2",
      "rotation": [
        0.0,
        0.70709228515625,
        0.0,
        0.70709228515625
      ],
      "translation": [
        6.530337810516357,
        -9.392919540405273,
        -3.649980068206787
      ]
    },
    {
      "name": "j_periorbital_ri_2",
      "rotation": [
        0.0,
        0.70709228515625,
        0.0,
        0.70709228515625
      ],
      "translation": [
        6.515086650848389,
        -9.304019927978516,
        3.863339900970459
      ]
    },
    {
      "name": "j_upperforehead_le_1",
      "rotation": [
        0.0,
        0.70709228515625,
        0.0,
        0.70709228515625
      ],
      "translation": [
        10.718783378601074,
        -8.328660011291504,
        -5.415279865264893
      ]
    },
    {
      "name": "j_upperforehead_ri_1",
      "rotation": [
        0.0,
        0.70709228515625,
        0.0,
        0.70709228515625
      ],
      "translation": [
        10.84579086303711,
        -8.63346004486084,
        5.468620300292969
      ]
    },
    {
      "name": "j_visor",
      "rotation": [
        0.0,
        0.0,
        0.0,
        0.999969482421875
      ],
      "translation": [
        -14.368773460388184,
        -2.3799800872802734,
        0.0
      ]
    },
    {
      "name": "j_visor_inner",
      "rotation": [
        0.0,
        0.0,
        0.0,
        0.999969482421875
      ],
      "translation": [
        -14.117316246032715,
        1.0922000408172607,
        0.0
      ]
    },
    {
      "name": "j_lowergum",
      "rotation": [
        0.0,
        0.70709228515625,
        0.0,
        0.70709228515625
      ],
      "translation": [
        0.7619883418083191,
        -7.493000030517578,
        -0.41402000188827515
      ]
    },
    {
      "children": [
        75
      ],
      "name": "j_tongue_0",
      "rotation": [
        -0.524505615234375,
        0.475128173828125,
        -0.512725830078125,
        0.485992431640625
      ],
      "translation": [
        1.1633204221725464,
        -4.455159664154053,
        -0.3708399832248688
      ]
    },
    {
      "name": "j_tongue_1",
      "rotation": [
        0.0,
        0.0,
        0.0,
        0.999969482421875
      ],
      "translation": [
        1.05728280544281,
        0.0016202378319576383,
        -0.0011627196799963713
      ]
    },
    {
      "name": "j_uppergum",
      "rotation": [
        0.0,
        0.70709228515625,
        0.0,
        0.70709228515625
      ],
      "translation": [
        2.2961583137512207,
        -7.579360008239746,
        -0.29971998929977417
      ]
    },
    {
      "name": "j_chinstrap_003",
      "rotation": [
        0.0,
        0.70709228515625,
        0.0,
        0.70709228515625
      ],
      "translation": [
        -2.8473455905914307,
        -5.7327799797058105,
        -0.09143999218940735
      ]
    },
    {
      "mesh": 0,
      "skin": 0
    },
    {
      "mesh": 1,
      "skin": 0
    },
    {
      "mesh": 2,
      "skin": 0
    },
    {
      "mesh": 3,
      "skin": 0
    },
    {
      "mesh": 4,
      "skin": 0
    },
    {
      "mesh": 5,
      "skin": 0
    },
    {
      "mesh": 6,
      "skin": 0
    },
    {
      "mesh": 7,
      "skin": 0
    },
    {
      "mesh": 8,
      "skin": 0
    },
    {
      "mesh": 9,
      "skin": 0
    },
    {
      "mesh": 10,
      "skin": 0
    },
    {
      "mesh": 11,
      "skin": 0
    }
  ],
  "scene": 0,
  "scenes": [
    {
      "nodes": [
        0
      ]
    }
  ],
  "skins": [
    {
      "inverseBindMatrices": 0,
      "joints": [
        0,
        1,
        2,
        3,
        4,
        5,
        6,
        7,
        8,
        9,
        10,
        11,
        12,
        13,
        14,
        15,
        16,
        17,
        18,
        19,
        20,
        21,
        22,
        23,
        24,
        25,
        26,
        27,
        28,
        29,
        30,
        31,
        32,
        33,
        34,
        35,
        36,
        37,
        38,
        39,
        40,
        41,
        42,
        43,
        44,
        45,
        46,
        47,
        48,
        49,
        50,
        51,
        52,
        53,
        54,
        55,
        56,
        57,
        58,
        59,
        60,
        61,
        62,
        63,
        64,
        65,
        66,
        67,
        68,
        69,
        70,
        71,
        72,
        73,
        74,
        75,
        76,
        77
      ]
    }
  ],
  "textures": [
    {
      "source": 0
    },
    {
      "source": 1
    },
    {
      "source": 2
    },
    {
      "source": 3
    },
    {
      "source": 4
    },
    {
      "source": 5
    },
    {
      "source": 6
    },
    {
      "source": 7
    },
    {
      "source": 8
    }
  ]
}
